{"glyphs":{"0":{"ha":911,"x_min":63,"x_max":890,"o":"m 389 -17 q 192 47 268 -17 q 90 223 117 110 q 89 486 63 336 q 151 691 108 599 q 257 850 194 783 q 398 953 319 917 q 567 989 476 989 q 763 926 688 989 q 864 749 838 863 q 864 486 890 636 q 801 281 844 374 q 697 122 758 189 q 557 19 635 56 q 389 -17 479 -17 m 407 86 q 517 113 464 86 q 616 192 571 140 q 694 317 661 243 q 744 486 728 392 q 747 701 767 613 q 676 838 728 790 q 549 885 625 885 q 436 858 490 885 q 337 781 382 832 q 258 655 292 729 q 208 486 225 581 q 206 272 186 361 q 277 134 225 182 q 407 86 329 86 z "},"1":{"ha":475,"x_min":122,"x_max":475,"o":"m 185 0 l 333 842 l 122 778 l 139 869 l 396 972 l 475 972 l 303 0 l 185 0 z "},"2":{"ha":819,"x_min":26,"x_max":792,"o":"m 26 0 l 42 82 q 264 239 158 160 q 454 397 369 318 q 592 550 539 475 q 657 694 644 625 q 656 790 667 746 q 608 861 644 833 q 503 889 572 889 q 387 860 436 889 q 307 785 338 832 q 267 683 276 739 l 154 683 q 225 848 172 779 q 355 953 278 917 q 522 989 432 989 q 674 956 611 989 q 764 859 736 924 q 775 699 792 794 q 722 563 763 631 q 622 430 682 494 q 492 306 563 365 q 351 193 422 246 q 217 97 281 140 l 703 97 l 685 0 l 26 0 z "},"3":{"ha":831,"x_min":47,"x_max":788,"o":"m 344 -17 q 182 17 251 -17 q 80 119 113 51 q 63 289 47 188 l 181 289 q 190 187 172 233 q 251 113 207 140 q 363 85 294 85 q 481 111 431 85 q 563 181 532 138 q 604 279 594 225 q 590 385 615 344 q 513 447 564 426 q 397 467 463 467 l 325 467 l 342 565 l 414 565 q 577 610 513 565 q 656 736 642 656 q 630 844 667 801 q 504 888 593 888 q 358 840 417 888 q 281 719 300 793 l 163 719 q 231 860 181 799 q 356 955 281 921 q 522 989 431 989 q 679 956 619 989 q 763 867 739 922 q 775 743 788 811 q 740 647 767 693 q 669 568 713 601 q 564 521 625 535 q 659 478 619 510 q 717 396 699 446 q 722 279 735 346 q 659 133 708 200 q 531 24 610 65 q 344 -17 451 -17 z "},"4":{"ha":854,"x_min":31,"x_max":801,"o":"m 490 0 l 528 208 l 31 208 l 46 299 l 638 972 l 774 972 l 657 311 l 801 311 l 783 208 l 639 208 l 601 0 l 490 0 m 178 311 l 546 311 l 640 843 l 640 843 l 178 311 z "},"5":{"ha":842,"x_min":71,"x_max":811,"o":"m 360 -17 q 197 18 263 -17 q 101 112 132 53 q 75 247 71 171 l 189 247 q 240 129 192 175 q 379 83 288 83 q 501 115 447 83 q 590 201 554 146 q 638 324 626 256 q 633 444 650 392 q 575 526 617 496 q 469 556 533 556 q 334 525 393 556 q 238 450 275 494 l 122 450 l 289 972 l 811 972 l 793 871 l 361 871 l 257 567 q 360 630 299 606 q 499 654 422 654 q 622 629 569 654 q 708 559 675 604 q 752 454 740 514 q 751 325 764 394 q 681 154 735 232 q 545 30 628 76 q 360 -17 463 -17 z "},"6":{"ha":867,"x_min":79,"x_max":831,"o":"m 383 -17 q 215 22 279 -17 q 119 127 150 61 q 83 276 88 193 q 94 447 79 360 q 158 667 115 568 q 260 839 200 767 q 397 950 321 911 q 563 989 474 989 q 714 954 654 989 q 802 862 774 919 q 826 733 831 804 l 718 733 q 671 847 717 807 q 543 888 625 888 q 403 842 469 888 q 288 703 338 796 q 210 468 239 611 q 208 463 208 465 q 207 457 208 460 q 281 539 235 501 q 385 599 326 576 q 511 622 444 622 q 656 583 593 622 q 751 474 719 544 q 765 310 782 404 q 722 190 754 249 q 638 85 689 132 q 523 11 588 39 q 383 -17 458 -17 m 393 86 q 508 114 454 86 q 598 191 561 142 q 646 304 635 240 q 637 418 657 369 q 574 494 617 467 q 469 521 531 521 q 352 492 407 521 q 260 415 297 464 q 211 303 222 365 q 220 190 200 239 q 285 113 240 140 q 393 86 331 86 z "},"7":{"ha":747,"x_min":129,"x_max":800,"o":"m 151 0 l 663 872 l 129 872 l 147 972 l 800 972 l 785 885 l 275 0 l 151 0 z "},"8":{"ha":839,"x_min":61,"x_max":797,"o":"m 351 -17 q 192 19 260 -17 q 92 117 124 54 q 75 264 61 181 q 117 375 86 324 q 196 465 149 426 q 300 518 243 503 q 200 604 232 546 q 181 731 168 663 q 240 861 193 803 q 362 954 288 919 q 529 989 436 989 q 685 954 624 989 q 772 861 746 919 q 785 731 797 803 q 751 643 776 685 q 685 569 725 601 q 592 518 644 536 q 706 424 668 494 q 728 264 743 353 q 659 117 714 181 q 524 19 604 54 q 351 -17 443 -17 m 369 86 q 490 109 439 86 q 572 174 540 132 q 613 271 603 215 q 580 414 629 365 q 436 463 531 463 q 322 441 374 463 q 238 377 271 419 q 193 271 204 335 q 222 137 179 188 q 369 86 264 86 m 453 560 q 553 581 508 560 q 628 638 599 601 q 665 724 657 675 q 659 815 675 778 q 606 870 643 851 q 511 889 568 889 q 411 870 456 889 q 338 815 367 851 q 299 724 308 778 q 328 606 286 651 q 453 560 369 560 z "},"9":{"ha":868,"x_min":82,"x_max":831,"o":"m 347 -17 q 197 18 257 -17 q 110 111 138 53 q 85 239 82 169 l 193 239 q 241 125 196 165 q 367 85 286 85 q 473 108 426 85 q 555 172 519 131 q 617 267 590 213 q 665 384 644 321 q 703 515 686 447 q 630 433 675 471 q 526 373 585 396 q 399 350 467 350 q 254 390 318 350 q 160 503 190 429 q 147 678 129 576 q 193 806 160 749 q 276 903 226 863 q 389 967 325 944 q 526 989 453 989 q 695 950 631 989 q 791 845 760 911 q 826 696 822 779 q 815 525 831 613 q 752 305 794 404 q 649 133 710 206 q 513 22 589 61 q 347 -17 436 -17 m 440 451 q 558 480 503 451 q 651 558 613 508 q 700 669 689 607 q 692 783 713 735 q 625 859 671 832 q 517 886 579 886 q 403 858 457 886 q 313 782 350 831 q 264 668 275 733 q 268 554 253 603 q 326 478 283 506 q 440 451 368 451 z "},"A":{"ha":924,"x_min":-21,"x_max":818,"o":"m -21 0 l 510 972 l 633 972 l 818 0 l 693 0 l 544 826 l 544 826 l 101 0 l -21 0 m 188 250 l 238 344 l 678 344 l 694 250 l 188 250 z "},"Á":{"ha":924,"x_min":-21,"x_max":818,"o":"m -21 0 l 510 972 l 633 972 l 818 0 l 693 0 l 544 826 l 544 826 l 101 0 l -21 0 m 188 250 l 238 344 l 678 344 l 694 250 l 188 250 m 517 1046 l 454 1121 l 665 1299 l 665 1299 l 749 1204 l 517 1046 z "},"Ă":{"ha":924,"x_min":-21,"x_max":818,"o":"m -21 0 l 510 972 l 633 972 l 818 0 l 693 0 l 544 826 l 544 826 l 101 0 l -21 0 m 188 250 l 238 344 l 678 344 l 694 250 l 188 250 m 586 1068 q 483 1092 522 1068 q 430 1158 444 1117 q 424 1249 415 1199 l 428 1268 l 497 1268 q 512 1188 488 1217 q 603 1160 536 1160 q 703 1188 669 1160 q 747 1268 738 1217 l 818 1268 l 814 1249 q 776 1158 806 1199 q 698 1092 746 1117 q 586 1068 650 1068 z "},"Â":{"ha":924,"x_min":-21,"x_max":818,"o":"m -21 0 l 510 972 l 633 972 l 818 0 l 693 0 l 544 826 l 544 826 l 101 0 l -21 0 m 188 250 l 238 344 l 678 344 l 694 250 l 188 250 m 390 1056 l 407 1147 l 617 1260 l 788 1147 l 771 1056 l 601 1172 l 390 1056 z "},"Ä":{"ha":924,"x_min":-21,"x_max":818,"o":"m -21 0 l 510 972 l 633 972 l 818 0 l 693 0 l 544 826 l 544 826 l 101 0 l -21 0 m 188 250 l 238 344 l 678 344 l 694 250 l 188 250 m 493 1079 q 444 1099 464 1079 q 424 1149 424 1119 q 444 1197 424 1176 q 493 1218 464 1218 q 542 1197 521 1218 q 563 1149 563 1176 q 542 1099 563 1119 q 493 1079 521 1079 m 715 1079 q 666 1099 686 1079 q 646 1149 646 1119 q 666 1197 646 1176 q 715 1218 686 1218 q 763 1197 743 1218 q 783 1149 783 1176 q 763 1099 783 1119 q 715 1079 743 1079 z "},"À":{"ha":924,"x_min":-21,"x_max":818,"o":"m -21 0 l 510 972 l 633 972 l 818 0 l 693 0 l 544 826 l 544 826 l 101 0 l -21 0 m 188 250 l 238 344 l 678 344 l 694 250 l 188 250 m 686 1046 l 454 1204 l 538 1299 l 538 1299 l 749 1121 l 686 1046 z "},"Ā":{"ha":924,"x_min":-21,"x_max":854,"o":"m -21 0 l 510 972 l 633 972 l 818 0 l 693 0 l 544 826 l 544 826 l 101 0 l -21 0 m 188 250 l 238 344 l 678 344 l 694 250 l 188 250 m 356 1132 l 372 1219 l 854 1219 l 838 1132 l 356 1132 z "},"Ą":{"ha":924,"x_min":-21,"x_max":818,"o":"m -21 0 l 510 972 l 633 972 l 818 0 l 693 0 l 544 826 l 544 826 l 101 0 l -21 0 m 188 250 l 238 344 l 678 344 l 694 250 l 188 250 m 668 -282 q 590 -269 625 -282 q 538 -226 556 -256 q 528 -150 519 -197 q 554 -86 533 -117 q 615 -27 575 -56 q 721 28 656 1 l 800 60 l 818 0 l 731 -39 q 653 -87 678 -62 q 624 -139 629 -112 q 638 -189 618 -171 q 696 -207 658 -207 q 740 -201 715 -207 q 789 -186 765 -196 l 776 -264 q 724 -277 751 -272 q 668 -282 696 -282 z "},"Å":{"ha":924,"x_min":-21,"x_max":818,"o":"m -21 0 l 510 972 l 633 972 l 818 0 l 693 0 l 544 826 l 544 826 l 101 0 l -21 0 m 188 250 l 238 344 l 678 344 l 694 250 l 188 250 m 611 1068 q 508 1106 551 1068 q 465 1211 465 1144 q 508 1316 465 1278 q 611 1354 551 1354 q 715 1316 672 1354 q 757 1211 757 1278 q 715 1106 757 1144 q 611 1068 672 1068 m 611 1128 q 667 1151 644 1128 q 690 1211 690 1174 q 667 1272 690 1250 q 611 1293 644 1293 q 556 1272 579 1293 q 532 1211 532 1250 q 556 1151 532 1174 q 611 1128 579 1128 z "},"Ã":{"ha":924,"x_min":-21,"x_max":821,"o":"m -21 0 l 510 972 l 633 972 l 818 0 l 693 0 l 544 826 l 544 826 l 101 0 l -21 0 m 188 250 l 238 344 l 678 344 l 694 250 l 188 250 m 376 1068 q 440 1173 399 1138 q 533 1208 482 1208 q 592 1192 571 1208 q 633 1160 614 1176 q 682 1143 653 1143 q 724 1159 706 1143 q 753 1206 743 1175 l 821 1206 q 758 1101 800 1138 q 663 1065 715 1065 q 603 1082 625 1065 q 562 1115 581 1099 q 514 1131 543 1131 q 474 1115 492 1131 q 444 1068 456 1100 l 376 1068 z "},"Æ":{"ha":1271,"x_min":-21,"x_max":1296,"o":"m -21 0 l 706 972 l 1296 972 l 1279 879 l 878 879 l 817 536 l 1176 536 l 1161 444 l 801 444 l 739 93 l 1140 93 l 1124 0 l 606 0 l 761 876 l 761 876 l 107 0 l -21 0 m 207 221 l 272 314 l 715 314 l 699 221 l 207 221 z "},"Ǽ":{"ha":1271,"x_min":-21,"x_max":1296,"o":"m -21 0 l 706 972 l 1296 972 l 1279 879 l 878 879 l 817 536 l 1176 536 l 1161 444 l 801 444 l 739 93 l 1140 93 l 1124 0 l 606 0 l 761 876 l 761 876 l 107 0 l -21 0 m 207 221 l 272 314 l 715 314 l 699 221 l 207 221 m 785 1046 l 722 1121 l 933 1299 l 933 1299 l 1017 1204 l 785 1046 z "},"B":{"ha":843,"x_min":43,"x_max":829,"o":"m 43 0 l 215 972 l 557 972 q 721 940 660 972 q 806 851 782 907 q 817 725 829 794 q 763 600 804 650 q 665 524 721 550 q 549 492 608 497 l 569 506 q 679 472 632 504 q 749 386 726 440 q 758 265 771 332 q 699 131 746 192 q 575 35 651 71 q 396 0 499 0 l 43 0 m 178 97 l 401 97 q 518 118 468 97 q 599 178 568 139 q 640 274 631 218 q 608 405 656 356 q 461 454 560 454 l 240 454 l 178 97 m 257 547 l 474 547 q 625 592 568 547 q 696 713 682 636 q 689 799 704 763 q 633 855 674 835 q 526 875 593 875 l 314 875 l 257 547 z "},"C":{"ha":985,"x_min":63,"x_max":972,"o":"m 449 -17 q 222 47 311 -17 q 97 223 132 110 q 89 486 63 336 q 156 690 108 599 q 274 849 203 782 q 433 953 344 917 q 626 989 522 989 q 881 910 792 989 q 972 686 969 831 l 846 686 q 781 831 839 776 q 608 886 724 886 q 468 859 533 886 q 350 780 403 832 q 261 653 297 728 q 208 486 225 579 q 211 272 186 361 q 301 134 236 182 q 467 86 367 86 q 659 140 582 86 q 775 282 736 193 l 901 282 q 801 122 865 189 q 649 19 738 54 q 449 -17 560 -17 z "},"Ć":{"ha":985,"x_min":63,"x_max":972,"o":"m 449 -17 q 222 47 311 -17 q 97 223 132 110 q 89 486 63 336 q 156 690 108 599 q 274 849 203 782 q 433 953 344 917 q 626 989 522 989 q 881 910 792 989 q 972 686 969 831 l 846 686 q 781 831 839 776 q 608 886 724 886 q 468 859 533 886 q 350 780 403 832 q 261 653 297 728 q 208 486 225 579 q 211 272 186 361 q 301 134 236 182 q 467 86 367 86 q 659 140 582 86 q 775 282 736 193 l 901 282 q 801 122 865 189 q 649 19 738 54 q 449 -17 560 -17 m 568 1046 l 506 1121 l 717 1299 l 717 1299 l 800 1204 l 568 1046 z "},"Č":{"ha":985,"x_min":63,"x_max":972,"o":"m 449 -17 q 222 47 311 -17 q 97 223 132 110 q 89 486 63 336 q 156 690 108 599 q 274 849 203 782 q 433 953 344 917 q 626 989 522 989 q 881 910 792 989 q 972 686 969 831 l 846 686 q 781 831 839 776 q 608 886 724 886 q 468 859 533 886 q 350 780 403 832 q 261 653 297 728 q 208 486 225 579 q 211 272 186 361 q 301 134 236 182 q 467 86 367 86 q 659 140 582 86 q 775 282 736 193 l 901 282 q 801 122 865 189 q 649 19 738 54 q 449 -17 560 -17 m 864 1260 l 847 1168 l 638 1056 l 467 1168 l 483 1260 l 653 1143 l 864 1260 z "},"Ç":{"ha":985,"x_min":63,"x_max":972,"o":"m 449 -17 q 222 47 311 -17 q 97 223 132 110 q 89 486 63 336 q 156 690 108 599 q 274 849 203 782 q 433 953 344 917 q 626 989 522 989 q 881 910 792 989 q 972 686 969 831 l 846 686 q 781 831 839 776 q 608 886 724 886 q 468 859 533 886 q 350 780 403 832 q 261 653 297 728 q 208 486 225 579 q 211 272 186 361 q 301 134 236 182 q 467 86 367 86 q 659 140 582 86 q 775 282 736 193 l 901 282 q 801 122 865 189 q 649 19 738 54 q 449 -17 560 -17 m 289 -360 l 301 -286 l 429 -286 q 503 -269 478 -286 q 535 -219 529 -253 q 520 -173 540 -189 q 451 -157 500 -157 l 383 -157 l 413 10 l 490 10 l 474 -87 q 565 -101 526 -86 q 620 -146 603 -115 q 629 -221 638 -176 q 595 -295 622 -264 q 527 -343 568 -326 q 438 -360 486 -360 l 289 -360 z "},"Ċ":{"ha":985,"x_min":63,"x_max":972,"o":"m 449 -17 q 222 47 311 -17 q 97 223 132 110 q 89 486 63 336 q 156 690 108 599 q 274 849 203 782 q 433 953 344 917 q 626 989 522 989 q 881 910 792 989 q 972 686 969 831 l 846 686 q 781 831 839 776 q 608 886 724 886 q 468 859 533 886 q 350 780 403 832 q 261 653 297 728 q 208 486 225 579 q 211 272 186 361 q 301 134 236 182 q 467 86 367 86 q 659 140 582 86 q 775 282 736 193 l 901 282 q 801 122 865 189 q 649 19 738 54 q 449 -17 560 -17 m 653 1079 q 604 1100 625 1079 q 583 1149 583 1121 q 604 1197 583 1176 q 653 1218 625 1218 q 701 1197 681 1218 q 722 1149 722 1176 q 701 1100 722 1121 q 653 1079 681 1079 z "},"D":{"ha":924,"x_min":43,"x_max":903,"o":"m 43 0 l 215 972 l 465 972 q 734 913 635 972 q 868 745 833 854 q 876 483 903 636 q 811 282 857 371 q 692 130 765 193 q 520 33 619 67 q 293 0 421 0 l 43 0 m 178 97 l 308 97 q 540 144 449 97 q 683 277 631 190 q 756 483 735 364 q 756 693 778 606 q 660 828 735 781 q 444 875 585 875 l 314 875 l 178 97 z "},"Ď":{"ha":924,"x_min":43,"x_max":903,"o":"m 43 0 l 215 972 l 465 972 q 734 913 635 972 q 868 745 833 854 q 876 483 903 636 q 811 282 857 371 q 692 130 765 193 q 520 33 619 67 q 293 0 421 0 l 43 0 m 178 97 l 308 97 q 540 144 449 97 q 683 277 631 190 q 756 483 735 364 q 756 693 778 606 q 660 828 735 781 q 444 875 585 875 l 314 875 l 178 97 m 778 1260 l 761 1168 l 551 1056 l 381 1168 l 397 1260 l 567 1143 l 778 1260 z "},"Đ":{"ha":974,"x_min":22,"x_max":953,"o":"m 22 432 l 42 538 l 560 538 l 540 432 l 22 432 m 93 0 l 265 972 l 515 972 q 784 913 685 972 q 918 745 883 854 q 926 483 953 636 q 861 282 907 371 q 742 130 815 193 q 570 33 669 67 q 343 0 471 0 l 93 0 m 228 97 l 358 97 q 590 144 499 97 q 733 277 681 190 q 806 483 785 364 q 806 693 828 606 q 710 828 785 781 q 494 875 635 875 l 364 875 l 228 97 z "},"Ð":{"ha":974,"x_min":22,"x_max":953,"o":"m 22 432 l 42 538 l 560 538 l 540 432 l 22 432 m 93 0 l 265 972 l 515 972 q 784 913 685 972 q 918 745 883 854 q 926 483 953 636 q 861 282 907 371 q 742 130 815 193 q 570 33 669 67 q 343 0 471 0 l 93 0 m 228 97 l 358 97 q 590 144 499 97 q 733 277 681 190 q 806 483 785 364 q 806 693 828 606 q 710 828 785 781 q 494 875 635 875 l 364 875 l 228 97 z "},"E":{"ha":792,"x_min":43,"x_max":817,"o":"m 43 0 l 215 972 l 817 972 l 800 876 l 315 876 l 256 538 l 699 538 l 682 443 l 239 443 l 176 96 l 661 96 l 644 0 l 43 0 z "},"É":{"ha":792,"x_min":43,"x_max":817,"o":"m 43 0 l 215 972 l 817 972 l 800 876 l 315 876 l 256 538 l 699 538 l 682 443 l 239 443 l 176 96 l 661 96 l 644 0 l 43 0 m 472 1046 l 410 1121 l 621 1299 l 621 1299 l 704 1204 l 472 1046 z "},"Ĕ":{"ha":792,"x_min":43,"x_max":817,"o":"m 43 0 l 215 972 l 817 972 l 800 876 l 315 876 l 256 538 l 699 538 l 682 443 l 239 443 l 176 96 l 661 96 l 644 0 l 43 0 m 542 1068 q 439 1092 478 1068 q 385 1158 400 1117 q 379 1249 371 1199 l 383 1268 l 453 1268 q 467 1188 443 1217 q 558 1160 492 1160 q 659 1188 625 1160 q 703 1268 693 1217 l 774 1268 l 769 1249 q 731 1158 761 1199 q 653 1092 701 1117 q 542 1068 606 1068 z "},"Ě":{"ha":792,"x_min":43,"x_max":817,"o":"m 43 0 l 215 972 l 817 972 l 800 876 l 315 876 l 256 538 l 699 538 l 682 443 l 239 443 l 176 96 l 661 96 l 644 0 l 43 0 m 768 1260 l 751 1168 l 542 1056 l 371 1168 l 388 1260 l 557 1143 l 768 1260 z "},"Ê":{"ha":792,"x_min":43,"x_max":817,"o":"m 43 0 l 215 972 l 817 972 l 800 876 l 315 876 l 256 538 l 699 538 l 682 443 l 239 443 l 176 96 l 661 96 l 644 0 l 43 0 m 346 1056 l 363 1147 l 572 1260 l 743 1147 l 726 1056 l 557 1172 l 346 1056 z "},"Ë":{"ha":792,"x_min":43,"x_max":817,"o":"m 43 0 l 215 972 l 817 972 l 800 876 l 315 876 l 256 538 l 699 538 l 682 443 l 239 443 l 176 96 l 661 96 l 644 0 l 43 0 m 449 1079 q 399 1099 419 1079 q 379 1149 379 1119 q 399 1197 379 1176 q 449 1218 419 1218 q 497 1197 476 1218 q 518 1149 518 1176 q 497 1099 518 1119 q 449 1079 476 1079 m 671 1079 q 622 1099 642 1079 q 601 1149 601 1119 q 622 1197 601 1176 q 671 1218 642 1218 q 719 1197 699 1218 q 739 1149 739 1176 q 719 1099 739 1119 q 671 1079 699 1079 z "},"Ė":{"ha":792,"x_min":43,"x_max":817,"o":"m 43 0 l 215 972 l 817 972 l 800 876 l 315 876 l 256 538 l 699 538 l 682 443 l 239 443 l 176 96 l 661 96 l 644 0 l 43 0 m 557 1079 q 508 1100 529 1079 q 488 1149 488 1121 q 508 1197 488 1176 q 557 1218 529 1218 q 606 1197 585 1218 q 626 1149 626 1176 q 606 1100 626 1121 q 557 1079 585 1079 z "},"È":{"ha":792,"x_min":43,"x_max":817,"o":"m 43 0 l 215 972 l 817 972 l 800 876 l 315 876 l 256 538 l 699 538 l 682 443 l 239 443 l 176 96 l 661 96 l 644 0 l 43 0 m 642 1046 l 410 1204 l 493 1299 l 493 1299 l 704 1121 l 642 1046 z "},"Ē":{"ha":792,"x_min":43,"x_max":817,"o":"m 43 0 l 215 972 l 817 972 l 800 876 l 315 876 l 256 538 l 699 538 l 682 443 l 239 443 l 176 96 l 661 96 l 644 0 l 43 0 m 311 1132 l 328 1219 l 810 1219 l 793 1132 l 311 1132 z "},"Ę":{"ha":792,"x_min":43,"x_max":817,"o":"m 43 0 l 215 972 l 817 972 l 800 876 l 315 876 l 256 538 l 699 538 l 682 443 l 239 443 l 176 96 l 661 96 l 644 0 l 43 0 m 494 -282 q 417 -269 451 -282 q 364 -226 382 -256 q 354 -150 346 -197 q 381 -86 360 -117 q 442 -27 401 -56 q 547 28 482 1 l 626 60 l 644 0 l 557 -39 q 480 -87 504 -62 q 450 -139 456 -112 q 465 -189 444 -171 q 522 -207 485 -207 q 567 -201 542 -207 q 615 -186 592 -196 l 603 -264 q 550 -277 578 -272 q 494 -282 522 -282 z "},"Ẽ":{"ha":792,"x_min":43,"x_max":817,"o":"m 43 0 l 215 972 l 817 972 l 800 876 l 315 876 l 256 538 l 699 538 l 682 443 l 239 443 l 176 96 l 661 96 l 644 0 l 43 0 m 332 1068 q 396 1173 354 1138 q 489 1208 438 1208 q 548 1192 526 1208 q 589 1160 569 1176 q 638 1143 608 1143 q 680 1159 661 1143 q 708 1206 699 1175 l 776 1206 q 713 1101 756 1138 q 618 1065 671 1065 q 558 1082 581 1065 q 517 1115 536 1099 q 469 1131 499 1131 q 429 1115 447 1131 q 400 1068 411 1100 l 332 1068 z "},"Ə":{"ha":979,"x_min":65,"x_max":958,"o":"m 417 -17 q 240 19 311 -17 q 128 117 168 54 q 76 263 88 181 q 82 442 65 346 q 88 476 85 458 q 97 517 92 494 l 844 517 l 828 421 l 203 421 q 208 225 183 301 q 292 112 232 149 q 436 75 351 75 q 553 97 496 75 q 661 164 611 118 q 748 281 711 210 q 803 451 785 353 l 810 494 q 808 721 835 632 q 722 853 782 810 q 579 897 661 897 q 398 852 468 897 q 282 713 328 807 l 154 713 q 254 854 192 792 q 403 953 317 917 q 596 989 489 989 q 808 926 724 989 q 925 749 892 863 q 932 486 958 636 q 864 276 911 369 q 749 118 817 183 q 596 18 681 53 q 417 -17 511 -17 z "},"F":{"ha":750,"x_min":43,"x_max":807,"o":"m 43 0 l 215 972 l 807 972 l 790 876 l 315 876 l 254 535 l 658 535 l 642 440 l 238 440 l 160 0 l 43 0 z "},"G":{"ha":1057,"x_min":63,"x_max":1011,"o":"m 456 -17 q 227 47 318 -17 q 99 222 136 110 q 89 485 63 335 q 158 688 108 596 q 281 848 207 781 q 448 952 354 915 q 650 989 542 989 q 910 910 814 989 q 1011 692 1006 832 l 876 692 q 809 831 872 779 q 631 882 746 882 q 435 834 524 882 q 289 697 347 786 q 208 485 231 608 q 213 272 186 361 q 309 135 240 182 q 478 88 378 88 q 658 129 582 88 q 786 247 735 171 q 864 428 838 324 l 583 428 l 599 519 l 999 519 l 907 0 l 800 0 l 819 160 l 819 160 q 722 63 775 103 q 605 3 669 24 q 456 -17 540 -17 z "},"Ğ":{"ha":1057,"x_min":63,"x_max":1011,"o":"m 456 -17 q 227 47 318 -17 q 99 222 136 110 q 89 485 63 335 q 158 688 108 596 q 281 848 207 781 q 448 952 354 915 q 650 989 542 989 q 910 910 814 989 q 1011 692 1006 832 l 876 692 q 809 831 872 779 q 631 882 746 882 q 435 834 524 882 q 289 697 347 786 q 208 485 231 608 q 213 272 186 361 q 309 135 240 182 q 478 88 378 88 q 658 129 582 88 q 786 247 735 171 q 864 428 838 324 l 583 428 l 599 519 l 999 519 l 907 0 l 800 0 l 819 160 l 819 160 q 722 63 775 103 q 605 3 669 24 q 456 -17 540 -17 m 674 1068 q 571 1092 610 1068 q 517 1158 532 1117 q 511 1249 503 1199 l 515 1268 l 585 1268 q 599 1188 575 1217 q 690 1160 624 1160 q 791 1188 757 1160 q 835 1268 825 1217 l 906 1268 l 901 1249 q 863 1158 893 1199 q 785 1092 833 1117 q 674 1068 738 1068 z "},"Ģ":{"ha":1057,"x_min":63,"x_max":1011,"o":"m 456 -17 q 227 47 318 -17 q 99 222 136 110 q 89 485 63 335 q 158 688 108 596 q 281 848 207 781 q 448 952 354 915 q 650 989 542 989 q 910 910 814 989 q 1011 692 1006 832 l 876 692 q 809 831 872 779 q 631 882 746 882 q 435 834 524 882 q 289 697 347 786 q 208 485 231 608 q 213 272 186 361 q 309 135 240 182 q 478 88 378 88 q 658 129 582 88 q 786 247 735 171 q 864 428 838 324 l 583 428 l 599 519 l 999 519 l 907 0 l 800 0 l 819 160 l 819 160 q 722 63 775 103 q 605 3 669 24 q 456 -17 540 -17 m 361 -331 l 371 -275 q 425 -255 406 -275 q 450 -196 444 -235 l 453 -176 l 390 -176 l 410 -69 l 529 -69 q 529 -124 531 -97 q 524 -172 528 -150 q 467 -292 510 -254 q 361 -331 425 -331 z "},"Ġ":{"ha":1057,"x_min":63,"x_max":1011,"o":"m 456 -17 q 227 47 318 -17 q 99 222 136 110 q 89 485 63 335 q 158 688 108 596 q 281 848 207 781 q 448 952 354 915 q 650 989 542 989 q 910 910 814 989 q 1011 692 1006 832 l 876 692 q 809 831 872 779 q 631 882 746 882 q 435 834 524 882 q 289 697 347 786 q 208 485 231 608 q 213 272 186 361 q 309 135 240 182 q 478 88 378 88 q 658 129 582 88 q 786 247 735 171 q 864 428 838 324 l 583 428 l 599 519 l 999 519 l 907 0 l 800 0 l 819 160 l 819 160 q 722 63 775 103 q 605 3 669 24 q 456 -17 540 -17 m 689 1079 q 640 1100 661 1079 q 619 1149 619 1121 q 640 1197 619 1176 q 689 1218 661 1218 q 738 1197 717 1218 q 758 1149 758 1176 q 738 1100 758 1121 q 689 1079 717 1079 z "},"H":{"ha":953,"x_min":43,"x_max":953,"o":"m 664 0 l 836 972 l 953 972 l 781 0 l 664 0 m 43 0 l 215 972 l 332 972 l 160 0 l 43 0 m 217 447 l 233 543 l 789 543 l 772 447 l 217 447 z "},"Ħ":{"ha":1042,"x_min":86,"x_max":1061,"o":"m 113 688 l 132 793 l 1061 793 l 1042 688 l 113 688 m 707 0 l 879 972 l 996 972 l 824 0 l 707 0 m 86 0 l 258 972 l 375 972 l 203 0 l 86 0 m 260 447 l 276 543 l 832 543 l 815 447 l 260 447 z "},"I":{"ha":332,"x_min":43,"x_max":332,"o":"m 43 0 l 215 972 l 332 972 l 160 0 l 43 0 z "},"Ĳ":{"ha":983,"x_min":43,"x_max":983,"o":"m 43 0 l 215 972 l 332 972 l 160 0 l 43 0 m 538 -17 q 392 17 450 -17 q 312 113 335 50 q 304 261 289 175 l 422 261 q 423 173 414 213 q 463 110 432 133 q 554 88 494 88 q 651 110 613 88 q 710 170 689 132 q 740 257 732 208 l 867 972 l 983 972 l 857 257 q 750 55 835 126 q 538 -17 665 -17 z "},"Í":{"ha":332,"x_min":43,"x_max":451,"o":"m 43 0 l 215 972 l 332 972 l 160 0 l 43 0 m 219 1046 l 157 1121 l 368 1299 l 368 1299 l 451 1204 l 219 1046 z "},"Ĭ":{"ha":332,"x_min":43,"x_max":521,"o":"m 43 0 l 215 972 l 332 972 l 160 0 l 43 0 m 289 1068 q 186 1092 225 1068 q 133 1158 147 1117 q 126 1249 118 1199 l 131 1268 l 200 1268 q 215 1188 190 1217 q 306 1160 239 1160 q 406 1188 372 1160 q 450 1268 440 1217 l 521 1268 l 517 1249 q 478 1158 508 1199 q 401 1092 449 1117 q 289 1068 353 1068 z "},"Î":{"ha":332,"x_min":43,"x_max":490,"o":"m 43 0 l 215 972 l 332 972 l 160 0 l 43 0 m 93 1056 l 110 1147 l 319 1260 l 490 1147 l 474 1056 l 304 1172 l 93 1056 z "},"Ï":{"ha":332,"x_min":43,"x_max":486,"o":"m 43 0 l 215 972 l 332 972 l 160 0 l 43 0 m 196 1079 q 147 1099 167 1079 q 126 1149 126 1119 q 147 1197 126 1176 q 196 1218 167 1218 q 244 1197 224 1218 q 265 1149 265 1176 q 244 1099 265 1119 q 196 1079 224 1079 m 418 1079 q 369 1099 389 1079 q 349 1149 349 1119 q 369 1197 349 1176 q 418 1218 389 1218 q 466 1197 446 1218 q 486 1149 486 1176 q 466 1099 486 1119 q 418 1079 446 1079 z "},"İ":{"ha":332,"x_min":43,"x_max":374,"o":"m 43 0 l 215 972 l 332 972 l 160 0 l 43 0 m 304 1079 q 256 1100 276 1079 q 235 1149 235 1121 q 256 1197 235 1176 q 304 1218 276 1218 q 353 1197 332 1218 q 374 1149 374 1176 q 353 1100 374 1121 q 304 1079 332 1079 z "},"Ì":{"ha":332,"x_min":43,"x_max":451,"o":"m 43 0 l 215 972 l 332 972 l 160 0 l 43 0 m 389 1046 l 157 1204 l 240 1299 l 240 1299 l 451 1121 l 389 1046 z "},"Ī":{"ha":332,"x_min":43,"x_max":557,"o":"m 43 0 l 215 972 l 332 972 l 160 0 l 43 0 m 58 1132 l 75 1219 l 557 1219 l 540 1132 l 58 1132 z "},"Į":{"ha":332,"x_min":-139,"x_max":332,"o":"m 43 0 l 215 972 l 332 972 l 160 0 l 43 0 m 10 -282 q -68 -269 -33 -282 q -121 -226 -103 -256 q -131 -150 -139 -197 q -104 -86 -125 -117 q -43 -27 -83 -56 q 63 28 -3 1 l 142 60 l 160 0 l 72 -39 q -5 -87 19 -62 q -35 -139 -29 -112 q -20 -189 -40 -171 q 38 -207 0 -207 q 82 -201 57 -207 q 131 -186 107 -196 l 118 -264 q 65 -277 93 -272 q 10 -282 38 -282 z "},"Ĩ":{"ha":332,"x_min":43,"x_max":524,"o":"m 43 0 l 215 972 l 332 972 l 160 0 l 43 0 m 79 1068 q 143 1173 101 1138 q 236 1208 185 1208 q 295 1192 274 1208 q 336 1160 317 1176 q 385 1143 356 1143 q 427 1159 408 1143 q 456 1206 446 1175 l 524 1206 q 460 1101 503 1138 q 365 1065 418 1065 q 306 1082 328 1065 q 265 1115 283 1099 q 217 1131 246 1131 q 176 1115 194 1131 q 147 1068 158 1100 l 79 1068 z "},"J":{"ha":706,"x_min":11,"x_max":706,"o":"m 260 -17 q 115 17 172 -17 q 34 113 57 50 q 26 261 11 175 l 144 261 q 145 173 136 213 q 185 110 154 133 q 276 88 217 88 q 373 110 335 88 q 433 170 411 132 q 463 257 454 208 l 589 972 l 706 972 l 579 257 q 472 55 557 126 q 260 -17 388 -17 z "},"K":{"ha":819,"x_min":43,"x_max":885,"o":"m 43 0 l 215 972 l 332 972 l 254 532 l 738 972 l 885 972 l 457 585 l 719 0 l 590 0 l 365 503 l 226 379 l 160 0 l 43 0 z "},"Ķ":{"ha":819,"x_min":43,"x_max":885,"o":"m 43 0 l 215 972 l 332 972 l 254 532 l 738 972 l 885 972 l 457 585 l 719 0 l 590 0 l 365 503 l 226 379 l 160 0 l 43 0 m 243 -331 l 253 -275 q 307 -255 288 -275 q 332 -196 326 -235 l 335 -176 l 272 -176 l 292 -69 l 411 -69 q 411 -124 413 -97 q 406 -172 410 -150 q 349 -292 392 -254 q 243 -331 307 -331 z "},"L":{"ha":739,"x_min":43,"x_max":629,"o":"m 43 0 l 215 972 l 332 972 l 176 93 l 629 93 l 613 0 l 43 0 z "},"Ĺ":{"ha":739,"x_min":43,"x_max":629,"o":"m 43 0 l 215 972 l 332 972 l 176 93 l 629 93 l 613 0 l 43 0 m 218 1046 l 156 1121 l 367 1299 l 367 1299 l 450 1204 l 218 1046 z "},"Ľ":{"ha":739,"x_min":43,"x_max":629,"o":"m 43 0 l 215 972 l 332 972 l 176 93 l 629 93 l 613 0 l 43 0 m 385 754 l 394 810 q 448 823 431 810 q 471 863 465 836 l 475 892 l 408 892 l 429 1007 l 551 1007 q 552 944 553 971 q 546 890 551 918 q 492 786 533 818 q 385 754 450 754 z "},"Ļ":{"ha":739,"x_min":43,"x_max":629,"o":"m 43 0 l 215 972 l 332 972 l 176 93 l 629 93 l 613 0 l 43 0 m 203 -331 l 213 -275 q 267 -255 247 -275 q 292 -196 286 -235 l 294 -176 l 232 -176 l 251 -69 l 371 -69 q 371 -124 372 -97 q 365 -172 369 -150 q 309 -292 351 -254 q 203 -331 267 -331 z "},"Ŀ":{"ha":739,"x_min":43,"x_max":629,"o":"m 43 0 l 215 972 l 332 972 l 176 93 l 629 93 l 613 0 l 43 0 m 525 407 q 468 429 490 407 q 446 486 446 451 q 468 543 446 521 q 525 565 490 565 q 582 543 560 565 q 604 486 604 521 q 582 429 604 451 q 525 407 560 407 z "},"Ł":{"ha":797,"x_min":29,"x_max":688,"o":"m 29 394 l 44 488 l 468 638 l 453 544 l 29 394 m 101 0 l 274 972 l 390 972 l 235 93 l 688 93 l 671 0 l 101 0 z "},"M":{"ha":1147,"x_min":43,"x_max":1147,"o":"m 43 0 l 215 972 l 351 972 l 561 288 l 561 288 l 1010 972 l 1147 972 l 975 0 l 858 0 l 993 763 l 993 763 l 576 128 l 489 128 l 293 757 l 293 757 l 160 0 l 43 0 z "},"N":{"ha":967,"x_min":43,"x_max":967,"o":"m 43 0 l 215 972 l 332 972 l 713 192 l 713 192 l 850 972 l 967 972 l 794 0 l 678 0 l 297 781 l 297 781 l 160 0 l 43 0 z "},"Ń":{"ha":967,"x_min":43,"x_max":967,"o":"m 43 0 l 215 972 l 332 972 l 713 192 l 713 192 l 850 972 l 967 972 l 794 0 l 678 0 l 297 781 l 297 781 l 160 0 l 43 0 m 560 1046 l 497 1121 l 708 1299 l 708 1299 l 792 1204 l 560 1046 z "},"Ň":{"ha":967,"x_min":43,"x_max":967,"o":"m 43 0 l 215 972 l 332 972 l 713 192 l 713 192 l 850 972 l 967 972 l 794 0 l 678 0 l 297 781 l 297 781 l 160 0 l 43 0 m 856 1260 l 839 1168 l 629 1056 l 458 1168 l 475 1260 l 644 1143 l 856 1260 z "},"Ņ":{"ha":967,"x_min":43,"x_max":967,"o":"m 43 0 l 215 972 l 332 972 l 713 192 l 713 192 l 850 972 l 967 972 l 794 0 l 678 0 l 297 781 l 297 781 l 160 0 l 43 0 m 317 -331 l 326 -275 q 381 -255 361 -275 q 406 -196 400 -235 l 408 -176 l 346 -176 l 365 -69 l 485 -69 q 485 -124 486 -97 q 479 -172 483 -150 q 423 -292 465 -254 q 317 -331 381 -331 z "},"Ñ":{"ha":967,"x_min":43,"x_max":967,"o":"m 43 0 l 215 972 l 332 972 l 713 192 l 713 192 l 850 972 l 967 972 l 794 0 l 678 0 l 297 781 l 297 781 l 160 0 l 43 0 m 419 1068 q 483 1173 442 1138 q 576 1208 525 1208 q 635 1192 614 1208 q 676 1160 657 1176 q 725 1143 696 1143 q 767 1159 749 1143 q 796 1206 786 1175 l 864 1206 q 801 1101 843 1138 q 706 1065 758 1065 q 646 1082 668 1065 q 605 1115 624 1099 q 557 1131 586 1131 q 517 1115 535 1131 q 488 1068 499 1100 l 419 1068 z "},"Ŋ":{"ha":965,"x_min":43,"x_max":965,"o":"m 43 0 l 214 972 l 331 972 l 711 192 l 711 192 l 849 972 l 965 972 l 774 -114 q 733 -223 763 -181 q 656 -285 703 -265 q 544 -306 608 -306 l 472 -306 l 490 -206 l 544 -206 q 623 -184 597 -206 q 658 -111 649 -162 l 678 0 l 297 781 l 297 781 l 160 0 l 43 0 z "},"O":{"ha":1036,"x_min":63,"x_max":1015,"o":"m 450 -17 q 226 47 317 -17 q 99 223 136 110 q 89 486 63 336 q 157 690 108 597 q 277 849 206 782 q 438 952 349 915 q 628 989 528 989 q 854 925 764 989 q 980 748 944 861 q 989 486 1015 635 q 921 282 969 374 q 801 123 872 190 q 642 19 731 56 q 450 -17 553 -17 m 468 86 q 608 113 543 86 q 726 192 674 140 q 816 319 779 244 q 869 486 853 393 q 866 701 892 611 q 775 838 840 790 q 610 885 710 885 q 470 858 536 885 q 351 779 404 831 q 262 654 299 728 q 208 486 225 581 q 212 272 186 361 q 303 134 238 182 q 468 86 369 86 z "},"Ó":{"ha":1036,"x_min":63,"x_max":1015,"o":"m 450 -17 q 226 47 317 -17 q 99 223 136 110 q 89 486 63 336 q 157 690 108 597 q 277 849 206 782 q 438 952 349 915 q 628 989 528 989 q 854 925 764 989 q 980 748 944 861 q 989 486 1015 635 q 921 282 969 374 q 801 123 872 190 q 642 19 731 56 q 450 -17 553 -17 m 468 86 q 608 113 543 86 q 726 192 674 140 q 816 319 779 244 q 869 486 853 393 q 866 701 892 611 q 775 838 840 790 q 610 885 710 885 q 470 858 536 885 q 351 779 404 831 q 262 654 299 728 q 208 486 225 581 q 212 272 186 361 q 303 134 238 182 q 468 86 369 86 m 593 1046 l 531 1121 l 742 1299 l 742 1299 l 825 1204 l 593 1046 z "},"Ŏ":{"ha":1036,"x_min":63,"x_max":1015,"o":"m 450 -17 q 226 47 317 -17 q 99 223 136 110 q 89 486 63 336 q 157 690 108 597 q 277 849 206 782 q 438 952 349 915 q 628 989 528 989 q 854 925 764 989 q 980 748 944 861 q 989 486 1015 635 q 921 282 969 374 q 801 123 872 190 q 642 19 731 56 q 450 -17 553 -17 m 468 86 q 608 113 543 86 q 726 192 674 140 q 816 319 779 244 q 869 486 853 393 q 866 701 892 611 q 775 838 840 790 q 610 885 710 885 q 470 858 536 885 q 351 779 404 831 q 262 654 299 728 q 208 486 225 581 q 212 272 186 361 q 303 134 238 182 q 468 86 369 86 m 663 1068 q 560 1092 599 1068 q 506 1158 521 1117 q 500 1249 492 1199 l 504 1268 l 574 1268 q 588 1188 564 1217 q 679 1160 613 1160 q 780 1188 746 1160 q 824 1268 814 1217 l 894 1268 l 890 1249 q 852 1158 882 1199 q 774 1092 822 1117 q 663 1068 726 1068 z "},"Ô":{"ha":1036,"x_min":63,"x_max":1015,"o":"m 450 -17 q 226 47 317 -17 q 99 223 136 110 q 89 486 63 336 q 157 690 108 597 q 277 849 206 782 q 438 952 349 915 q 628 989 528 989 q 854 925 764 989 q 980 748 944 861 q 989 486 1015 635 q 921 282 969 374 q 801 123 872 190 q 642 19 731 56 q 450 -17 553 -17 m 468 86 q 608 113 543 86 q 726 192 674 140 q 816 319 779 244 q 869 486 853 393 q 866 701 892 611 q 775 838 840 790 q 610 885 710 885 q 470 858 536 885 q 351 779 404 831 q 262 654 299 728 q 208 486 225 581 q 212 272 186 361 q 303 134 238 182 q 468 86 369 86 m 467 1056 l 483 1147 l 693 1260 l 864 1147 l 847 1056 l 678 1172 l 467 1056 z "},"Ö":{"ha":1036,"x_min":63,"x_max":1015,"o":"m 450 -17 q 226 47 317 -17 q 99 223 136 110 q 89 486 63 336 q 157 690 108 597 q 277 849 206 782 q 438 952 349 915 q 628 989 528 989 q 854 925 764 989 q 980 748 944 861 q 989 486 1015 635 q 921 282 969 374 q 801 123 872 190 q 642 19 731 56 q 450 -17 553 -17 m 468 86 q 608 113 543 86 q 726 192 674 140 q 816 319 779 244 q 869 486 853 393 q 866 701 892 611 q 775 838 840 790 q 610 885 710 885 q 470 858 536 885 q 351 779 404 831 q 262 654 299 728 q 208 486 225 581 q 212 272 186 361 q 303 134 238 182 q 468 86 369 86 m 569 1079 q 520 1099 540 1079 q 500 1149 500 1119 q 520 1197 500 1176 q 569 1218 540 1218 q 618 1197 597 1218 q 639 1149 639 1176 q 618 1099 639 1119 q 569 1079 597 1079 m 792 1079 q 742 1099 763 1079 q 722 1149 722 1119 q 742 1197 722 1176 q 792 1218 763 1218 q 840 1197 819 1218 q 860 1149 860 1176 q 840 1099 860 1119 q 792 1079 819 1079 z "},"Ò":{"ha":1036,"x_min":63,"x_max":1015,"o":"m 450 -17 q 226 47 317 -17 q 99 223 136 110 q 89 486 63 336 q 157 690 108 597 q 277 849 206 782 q 438 952 349 915 q 628 989 528 989 q 854 925 764 989 q 980 748 944 861 q 989 486 1015 635 q 921 282 969 374 q 801 123 872 190 q 642 19 731 56 q 450 -17 553 -17 m 468 86 q 608 113 543 86 q 726 192 674 140 q 816 319 779 244 q 869 486 853 393 q 866 701 892 611 q 775 838 840 790 q 610 885 710 885 q 470 858 536 885 q 351 779 404 831 q 262 654 299 728 q 208 486 225 581 q 212 272 186 361 q 303 134 238 182 q 468 86 369 86 m 763 1046 l 531 1204 l 614 1299 l 614 1299 l 825 1121 l 763 1046 z "},"Ő":{"ha":1036,"x_min":63,"x_max":1015,"o":"m 450 -17 q 226 47 317 -17 q 99 223 136 110 q 89 486 63 336 q 157 690 108 597 q 277 849 206 782 q 438 952 349 915 q 628 989 528 989 q 854 925 764 989 q 980 748 944 861 q 989 486 1015 635 q 921 282 969 374 q 801 123 872 190 q 642 19 731 56 q 450 -17 553 -17 m 468 86 q 608 113 543 86 q 726 192 674 140 q 816 319 779 244 q 869 486 853 393 q 866 701 892 611 q 775 838 840 790 q 610 885 710 885 q 470 858 536 885 q 351 779 404 831 q 262 654 299 728 q 208 486 225 581 q 212 272 186 361 q 303 134 238 182 q 468 86 369 86 m 660 1056 l 796 1263 l 897 1263 l 738 1056 l 660 1056 m 457 1056 l 585 1263 l 686 1263 l 536 1056 l 457 1056 z "},"Ō":{"ha":1036,"x_min":63,"x_max":1015,"o":"m 450 -17 q 226 47 317 -17 q 99 223 136 110 q 89 486 63 336 q 157 690 108 597 q 277 849 206 782 q 438 952 349 915 q 628 989 528 989 q 854 925 764 989 q 980 748 944 861 q 989 486 1015 635 q 921 282 969 374 q 801 123 872 190 q 642 19 731 56 q 450 -17 553 -17 m 468 86 q 608 113 543 86 q 726 192 674 140 q 816 319 779 244 q 869 486 853 393 q 866 701 892 611 q 775 838 840 790 q 610 885 710 885 q 470 858 536 885 q 351 779 404 831 q 262 654 299 728 q 208 486 225 581 q 212 272 186 361 q 303 134 238 182 q 468 86 369 86 m 432 1132 l 449 1219 l 931 1219 l 914 1132 l 432 1132 z "},"Ø":{"ha":1039,"x_min":-36,"x_max":1119,"o":"m -36 0 l 996 972 l 1119 972 l 89 0 l -36 0 m 472 -17 q 249 47 339 -17 q 122 223 158 110 q 111 486 85 336 q 179 690 131 597 q 299 849 228 782 q 460 952 371 915 q 650 989 550 989 q 876 925 786 989 q 1002 748 967 861 q 1011 486 1038 635 q 943 282 992 374 q 824 123 894 190 q 664 19 753 56 q 472 -17 575 -17 m 490 86 q 631 113 565 86 q 749 192 696 140 q 838 319 801 244 q 892 486 875 393 q 888 701 914 611 q 797 838 863 790 q 632 885 732 885 q 492 858 558 885 q 374 779 426 831 q 284 654 321 728 q 231 486 247 581 q 234 272 208 361 q 326 134 260 182 q 490 86 392 86 z "},"Õ":{"ha":1036,"x_min":63,"x_max":1015,"o":"m 450 -17 q 226 47 317 -17 q 99 223 136 110 q 89 486 63 336 q 157 690 108 597 q 277 849 206 782 q 438 952 349 915 q 628 989 528 989 q 854 925 764 989 q 980 748 944 861 q 989 486 1015 635 q 921 282 969 374 q 801 123 872 190 q 642 19 731 56 q 450 -17 553 -17 m 468 86 q 608 113 543 86 q 726 192 674 140 q 816 319 779 244 q 869 486 853 393 q 866 701 892 611 q 775 838 840 790 q 610 885 710 885 q 470 858 536 885 q 351 779 404 831 q 262 654 299 728 q 208 486 225 581 q 212 272 186 361 q 303 134 238 182 q 468 86 369 86 m 453 1068 q 517 1173 475 1138 q 610 1208 558 1208 q 669 1192 647 1208 q 710 1160 690 1176 q 758 1143 729 1143 q 801 1159 782 1143 q 829 1206 819 1175 l 897 1206 q 834 1101 876 1138 q 739 1065 792 1065 q 679 1082 701 1065 q 638 1115 657 1099 q 590 1131 619 1131 q 550 1115 568 1131 q 521 1068 532 1100 l 453 1068 z "},"Œ":{"ha":1532,"x_min":63,"x_max":1557,"o":"m 450 -17 q 226 47 317 -17 q 99 223 136 110 q 89 486 63 336 q 157 690 108 597 q 277 849 206 782 q 438 952 349 915 q 628 989 528 989 q 755 972 697 989 q 857 922 813 954 q 932 843 901 889 l 956 972 l 1557 972 l 1540 876 l 1056 876 l 996 538 l 1439 538 l 1422 443 l 979 443 l 917 96 l 1401 96 l 1385 0 l 783 0 l 807 128 q 703 50 760 82 q 583 1 647 18 q 450 -17 519 -17 m 468 86 q 608 113 543 86 q 726 192 674 140 q 816 319 779 244 q 869 486 853 393 q 866 701 892 611 q 775 838 840 790 q 610 885 710 885 q 470 858 536 885 q 351 779 404 831 q 262 654 299 728 q 208 486 225 581 q 212 272 186 361 q 303 134 238 182 q 468 86 369 86 z "},"P":{"ha":813,"x_min":43,"x_max":829,"o":"m 43 0 l 215 972 l 528 972 q 712 933 644 972 q 804 828 779 894 q 815 679 829 763 q 753 531 801 597 q 624 425 706 464 q 424 386 542 386 l 228 386 l 160 0 l 43 0 m 246 485 l 440 485 q 622 538 563 485 q 696 679 681 592 q 671 823 711 771 q 508 875 631 875 l 314 875 l 246 485 z "},"Þ":{"ha":813,"x_min":43,"x_max":796,"o":"m 43 0 l 215 972 l 332 972 l 296 769 l 499 769 q 680 733 613 769 q 772 632 747 696 q 781 486 796 568 q 720 343 767 407 q 594 242 674 279 q 399 204 514 204 l 196 204 l 160 0 l 43 0 m 214 301 l 414 301 q 588 351 529 301 q 661 486 647 401 q 635 624 676 575 q 479 672 594 672 l 279 672 l 214 301 z "},"Q":{"ha":1036,"x_min":63,"x_max":1015,"o":"m 703 -132 l 486 379 l 619 379 l 835 -132 l 703 -132 m 450 -17 q 226 47 317 -17 q 99 223 136 110 q 89 486 63 336 q 157 690 108 597 q 277 849 206 782 q 438 952 349 915 q 628 989 528 989 q 854 925 764 989 q 980 748 944 861 q 989 486 1015 635 q 921 282 969 374 q 801 123 872 190 q 642 19 731 56 q 450 -17 553 -17 m 468 86 q 608 113 543 86 q 726 192 674 140 q 816 319 779 244 q 869 486 853 393 q 866 701 892 611 q 775 838 840 790 q 610 885 710 885 q 470 858 536 885 q 351 779 404 831 q 262 654 299 728 q 208 486 225 581 q 212 272 186 361 q 303 134 238 182 q 468 86 369 86 z "},"R":{"ha":831,"x_min":43,"x_max":821,"o":"m 43 0 l 215 972 l 529 972 q 708 934 643 972 q 797 832 774 896 q 807 688 821 768 q 746 544 793 610 q 618 440 699 479 q 422 401 538 401 l 231 401 l 160 0 l 43 0 m 564 0 l 426 435 l 550 435 l 694 0 l 564 0 m 247 493 l 436 493 q 609 547 547 493 q 685 686 671 601 q 658 823 700 772 q 501 874 617 874 l 314 874 l 247 493 z "},"Ŕ":{"ha":831,"x_min":43,"x_max":821,"o":"m 43 0 l 215 972 l 529 972 q 708 934 643 972 q 797 832 774 896 q 807 688 821 768 q 746 544 793 610 q 618 440 699 479 q 422 401 538 401 l 231 401 l 160 0 l 43 0 m 564 0 l 426 435 l 550 435 l 694 0 l 564 0 m 247 493 l 436 493 q 609 547 547 493 q 685 686 671 601 q 658 823 700 772 q 501 874 617 874 l 314 874 l 247 493 m 492 1046 l 429 1121 l 640 1299 l 640 1299 l 724 1204 l 492 1046 z "},"Ř":{"ha":831,"x_min":43,"x_max":821,"o":"m 43 0 l 215 972 l 529 972 q 708 934 643 972 q 797 832 774 896 q 807 688 821 768 q 746 544 793 610 q 618 440 699 479 q 422 401 538 401 l 231 401 l 160 0 l 43 0 m 564 0 l 426 435 l 550 435 l 694 0 l 564 0 m 247 493 l 436 493 q 609 547 547 493 q 685 686 671 601 q 658 823 700 772 q 501 874 617 874 l 314 874 l 247 493 m 788 1260 l 771 1168 l 561 1056 l 390 1168 l 407 1260 l 576 1143 l 788 1260 z "},"Ŗ":{"ha":831,"x_min":43,"x_max":821,"o":"m 43 0 l 215 972 l 529 972 q 708 934 643 972 q 797 832 774 896 q 807 688 821 768 q 746 544 793 610 q 618 440 699 479 q 422 401 538 401 l 231 401 l 160 0 l 43 0 m 564 0 l 426 435 l 550 435 l 694 0 l 564 0 m 247 493 l 436 493 q 609 547 547 493 q 685 686 671 601 q 658 823 700 772 q 501 874 617 874 l 314 874 l 247 493 m 249 -331 l 258 -275 q 313 -255 293 -275 q 338 -196 332 -235 l 340 -176 l 278 -176 l 297 -69 l 417 -69 q 417 -124 418 -97 q 411 -172 415 -150 q 355 -292 397 -254 q 249 -331 313 -331 z "},"S":{"ha":815,"x_min":39,"x_max":792,"o":"m 351 -17 q 172 22 244 -17 q 69 131 100 61 q 54 292 39 200 l 176 292 q 185 187 167 235 q 249 110 203 139 q 369 82 294 82 q 484 103 435 82 q 565 163 533 125 q 608 247 597 200 q 612 323 619 292 q 582 377 604 354 q 526 417 560 400 q 451 448 493 433 q 364 478 410 463 q 199 573 250 517 q 164 722 147 629 q 225 861 178 801 q 347 955 272 921 q 517 989 422 989 q 672 954 610 989 q 763 859 735 919 q 778 719 792 799 l 656 719 q 649 799 663 760 q 597 863 635 838 q 494 889 558 889 q 398 872 442 890 q 325 818 354 853 q 286 733 296 783 q 289 669 281 696 q 319 625 297 643 q 372 592 340 607 q 445 564 404 578 q 533 533 486 550 q 624 492 583 515 q 691 438 664 469 q 728 360 718 406 q 728 254 739 315 q 667 123 715 185 q 540 22 619 61 q 351 -17 461 -17 z "},"Ś":{"ha":815,"x_min":39,"x_max":792,"o":"m 351 -17 q 172 22 244 -17 q 69 131 100 61 q 54 292 39 200 l 176 292 q 185 187 167 235 q 249 110 203 139 q 369 82 294 82 q 484 103 435 82 q 565 163 533 125 q 608 247 597 200 q 612 323 619 292 q 582 377 604 354 q 526 417 560 400 q 451 448 493 433 q 364 478 410 463 q 199 573 250 517 q 164 722 147 629 q 225 861 178 801 q 347 955 272 921 q 517 989 422 989 q 672 954 610 989 q 763 859 735 919 q 778 719 792 799 l 656 719 q 649 799 663 760 q 597 863 635 838 q 494 889 558 889 q 398 872 442 890 q 325 818 354 853 q 286 733 296 783 q 289 669 281 696 q 319 625 297 643 q 372 592 340 607 q 445 564 404 578 q 533 533 486 550 q 624 492 583 515 q 691 438 664 469 q 728 360 718 406 q 728 254 739 315 q 667 123 715 185 q 540 22 619 61 q 351 -17 461 -17 m 483 1046 l 421 1121 l 632 1299 l 632 1299 l 715 1204 l 483 1046 z "},"Š":{"ha":815,"x_min":39,"x_max":792,"o":"m 351 -17 q 172 22 244 -17 q 69 131 100 61 q 54 292 39 200 l 176 292 q 185 187 167 235 q 249 110 203 139 q 369 82 294 82 q 484 103 435 82 q 565 163 533 125 q 608 247 597 200 q 612 323 619 292 q 582 377 604 354 q 526 417 560 400 q 451 448 493 433 q 364 478 410 463 q 199 573 250 517 q 164 722 147 629 q 225 861 178 801 q 347 955 272 921 q 517 989 422 989 q 672 954 610 989 q 763 859 735 919 q 778 719 792 799 l 656 719 q 649 799 663 760 q 597 863 635 838 q 494 889 558 889 q 398 872 442 890 q 325 818 354 853 q 286 733 296 783 q 289 669 281 696 q 319 625 297 643 q 372 592 340 607 q 445 564 404 578 q 533 533 486 550 q 624 492 583 515 q 691 438 664 469 q 728 360 718 406 q 728 254 739 315 q 667 123 715 185 q 540 22 619 61 q 351 -17 461 -17 m 779 1260 l 763 1168 l 553 1056 l 382 1168 l 399 1260 l 568 1143 l 779 1260 z "},"Ş":{"ha":815,"x_min":39,"x_max":792,"o":"m 351 -17 q 172 22 244 -17 q 69 131 100 61 q 54 292 39 200 l 176 292 q 185 187 167 235 q 249 110 203 139 q 369 82 294 82 q 484 103 435 82 q 565 163 533 125 q 608 247 597 200 q 612 323 619 292 q 582 377 604 354 q 526 417 560 400 q 451 448 493 433 q 364 478 410 463 q 199 573 250 517 q 164 722 147 629 q 225 861 178 801 q 347 955 272 921 q 517 989 422 989 q 672 954 610 989 q 763 859 735 919 q 778 719 792 799 l 656 719 q 649 799 663 760 q 597 863 635 838 q 494 889 558 889 q 398 872 442 890 q 325 818 354 853 q 286 733 296 783 q 289 669 281 696 q 319 625 297 643 q 372 592 340 607 q 445 564 404 578 q 533 533 486 550 q 624 492 583 515 q 691 438 664 469 q 728 360 718 406 q 728 254 739 315 q 667 123 715 185 q 540 22 619 61 q 351 -17 461 -17 m 204 -360 l 217 -286 l 344 -286 q 419 -269 393 -286 q 450 -219 444 -253 q 435 -173 456 -189 q 367 -157 415 -157 l 299 -157 l 328 10 l 406 10 l 389 -87 q 480 -101 442 -86 q 535 -146 518 -115 q 544 -221 553 -176 q 510 -295 538 -264 q 442 -343 483 -326 q 353 -360 401 -360 l 204 -360 z "},"Ș":{"ha":815,"x_min":39,"x_max":792,"o":"m 351 -17 q 172 22 244 -17 q 69 131 100 61 q 54 292 39 200 l 176 292 q 185 187 167 235 q 249 110 203 139 q 369 82 294 82 q 484 103 435 82 q 565 163 533 125 q 608 247 597 200 q 612 323 619 292 q 582 377 604 354 q 526 417 560 400 q 451 448 493 433 q 364 478 410 463 q 199 573 250 517 q 164 722 147 629 q 225 861 178 801 q 347 955 272 921 q 517 989 422 989 q 672 954 610 989 q 763 859 735 919 q 778 719 792 799 l 656 719 q 649 799 663 760 q 597 863 635 838 q 494 889 558 889 q 398 872 442 890 q 325 818 354 853 q 286 733 296 783 q 289 669 281 696 q 319 625 297 643 q 372 592 340 607 q 445 564 404 578 q 533 533 486 550 q 624 492 583 515 q 691 438 664 469 q 728 360 718 406 q 728 254 739 315 q 667 123 715 185 q 540 22 619 61 q 351 -17 461 -17 m 240 -331 l 250 -275 q 304 -255 285 -275 q 329 -196 324 -235 l 332 -176 l 269 -176 l 289 -69 l 408 -69 q 408 -124 410 -97 q 403 -172 407 -150 q 347 -292 389 -254 q 240 -331 304 -331 z "},"ẞ":{"ha":949,"x_min":43,"x_max":922,"o":"m 540 -7 q 331 68 397 -7 q 290 289 265 143 l 406 289 q 403 188 396 233 q 446 117 411 143 q 551 90 481 90 q 653 118 613 90 q 719 192 694 146 q 754 290 744 238 q 733 455 774 397 q 590 513 692 513 l 417 513 l 431 594 l 761 874 l 413 874 q 333 851 360 874 q 296 776 306 829 l 160 0 l 43 0 l 181 781 q 222 890 193 847 q 299 952 251 932 q 410 972 346 972 l 922 972 l 907 883 l 571 601 l 597 601 q 765 566 699 601 q 859 463 832 531 q 869 299 886 394 q 810 137 853 206 q 699 31 767 68 q 540 -7 631 -7 z "},"T":{"ha":783,"x_min":133,"x_max":847,"o":"m 268 0 l 424 876 l 133 876 l 150 972 l 847 972 l 831 876 l 540 876 l 385 0 l 268 0 z "},"Ť":{"ha":783,"x_min":133,"x_max":847,"o":"m 268 0 l 424 876 l 133 876 l 150 972 l 847 972 l 831 876 l 540 876 l 385 0 l 268 0 m 761 1265 l 744 1174 l 535 1061 l 364 1174 l 381 1265 l 550 1149 l 761 1265 z "},"Ţ":{"ha":783,"x_min":133,"x_max":847,"o":"m 268 0 l 424 876 l 133 876 l 150 972 l 847 972 l 831 876 l 540 876 l 385 0 l 268 0 m 186 -360 l 199 -286 l 326 -286 q 401 -269 375 -286 q 432 -219 426 -253 q 417 -173 438 -189 q 349 -157 397 -157 l 281 -157 l 310 10 l 388 10 l 371 -87 q 462 -101 424 -86 q 517 -146 500 -115 q 526 -221 535 -176 q 492 -295 519 -264 q 424 -343 465 -326 q 335 -360 383 -360 l 186 -360 z "},"Ț":{"ha":783,"x_min":133,"x_max":847,"o":"m 268 0 l 424 876 l 133 876 l 150 972 l 847 972 l 831 876 l 540 876 l 385 0 l 268 0 m 224 -331 l 233 -275 q 288 -255 268 -275 q 313 -196 307 -235 l 315 -176 l 253 -176 l 272 -69 l 392 -69 q 392 -124 393 -97 q 386 -172 390 -150 q 330 -292 372 -254 q 224 -331 288 -331 z "},"U":{"ha":908,"x_min":69,"x_max":922,"o":"m 385 -17 q 210 24 285 -17 q 103 147 136 64 q 92 358 69 229 l 200 972 l 317 972 l 208 357 q 212 203 192 263 q 283 115 232 143 q 406 88 333 88 q 539 115 479 88 q 640 203 599 143 q 697 357 681 263 l 806 972 l 922 972 l 814 358 q 728 147 792 229 q 575 24 664 64 q 385 -17 486 -17 z "},"Ú":{"ha":908,"x_min":69,"x_max":922,"o":"m 385 -17 q 210 24 285 -17 q 103 147 136 64 q 92 358 69 229 l 200 972 l 317 972 l 208 357 q 212 203 192 263 q 283 115 232 143 q 406 88 333 88 q 539 115 479 88 q 640 203 599 143 q 697 357 681 263 l 806 972 l 922 972 l 814 358 q 728 147 792 229 q 575 24 664 64 q 385 -17 486 -17 m 528 1046 l 465 1121 l 676 1299 l 676 1299 l 760 1204 l 528 1046 z "},"Ŭ":{"ha":908,"x_min":69,"x_max":922,"o":"m 385 -17 q 210 24 285 -17 q 103 147 136 64 q 92 358 69 229 l 200 972 l 317 972 l 208 357 q 212 203 192 263 q 283 115 232 143 q 406 88 333 88 q 539 115 479 88 q 640 203 599 143 q 697 357 681 263 l 806 972 l 922 972 l 814 358 q 728 147 792 229 q 575 24 664 64 q 385 -17 486 -17 m 597 1068 q 494 1092 533 1068 q 441 1158 456 1117 q 435 1249 426 1199 l 439 1268 l 508 1268 q 523 1188 499 1217 q 614 1160 547 1160 q 715 1188 681 1160 q 758 1268 749 1217 l 829 1268 l 825 1249 q 787 1158 817 1199 q 709 1092 757 1117 q 597 1068 661 1068 z "},"Û":{"ha":908,"x_min":69,"x_max":922,"o":"m 385 -17 q 210 24 285 -17 q 103 147 136 64 q 92 358 69 229 l 200 972 l 317 972 l 208 357 q 212 203 192 263 q 283 115 232 143 q 406 88 333 88 q 539 115 479 88 q 640 203 599 143 q 697 357 681 263 l 806 972 l 922 972 l 814 358 q 728 147 792 229 q 575 24 664 64 q 385 -17 486 -17 m 401 1056 l 418 1147 l 628 1260 l 799 1147 l 782 1056 l 613 1172 l 401 1056 z "},"Ü":{"ha":908,"x_min":69,"x_max":922,"o":"m 385 -17 q 210 24 285 -17 q 103 147 136 64 q 92 358 69 229 l 200 972 l 317 972 l 208 357 q 212 203 192 263 q 283 115 232 143 q 406 88 333 88 q 539 115 479 88 q 640 203 599 143 q 697 357 681 263 l 806 972 l 922 972 l 814 358 q 728 147 792 229 q 575 24 664 64 q 385 -17 486 -17 m 504 1079 q 455 1099 475 1079 q 435 1149 435 1119 q 455 1197 435 1176 q 504 1218 475 1218 q 553 1197 532 1218 q 574 1149 574 1176 q 553 1099 574 1119 q 504 1079 532 1079 m 726 1079 q 677 1099 697 1079 q 657 1149 657 1119 q 677 1197 657 1176 q 726 1218 697 1218 q 774 1197 754 1218 q 794 1149 794 1176 q 774 1099 794 1119 q 726 1079 754 1079 z "},"Ù":{"ha":908,"x_min":69,"x_max":922,"o":"m 385 -17 q 210 24 285 -17 q 103 147 136 64 q 92 358 69 229 l 200 972 l 317 972 l 208 357 q 212 203 192 263 q 283 115 232 143 q 406 88 333 88 q 539 115 479 88 q 640 203 599 143 q 697 357 681 263 l 806 972 l 922 972 l 814 358 q 728 147 792 229 q 575 24 664 64 q 385 -17 486 -17 m 697 1046 l 465 1204 l 549 1299 l 549 1299 l 760 1121 l 697 1046 z "},"Ű":{"ha":908,"x_min":69,"x_max":922,"o":"m 385 -17 q 210 24 285 -17 q 103 147 136 64 q 92 358 69 229 l 200 972 l 317 972 l 208 357 q 212 203 192 263 q 283 115 232 143 q 406 88 333 88 q 539 115 479 88 q 640 203 599 143 q 697 357 681 263 l 806 972 l 922 972 l 814 358 q 728 147 792 229 q 575 24 664 64 q 385 -17 486 -17 m 594 1056 l 731 1263 l 832 1263 l 672 1056 l 594 1056 m 392 1056 l 519 1263 l 621 1263 l 471 1056 l 392 1056 z "},"Ū":{"ha":908,"x_min":69,"x_max":922,"o":"m 385 -17 q 210 24 285 -17 q 103 147 136 64 q 92 358 69 229 l 200 972 l 317 972 l 208 357 q 212 203 192 263 q 283 115 232 143 q 406 88 333 88 q 539 115 479 88 q 640 203 599 143 q 697 357 681 263 l 806 972 l 922 972 l 814 358 q 728 147 792 229 q 575 24 664 64 q 385 -17 486 -17 m 367 1132 l 383 1219 l 865 1219 l 849 1132 l 367 1132 z "},"Ų":{"ha":908,"x_min":69,"x_max":922,"o":"m 385 -17 q 210 24 285 -17 q 103 147 136 64 q 92 358 69 229 l 200 972 l 317 972 l 208 357 q 212 203 192 263 q 283 115 232 143 q 406 88 333 88 q 539 115 479 88 q 640 203 599 143 q 697 357 681 263 l 806 972 l 922 972 l 814 358 q 728 147 792 229 q 575 24 664 64 q 385 -17 486 -17 m 403 -268 q 325 -255 360 -268 q 272 -212 290 -242 q 263 -136 254 -183 q 289 -72 268 -103 q 350 -13 310 -42 q 456 42 390 15 l 535 74 l 553 14 l 465 -25 q 388 -74 413 -49 q 358 -125 364 -99 q 373 -175 353 -157 q 431 -193 393 -193 q 475 -187 450 -193 q 524 -172 500 -182 l 511 -250 q 458 -263 486 -258 q 403 -268 431 -268 z "},"Ů":{"ha":908,"x_min":69,"x_max":922,"o":"m 385 -17 q 210 24 285 -17 q 103 147 136 64 q 92 358 69 229 l 200 972 l 317 972 l 208 357 q 212 203 192 263 q 283 115 232 143 q 406 88 333 88 q 539 115 479 88 q 640 203 599 143 q 697 357 681 263 l 806 972 l 922 972 l 814 358 q 728 147 792 229 q 575 24 664 64 q 385 -17 486 -17 m 622 1068 q 519 1106 563 1068 q 476 1211 476 1144 q 519 1316 476 1278 q 622 1354 563 1354 q 726 1316 683 1354 q 768 1211 768 1278 q 726 1106 768 1144 q 622 1068 683 1068 m 622 1128 q 678 1151 656 1128 q 701 1211 701 1174 q 678 1272 701 1250 q 622 1293 656 1293 q 567 1272 590 1293 q 543 1211 543 1250 q 567 1151 543 1174 q 622 1128 590 1128 z "},"Ũ":{"ha":908,"x_min":69,"x_max":922,"o":"m 385 -17 q 210 24 285 -17 q 103 147 136 64 q 92 358 69 229 l 200 972 l 317 972 l 208 357 q 212 203 192 263 q 283 115 232 143 q 406 88 333 88 q 539 115 479 88 q 640 203 599 143 q 697 357 681 263 l 806 972 l 922 972 l 814 358 q 728 147 792 229 q 575 24 664 64 q 385 -17 486 -17 m 388 1068 q 451 1173 410 1138 q 544 1208 493 1208 q 603 1192 582 1208 q 644 1160 625 1176 q 693 1143 664 1143 q 735 1159 717 1143 q 764 1206 754 1175 l 832 1206 q 769 1101 811 1138 q 674 1065 726 1065 q 614 1082 636 1065 q 573 1115 592 1099 q 525 1131 554 1131 q 485 1115 503 1131 q 456 1068 467 1100 l 388 1068 z "},"V":{"ha":931,"x_min":139,"x_max":1006,"o":"m 332 0 l 139 972 l 265 972 l 422 124 l 422 124 l 882 972 l 1006 972 l 468 0 l 332 0 z "},"W":{"ha":1347,"x_min":146,"x_max":1418,"o":"m 240 0 l 146 972 l 271 972 l 333 139 l 333 139 l 718 972 l 849 972 l 933 136 l 933 136 l 1293 972 l 1418 972 l 974 0 l 840 0 l 750 804 l 750 804 l 371 0 l 240 0 z "},"Ẃ":{"ha":1347,"x_min":146,"x_max":1418,"o":"m 240 0 l 146 972 l 271 972 l 333 139 l 333 139 l 718 972 l 849 972 l 933 136 l 933 136 l 1293 972 l 1418 972 l 974 0 l 840 0 l 750 804 l 750 804 l 371 0 l 240 0 m 749 1046 l 686 1121 l 897 1299 l 897 1299 l 981 1204 l 749 1046 z "},"Ŵ":{"ha":1347,"x_min":146,"x_max":1418,"o":"m 240 0 l 146 972 l 271 972 l 333 139 l 333 139 l 718 972 l 849 972 l 933 136 l 933 136 l 1293 972 l 1418 972 l 974 0 l 840 0 l 750 804 l 750 804 l 371 0 l 240 0 m 622 1056 l 639 1147 l 849 1260 l 1019 1147 l 1003 1056 l 833 1172 l 622 1056 z "},"Ẅ":{"ha":1347,"x_min":146,"x_max":1418,"o":"m 240 0 l 146 972 l 271 972 l 333 139 l 333 139 l 718 972 l 849 972 l 933 136 l 933 136 l 1293 972 l 1418 972 l 974 0 l 840 0 l 750 804 l 750 804 l 371 0 l 240 0 m 725 1079 q 676 1099 696 1079 q 656 1149 656 1119 q 676 1197 656 1176 q 725 1218 696 1218 q 774 1197 753 1218 q 794 1149 794 1176 q 774 1099 794 1119 q 725 1079 753 1079 m 947 1079 q 898 1099 918 1079 q 878 1149 878 1119 q 898 1197 878 1176 q 947 1218 918 1218 q 995 1197 975 1218 q 1015 1149 1015 1176 q 995 1099 1015 1119 q 947 1079 975 1079 z "},"Ẁ":{"ha":1347,"x_min":146,"x_max":1418,"o":"m 240 0 l 146 972 l 271 972 l 333 139 l 333 139 l 718 972 l 849 972 l 933 136 l 933 136 l 1293 972 l 1418 972 l 974 0 l 840 0 l 750 804 l 750 804 l 371 0 l 240 0 m 918 1046 l 686 1204 l 769 1299 l 769 1299 l 981 1121 l 918 1046 z "},"X":{"ha":839,"x_min":-10,"x_max":892,"o":"m -10 0 l 375 490 l 163 972 l 294 972 l 465 585 l 465 585 l 761 972 l 892 972 l 514 486 l 721 0 l 589 0 l 429 392 l 429 392 l 122 0 l -10 0 z "},"Y":{"ha":807,"x_min":136,"x_max":885,"o":"m 281 0 l 346 369 l 136 972 l 264 972 l 419 481 l 419 481 l 750 972 l 885 972 l 463 369 l 397 0 l 281 0 z "},"Ý":{"ha":807,"x_min":136,"x_max":885,"o":"m 281 0 l 346 369 l 136 972 l 264 972 l 419 481 l 419 481 l 750 972 l 885 972 l 463 369 l 397 0 l 281 0 m 479 1046 l 417 1121 l 628 1299 l 628 1299 l 711 1204 l 479 1046 z "},"Ŷ":{"ha":807,"x_min":136,"x_max":885,"o":"m 281 0 l 346 369 l 136 972 l 264 972 l 419 481 l 419 481 l 750 972 l 885 972 l 463 369 l 397 0 l 281 0 m 353 1056 l 369 1147 l 579 1260 l 750 1147 l 733 1056 l 564 1172 l 353 1056 z "},"Ÿ":{"ha":807,"x_min":136,"x_max":885,"o":"m 281 0 l 346 369 l 136 972 l 264 972 l 419 481 l 419 481 l 750 972 l 885 972 l 463 369 l 397 0 l 281 0 m 456 1079 q 406 1099 426 1079 q 386 1149 386 1119 q 406 1197 386 1176 q 456 1218 426 1218 q 504 1197 483 1218 q 525 1149 525 1176 q 504 1099 525 1119 q 456 1079 483 1079 m 678 1079 q 628 1099 649 1079 q 608 1149 608 1119 q 628 1197 608 1176 q 678 1218 649 1218 q 726 1197 706 1218 q 746 1149 746 1176 q 726 1099 746 1119 q 678 1079 706 1079 z "},"Ỳ":{"ha":807,"x_min":136,"x_max":885,"o":"m 281 0 l 346 369 l 136 972 l 264 972 l 419 481 l 419 481 l 750 972 l 885 972 l 463 369 l 397 0 l 281 0 m 649 1046 l 417 1204 l 500 1299 l 500 1299 l 711 1121 l 649 1046 z "},"Ỹ":{"ha":807,"x_min":136,"x_max":885,"o":"m 281 0 l 346 369 l 136 972 l 264 972 l 419 481 l 419 481 l 750 972 l 885 972 l 463 369 l 397 0 l 281 0 m 339 1068 q 403 1173 361 1138 q 496 1208 444 1208 q 555 1192 533 1208 q 596 1160 576 1176 q 644 1143 615 1143 q 687 1159 668 1143 q 715 1206 706 1175 l 783 1206 q 720 1101 763 1138 q 625 1065 678 1065 q 565 1082 588 1065 q 524 1115 543 1099 q 476 1131 506 1131 q 436 1115 454 1131 q 407 1068 418 1100 l 339 1068 z "},"Z":{"ha":776,"x_min":1,"x_max":813,"o":"m 1 0 l 18 92 l 654 871 l 163 871 l 181 972 l 813 972 l 796 881 l 158 101 l 664 101 l 646 0 l 1 0 z "},"Ź":{"ha":776,"x_min":1,"x_max":813,"o":"m 1 0 l 18 92 l 654 871 l 163 871 l 181 972 l 813 972 l 796 881 l 158 101 l 664 101 l 646 0 l 1 0 m 464 1046 l 401 1121 l 613 1299 l 613 1299 l 696 1204 l 464 1046 z "},"Ž":{"ha":776,"x_min":1,"x_max":813,"o":"m 1 0 l 18 92 l 654 871 l 163 871 l 181 972 l 813 972 l 796 881 l 158 101 l 664 101 l 646 0 l 1 0 m 760 1260 l 743 1168 l 533 1056 l 363 1168 l 379 1260 l 549 1143 l 760 1260 z "},"Ż":{"ha":776,"x_min":1,"x_max":813,"o":"m 1 0 l 18 92 l 654 871 l 163 871 l 181 972 l 813 972 l 796 881 l 158 101 l 664 101 l 646 0 l 1 0 m 549 1079 q 500 1100 521 1079 q 479 1149 479 1121 q 500 1197 479 1176 q 549 1218 521 1218 q 597 1197 576 1218 q 618 1149 618 1176 q 597 1100 618 1121 q 549 1079 576 1079 z "},"a":{"ha":763,"x_min":32,"x_max":697,"o":"m 253 -17 q 118 15 168 -17 q 50 98 68 46 q 42 210 32 150 q 101 333 56 282 q 218 410 147 383 q 378 436 289 436 l 560 436 q 564 554 572 507 q 522 625 556 601 q 426 649 489 649 q 314 617 364 649 q 242 525 264 586 l 122 525 q 192 647 143 597 q 308 722 242 696 q 443 747 374 747 q 599 712 542 747 q 677 613 657 676 q 682 464 697 550 l 600 0 l 496 0 l 510 125 l 510 125 q 465 70 490 96 q 406 25 439 44 q 335 -6 374 6 q 253 -17 297 -17 m 286 82 q 374 103 332 82 q 451 159 417 124 q 508 239 485 194 q 542 332 532 283 l 544 346 l 372 346 q 263 329 307 346 q 196 283 219 313 q 165 215 172 253 q 187 119 156 156 q 286 82 218 82 z "},"á":{"ha":763,"x_min":32,"x_max":697,"o":"m 253 -17 q 118 15 168 -17 q 50 98 68 46 q 42 210 32 150 q 101 333 56 282 q 218 410 147 383 q 378 436 289 436 l 560 436 q 564 554 572 507 q 522 625 556 601 q 426 649 489 649 q 314 617 364 649 q 242 525 264 586 l 122 525 q 192 647 143 597 q 308 722 242 696 q 443 747 374 747 q 599 712 542 747 q 677 613 657 676 q 682 464 697 550 l 600 0 l 496 0 l 510 125 l 510 125 q 465 70 490 96 q 406 25 439 44 q 335 -6 374 6 q 253 -17 297 -17 m 286 82 q 374 103 332 82 q 451 159 417 124 q 508 239 485 194 q 542 332 532 283 l 544 346 l 372 346 q 263 329 307 346 q 196 283 219 313 q 165 215 172 253 q 187 119 156 156 q 286 82 218 82 m 382 790 l 319 865 l 531 1043 l 531 1043 l 614 949 l 382 790 z "},"ă":{"ha":763,"x_min":32,"x_max":697,"o":"m 253 -17 q 118 15 168 -17 q 50 98 68 46 q 42 210 32 150 q 101 333 56 282 q 218 410 147 383 q 378 436 289 436 l 560 436 q 564 554 572 507 q 522 625 556 601 q 426 649 489 649 q 314 617 364 649 q 242 525 264 586 l 122 525 q 192 647 143 597 q 308 722 242 696 q 443 747 374 747 q 599 712 542 747 q 677 613 657 676 q 682 464 697 550 l 600 0 l 496 0 l 510 125 l 510 125 q 465 70 490 96 q 406 25 439 44 q 335 -6 374 6 q 253 -17 297 -17 m 286 82 q 374 103 332 82 q 451 159 417 124 q 508 239 485 194 q 542 332 532 283 l 544 346 l 372 346 q 263 329 307 346 q 196 283 219 313 q 165 215 172 253 q 187 119 156 156 q 286 82 218 82 m 450 813 q 347 837 386 813 q 294 902 308 861 q 288 993 279 943 l 292 1013 l 361 1013 q 376 933 351 961 q 467 904 400 904 q 567 933 533 904 q 611 1013 601 961 l 682 1013 l 678 993 q 640 902 669 943 q 562 837 610 861 q 450 813 514 813 z "},"â":{"ha":763,"x_min":32,"x_max":697,"o":"m 253 -17 q 118 15 168 -17 q 50 98 68 46 q 42 210 32 150 q 101 333 56 282 q 218 410 147 383 q 378 436 289 436 l 560 436 q 564 554 572 507 q 522 625 556 601 q 426 649 489 649 q 314 617 364 649 q 242 525 264 586 l 122 525 q 192 647 143 597 q 308 722 242 696 q 443 747 374 747 q 599 712 542 747 q 677 613 657 676 q 682 464 697 550 l 600 0 l 496 0 l 510 125 l 510 125 q 465 70 490 96 q 406 25 439 44 q 335 -6 374 6 q 253 -17 297 -17 m 286 82 q 374 103 332 82 q 451 159 417 124 q 508 239 485 194 q 542 332 532 283 l 544 346 l 372 346 q 263 329 307 346 q 196 283 219 313 q 165 215 172 253 q 187 119 156 156 q 286 82 218 82 m 257 794 l 274 886 l 483 999 l 654 886 l 638 794 l 468 911 l 257 794 z "},"ä":{"ha":763,"x_min":32,"x_max":697,"o":"m 253 -17 q 118 15 168 -17 q 50 98 68 46 q 42 210 32 150 q 101 333 56 282 q 218 410 147 383 q 378 436 289 436 l 560 436 q 564 554 572 507 q 522 625 556 601 q 426 649 489 649 q 314 617 364 649 q 242 525 264 586 l 122 525 q 192 647 143 597 q 308 722 242 696 q 443 747 374 747 q 599 712 542 747 q 677 613 657 676 q 682 464 697 550 l 600 0 l 496 0 l 510 125 l 510 125 q 465 70 490 96 q 406 25 439 44 q 335 -6 374 6 q 253 -17 297 -17 m 286 82 q 374 103 332 82 q 451 159 417 124 q 508 239 485 194 q 542 332 532 283 l 544 346 l 372 346 q 263 329 307 346 q 196 283 219 313 q 165 215 172 253 q 187 119 156 156 q 286 82 218 82 m 354 822 q 305 842 325 822 q 285 892 285 863 q 305 940 285 919 q 354 961 325 961 q 403 940 382 961 q 424 892 424 919 q 403 842 424 863 q 354 822 382 822 m 576 822 q 527 842 547 822 q 507 892 507 863 q 527 940 507 919 q 576 961 547 961 q 624 940 604 961 q 644 892 644 919 q 624 842 644 863 q 576 822 604 822 z "},"à":{"ha":763,"x_min":32,"x_max":697,"o":"m 253 -17 q 118 15 168 -17 q 50 98 68 46 q 42 210 32 150 q 101 333 56 282 q 218 410 147 383 q 378 436 289 436 l 560 436 q 564 554 572 507 q 522 625 556 601 q 426 649 489 649 q 314 617 364 649 q 242 525 264 586 l 122 525 q 192 647 143 597 q 308 722 242 696 q 443 747 374 747 q 599 712 542 747 q 677 613 657 676 q 682 464 697 550 l 600 0 l 496 0 l 510 125 l 510 125 q 465 70 490 96 q 406 25 439 44 q 335 -6 374 6 q 253 -17 297 -17 m 286 82 q 374 103 332 82 q 451 159 417 124 q 508 239 485 194 q 542 332 532 283 l 544 346 l 372 346 q 263 329 307 346 q 196 283 219 313 q 165 215 172 253 q 187 119 156 156 q 286 82 218 82 m 551 790 l 319 949 l 403 1043 l 403 1043 l 614 865 l 551 790 z "},"ā":{"ha":763,"x_min":32,"x_max":715,"o":"m 253 -17 q 118 15 168 -17 q 50 98 68 46 q 42 210 32 150 q 101 333 56 282 q 218 410 147 383 q 378 436 289 436 l 560 436 q 564 554 572 507 q 522 625 556 601 q 426 649 489 649 q 314 617 364 649 q 242 525 264 586 l 122 525 q 192 647 143 597 q 308 722 242 696 q 443 747 374 747 q 599 712 542 747 q 677 613 657 676 q 682 464 697 550 l 600 0 l 496 0 l 510 125 l 510 125 q 465 70 490 96 q 406 25 439 44 q 335 -6 374 6 q 253 -17 297 -17 m 286 82 q 374 103 332 82 q 451 159 417 124 q 508 239 485 194 q 542 332 532 283 l 544 346 l 372 346 q 263 329 307 346 q 196 283 219 313 q 165 215 172 253 q 187 119 156 156 q 286 82 218 82 m 217 856 l 233 943 l 715 943 l 699 856 l 217 856 z "},"ą":{"ha":763,"x_min":32,"x_max":697,"o":"m 253 -17 q 118 15 168 -17 q 50 98 68 46 q 42 210 32 150 q 101 333 56 282 q 218 410 147 383 q 378 436 289 436 l 560 436 q 564 554 572 507 q 522 625 556 601 q 426 649 489 649 q 314 617 364 649 q 242 525 264 586 l 122 525 q 192 647 143 597 q 308 722 242 696 q 443 747 374 747 q 599 712 542 747 q 677 613 657 676 q 682 464 697 550 l 600 0 l 496 0 l 510 125 l 510 125 q 465 70 490 96 q 406 25 439 44 q 335 -6 374 6 q 253 -17 297 -17 m 286 82 q 374 103 332 82 q 451 159 417 124 q 508 239 485 194 q 542 332 532 283 l 544 346 l 372 346 q 263 329 307 346 q 196 283 219 313 q 165 215 172 253 q 187 119 156 156 q 286 82 218 82 m 450 -282 q 372 -269 407 -282 q 319 -226 338 -256 q 310 -150 301 -197 q 336 -86 315 -117 q 397 -27 357 -56 q 503 28 438 1 l 582 60 l 600 0 l 513 -39 q 435 -87 460 -62 q 406 -139 411 -112 q 420 -189 400 -171 q 478 -207 440 -207 q 522 -201 497 -207 q 571 -186 547 -196 l 558 -264 q 506 -277 533 -272 q 450 -282 478 -282 z "},"å":{"ha":763,"x_min":32,"x_max":697,"o":"m 253 -17 q 118 15 168 -17 q 50 98 68 46 q 42 210 32 150 q 101 333 56 282 q 218 410 147 383 q 378 436 289 436 l 560 436 q 564 554 572 507 q 522 625 556 601 q 426 649 489 649 q 314 617 364 649 q 242 525 264 586 l 122 525 q 192 647 143 597 q 308 722 242 696 q 443 747 374 747 q 599 712 542 747 q 677 613 657 676 q 682 464 697 550 l 600 0 l 496 0 l 510 125 l 510 125 q 465 70 490 96 q 406 25 439 44 q 335 -6 374 6 q 253 -17 297 -17 m 286 82 q 374 103 332 82 q 451 159 417 124 q 508 239 485 194 q 542 332 532 283 l 544 346 l 372 346 q 263 329 307 346 q 196 283 219 313 q 165 215 172 253 q 187 119 156 156 q 286 82 218 82 m 478 822 q 375 860 418 822 q 332 965 332 899 q 375 1070 332 1032 q 478 1108 418 1108 q 581 1070 539 1108 q 624 965 624 1032 q 581 860 624 899 q 478 822 539 822 m 478 882 q 534 905 511 882 q 557 965 557 928 q 534 1026 557 1004 q 478 1047 511 1047 q 422 1026 446 1047 q 399 965 399 1004 q 422 905 399 928 q 478 882 446 882 z "},"ã":{"ha":763,"x_min":32,"x_max":697,"o":"m 253 -17 q 118 15 168 -17 q 50 98 68 46 q 42 210 32 150 q 101 333 56 282 q 218 410 147 383 q 378 436 289 436 l 560 436 q 564 554 572 507 q 522 625 556 601 q 426 649 489 649 q 314 617 364 649 q 242 525 264 586 l 122 525 q 192 647 143 597 q 308 722 242 696 q 443 747 374 747 q 599 712 542 747 q 677 613 657 676 q 682 464 697 550 l 600 0 l 496 0 l 510 125 l 510 125 q 465 70 490 96 q 406 25 439 44 q 335 -6 374 6 q 253 -17 297 -17 m 286 82 q 374 103 332 82 q 451 159 417 124 q 508 239 485 194 q 542 332 532 283 l 544 346 l 372 346 q 263 329 307 346 q 196 283 219 313 q 165 215 172 253 q 187 119 156 156 q 286 82 218 82 m 243 825 q 307 930 265 894 q 400 965 349 965 q 459 949 438 965 q 500 917 481 933 q 549 900 519 900 q 591 916 572 900 q 619 963 610 932 l 688 963 q 624 858 667 894 q 529 822 582 822 q 469 839 492 822 q 428 872 447 856 q 381 888 410 888 q 340 872 358 888 q 311 825 322 857 l 243 825 z "},"æ":{"ha":1267,"x_min":32,"x_max":1226,"o":"m 253 -17 q 118 15 168 -17 q 50 98 68 46 q 42 210 32 150 q 101 333 56 282 q 218 410 147 383 q 378 436 289 436 l 560 436 q 564 554 572 507 q 522 625 556 601 q 426 649 489 649 q 314 617 364 649 q 242 525 264 586 l 122 525 q 192 647 143 597 q 308 722 242 696 q 443 747 374 747 q 553 733 507 747 q 629 690 599 718 q 674 624 660 663 q 799 715 728 683 q 951 747 871 747 q 1119 700 1057 747 q 1204 574 1182 653 q 1210 400 1226 494 q 1207 382 1208 392 q 1203 362 1206 372 q 1199 339 1201 351 l 660 339 q 669 196 649 253 q 733 110 690 139 q 832 82 776 82 q 960 112 910 82 q 1040 197 1010 142 l 1156 197 q 1078 88 1128 136 q 963 11 1029 39 q 815 -17 896 -17 q 657 27 722 -17 q 563 147 592 71 q 476 60 525 97 q 370 3 426 24 q 253 -17 314 -17 m 286 82 q 401 116 347 82 q 492 210 454 150 q 544 346 531 269 l 544 346 l 372 346 q 263 329 307 346 q 196 283 219 313 q 165 215 172 253 q 170 145 158 175 q 211 99 182 115 q 286 82 240 82 m 676 429 l 1101 429 q 1093 550 1113 501 q 1032 624 1074 599 q 932 649 990 649 q 826 624 878 649 q 735 550 775 599 q 676 429 696 501 z "},"ǽ":{"ha":1267,"x_min":32,"x_max":1226,"o":"m 253 -17 q 118 15 168 -17 q 50 98 68 46 q 42 210 32 150 q 101 333 56 282 q 218 410 147 383 q 378 436 289 436 l 560 436 q 564 554 572 507 q 522 625 556 601 q 426 649 489 649 q 314 617 364 649 q 242 525 264 586 l 122 525 q 192 647 143 597 q 308 722 242 696 q 443 747 374 747 q 553 733 507 747 q 629 690 599 718 q 674 624 660 663 q 799 715 728 683 q 951 747 871 747 q 1119 700 1057 747 q 1204 574 1182 653 q 1210 400 1226 494 q 1207 382 1208 392 q 1203 362 1206 372 q 1199 339 1201 351 l 660 339 q 669 196 649 253 q 733 110 690 139 q 832 82 776 82 q 960 112 910 82 q 1040 197 1010 142 l 1156 197 q 1078 88 1128 136 q 963 11 1029 39 q 815 -17 896 -17 q 657 27 722 -17 q 563 147 592 71 q 476 60 525 97 q 370 3 426 24 q 253 -17 314 -17 m 286 82 q 401 116 347 82 q 492 210 454 150 q 544 346 531 269 l 544 346 l 372 346 q 263 329 307 346 q 196 283 219 313 q 165 215 172 253 q 170 145 158 175 q 211 99 182 115 q 286 82 240 82 m 676 429 l 1101 429 q 1093 550 1113 501 q 1032 624 1074 599 q 932 649 990 649 q 826 624 878 649 q 735 550 775 599 q 676 429 696 501 m 643 790 l 581 865 l 792 1043 l 792 1043 l 875 949 l 643 790 z "},"b":{"ha":864,"x_min":35,"x_max":813,"o":"m 394 -17 q 283 3 328 -17 q 212 54 239 24 q 169 114 185 85 l 169 114 l 140 0 l 35 0 l 211 1000 l 328 1000 l 260 615 q 375 714 304 681 q 526 747 446 747 q 692 699 626 747 q 785 565 758 650 q 793 368 813 479 q 742 215 779 285 q 653 92 706 144 q 534 12 600 40 q 394 -17 468 -17 m 397 85 q 519 119 463 85 q 617 216 576 153 q 674 365 658 279 q 670 515 689 451 q 607 612 651 578 q 497 646 563 646 q 371 612 428 646 q 274 515 314 578 q 219 365 235 451 q 221 216 204 279 q 283 119 238 153 q 397 85 328 85 z "},"c":{"ha":801,"x_min":50,"x_max":754,"o":"m 347 -17 q 178 31 247 -17 q 79 165 108 79 q 69 365 50 251 q 122 522 85 451 q 215 642 160 592 q 338 720 271 693 q 481 747 406 747 q 678 681 606 747 q 754 501 750 614 l 635 501 q 584 609 632 571 q 463 647 536 647 q 342 615 399 647 q 246 521 286 583 q 189 365 206 458 q 183 242 176 296 q 215 153 190 189 q 276 100 239 118 q 363 82 314 82 q 456 99 413 82 q 535 150 500 117 q 588 229 569 183 l 707 229 q 626 101 679 157 q 501 15 572 46 q 347 -17 431 -17 z "},"ć":{"ha":801,"x_min":50,"x_max":754,"o":"m 347 -17 q 178 31 247 -17 q 79 165 108 79 q 69 365 50 251 q 122 522 85 451 q 215 642 160 592 q 338 720 271 693 q 481 747 406 747 q 678 681 606 747 q 754 501 750 614 l 635 501 q 584 609 632 571 q 463 647 536 647 q 342 615 399 647 q 246 521 286 583 q 189 365 206 458 q 183 242 176 296 q 215 153 190 189 q 276 100 239 118 q 363 82 314 82 q 456 99 413 82 q 535 150 500 117 q 588 229 569 183 l 707 229 q 626 101 679 157 q 501 15 572 46 q 347 -17 431 -17 m 411 790 l 349 865 l 560 1043 l 560 1043 l 643 949 l 411 790 z "},"č":{"ha":801,"x_min":50,"x_max":754,"o":"m 347 -17 q 178 31 247 -17 q 79 165 108 79 q 69 365 50 251 q 122 522 85 451 q 215 642 160 592 q 338 720 271 693 q 481 747 406 747 q 678 681 606 747 q 754 501 750 614 l 635 501 q 584 609 632 571 q 463 647 536 647 q 342 615 399 647 q 246 521 286 583 q 189 365 206 458 q 183 242 176 296 q 215 153 190 189 q 276 100 239 118 q 363 82 314 82 q 456 99 413 82 q 535 150 500 117 q 588 229 569 183 l 707 229 q 626 101 679 157 q 501 15 572 46 q 347 -17 431 -17 m 707 1024 l 690 932 l 481 819 l 310 932 l 326 1024 l 496 907 l 707 1024 z "},"ç":{"ha":801,"x_min":50,"x_max":754,"o":"m 347 -17 q 178 31 247 -17 q 79 165 108 79 q 69 365 50 251 q 122 522 85 451 q 215 642 160 592 q 338 720 271 693 q 481 747 406 747 q 678 681 606 747 q 754 501 750 614 l 635 501 q 584 609 632 571 q 463 647 536 647 q 342 615 399 647 q 246 521 286 583 q 189 365 206 458 q 183 242 176 296 q 215 153 190 189 q 276 100 239 118 q 363 82 314 82 q 456 99 413 82 q 535 150 500 117 q 588 229 569 183 l 707 229 q 626 101 679 157 q 501 15 572 46 q 347 -17 431 -17 m 175 -360 l 188 -286 l 315 -286 q 390 -269 364 -286 q 421 -219 415 -253 q 406 -173 426 -189 q 338 -157 386 -157 l 269 -157 l 299 10 l 376 10 l 360 -87 q 451 -101 413 -86 q 506 -146 489 -115 q 515 -221 524 -176 q 481 -295 508 -264 q 413 -343 454 -326 q 324 -360 372 -360 l 175 -360 z "},"ċ":{"ha":801,"x_min":50,"x_max":754,"o":"m 347 -17 q 178 31 247 -17 q 79 165 108 79 q 69 365 50 251 q 122 522 85 451 q 215 642 160 592 q 338 720 271 693 q 481 747 406 747 q 678 681 606 747 q 754 501 750 614 l 635 501 q 584 609 632 571 q 463 647 536 647 q 342 615 399 647 q 246 521 286 583 q 189 365 206 458 q 183 242 176 296 q 215 153 190 189 q 276 100 239 118 q 363 82 314 82 q 456 99 413 82 q 535 150 500 117 q 588 229 569 183 l 707 229 q 626 101 679 157 q 501 15 572 46 q 347 -17 431 -17 m 494 824 q 446 844 467 824 q 425 893 425 865 q 446 942 425 921 q 494 963 467 963 q 543 942 522 963 q 564 893 564 921 q 543 844 564 865 q 494 824 522 824 z "},"d":{"ha":863,"x_min":50,"x_max":876,"o":"m 332 -17 q 169 33 235 -17 q 76 170 103 83 q 69 367 50 257 q 121 519 85 450 q 210 640 157 589 q 328 719 263 690 q 468 747 394 747 q 610 713 554 747 q 692 615 665 678 l 760 1000 l 876 1000 l 700 0 l 594 0 l 604 117 l 604 117 q 539 51 578 82 q 448 2 500 21 q 332 -17 396 -17 m 365 85 q 492 119 435 85 q 588 216 549 153 q 643 365 628 279 q 642 515 658 451 q 580 612 625 578 q 465 646 535 646 q 342 612 400 646 q 244 515 285 578 q 189 365 204 451 q 192 216 174 279 q 255 119 210 153 q 365 85 300 85 z "},"ď":{"ha":976,"x_min":50,"x_max":1065,"o":"m 332 -17 q 169 33 235 -17 q 76 170 103 83 q 69 367 50 257 q 121 519 85 450 q 210 640 157 589 q 328 719 263 690 q 468 747 394 747 q 610 713 554 747 q 692 615 665 678 l 760 1000 l 876 1000 l 700 0 l 594 0 l 604 117 l 604 117 q 539 51 578 82 q 448 2 500 21 q 332 -17 396 -17 m 365 85 q 492 119 435 85 q 588 216 549 153 q 643 365 628 279 q 642 515 658 451 q 580 612 625 578 q 465 646 535 646 q 342 612 400 646 q 244 515 285 578 q 189 365 204 451 q 192 216 174 279 q 255 119 210 153 q 365 85 300 85 m 897 771 l 907 826 q 960 840 943 826 q 983 879 978 853 l 988 908 l 921 908 l 942 1024 l 1064 1024 q 1065 961 1065 988 q 1058 907 1064 935 q 1004 803 1046 835 q 897 771 963 771 z "},"đ":{"ha":938,"x_min":50,"x_max":974,"o":"m 535 792 l 551 882 l 974 882 l 957 792 l 535 792 m 332 -17 q 169 33 235 -17 q 76 170 103 83 q 69 367 50 257 q 121 519 85 450 q 210 640 157 589 q 328 719 263 690 q 468 747 394 747 q 610 713 554 747 q 692 615 665 678 l 760 1000 l 876 1000 l 700 0 l 594 0 l 604 117 l 604 117 q 539 51 578 82 q 448 2 500 21 q 332 -17 396 -17 m 365 85 q 492 119 435 85 q 588 216 549 153 q 643 365 628 279 q 642 515 658 451 q 580 612 625 578 q 465 646 535 646 q 342 612 400 646 q 244 515 285 578 q 189 365 204 451 q 192 216 174 279 q 255 119 210 153 q 365 85 300 85 z "},"ð":{"ha":829,"x_min":50,"x_max":811,"o":"m 346 -17 q 175 31 244 -17 q 78 164 106 78 q 69 365 50 250 q 120 513 83 446 q 212 629 157 581 q 335 704 267 678 q 479 731 403 731 q 571 719 529 731 q 647 688 613 708 q 616 762 635 725 q 573 834 597 799 q 519 904 549 869 q 454 972 490 939 l 571 972 q 702 799 658 888 q 760 629 746 711 q 771 479 775 547 q 758 365 767 411 q 706 208 743 278 q 615 88 669 138 q 492 10 560 38 q 346 -17 424 -17 m 363 83 q 455 101 411 83 q 536 153 499 118 q 600 242 574 189 q 639 365 626 294 q 638 513 656 454 q 574 601 619 572 q 463 631 529 631 q 340 600 397 631 q 244 510 283 569 q 189 365 204 451 q 191 209 172 272 q 255 115 210 146 q 363 83 300 83 m 375 765 l 389 844 l 811 983 l 797 904 l 375 765 z "},"e":{"ha":786,"x_min":50,"x_max":746,"o":"m 335 -17 q 171 31 238 -17 q 77 164 104 78 q 69 365 50 250 q 121 522 85 451 q 210 642 157 592 q 330 720 264 693 q 471 747 396 747 q 639 700 576 747 q 724 574 701 653 q 729 400 746 494 q 725 372 728 386 q 718 339 722 358 l 153 339 l 168 429 l 621 429 q 613 550 632 501 q 551 624 593 599 q 451 649 510 649 q 338 620 393 649 q 244 536 283 592 q 189 397 204 481 l 182 358 q 186 205 167 267 q 250 113 206 143 q 351 82 294 82 q 479 112 429 82 q 560 197 529 142 l 675 197 q 598 88 647 136 q 482 11 549 39 q 335 -17 415 -17 z "},"é":{"ha":786,"x_min":50,"x_max":746,"o":"m 335 -17 q 171 31 238 -17 q 77 164 104 78 q 69 365 50 250 q 121 522 85 451 q 210 642 157 592 q 330 720 264 693 q 471 747 396 747 q 639 700 576 747 q 724 574 701 653 q 729 400 746 494 q 725 372 728 386 q 718 339 722 358 l 153 339 l 168 429 l 621 429 q 613 550 632 501 q 551 624 593 599 q 451 649 510 649 q 338 620 393 649 q 244 536 283 592 q 189 397 204 481 l 182 358 q 186 205 167 267 q 250 113 206 143 q 351 82 294 82 q 479 112 429 82 q 560 197 529 142 l 675 197 q 598 88 647 136 q 482 11 549 39 q 335 -17 415 -17 m 403 790 l 340 865 l 551 1043 l 551 1043 l 635 949 l 403 790 z "},"ĕ":{"ha":786,"x_min":50,"x_max":746,"o":"m 335 -17 q 171 31 238 -17 q 77 164 104 78 q 69 365 50 250 q 121 522 85 451 q 210 642 157 592 q 330 720 264 693 q 471 747 396 747 q 639 700 576 747 q 724 574 701 653 q 729 400 746 494 q 725 372 728 386 q 718 339 722 358 l 153 339 l 168 429 l 621 429 q 613 550 632 501 q 551 624 593 599 q 451 649 510 649 q 338 620 393 649 q 244 536 283 592 q 189 397 204 481 l 182 358 q 186 205 167 267 q 250 113 206 143 q 351 82 294 82 q 479 112 429 82 q 560 197 529 142 l 675 197 q 598 88 647 136 q 482 11 549 39 q 335 -17 415 -17 m 471 813 q 368 837 407 813 q 315 902 329 861 q 308 993 300 943 l 313 1013 l 382 1013 q 397 933 372 961 q 488 904 421 904 q 588 933 554 904 q 632 1013 622 961 l 703 1013 l 699 993 q 660 902 690 943 q 583 837 631 861 q 471 813 535 813 z "},"ě":{"ha":786,"x_min":50,"x_max":746,"o":"m 335 -17 q 171 31 238 -17 q 77 164 104 78 q 69 365 50 250 q 121 522 85 451 q 210 642 157 592 q 330 720 264 693 q 471 747 396 747 q 639 700 576 747 q 724 574 701 653 q 729 400 746 494 q 725 372 728 386 q 718 339 722 358 l 153 339 l 168 429 l 621 429 q 613 550 632 501 q 551 624 593 599 q 451 649 510 649 q 338 620 393 649 q 244 536 283 592 q 189 397 204 481 l 182 358 q 186 205 167 267 q 250 113 206 143 q 351 82 294 82 q 479 112 429 82 q 560 197 529 142 l 675 197 q 598 88 647 136 q 482 11 549 39 q 335 -17 415 -17 m 699 1024 l 682 932 l 472 819 l 301 932 l 318 1024 l 488 907 l 699 1024 z "},"ê":{"ha":786,"x_min":50,"x_max":746,"o":"m 335 -17 q 171 31 238 -17 q 77 164 104 78 q 69 365 50 250 q 121 522 85 451 q 210 642 157 592 q 330 720 264 693 q 471 747 396 747 q 639 700 576 747 q 724 574 701 653 q 729 400 746 494 q 725 372 728 386 q 718 339 722 358 l 153 339 l 168 429 l 621 429 q 613 550 632 501 q 551 624 593 599 q 451 649 510 649 q 338 620 393 649 q 244 536 283 592 q 189 397 204 481 l 182 358 q 186 205 167 267 q 250 113 206 143 q 351 82 294 82 q 479 112 429 82 q 560 197 529 142 l 675 197 q 598 88 647 136 q 482 11 549 39 q 335 -17 415 -17 m 278 794 l 294 886 l 504 999 l 675 886 l 658 794 l 489 911 l 278 794 z "},"ë":{"ha":786,"x_min":50,"x_max":746,"o":"m 335 -17 q 171 31 238 -17 q 77 164 104 78 q 69 365 50 250 q 121 522 85 451 q 210 642 157 592 q 330 720 264 693 q 471 747 396 747 q 639 700 576 747 q 724 574 701 653 q 729 400 746 494 q 725 372 728 386 q 718 339 722 358 l 153 339 l 168 429 l 621 429 q 613 550 632 501 q 551 624 593 599 q 451 649 510 649 q 338 620 393 649 q 244 536 283 592 q 189 397 204 481 l 182 358 q 186 205 167 267 q 250 113 206 143 q 351 82 294 82 q 479 112 429 82 q 560 197 529 142 l 675 197 q 598 88 647 136 q 482 11 549 39 q 335 -17 415 -17 m 375 822 q 326 842 346 822 q 306 892 306 863 q 326 940 306 919 q 375 961 346 961 q 424 940 403 961 q 444 892 444 919 q 424 842 444 863 q 375 822 403 822 m 597 822 q 548 842 568 822 q 528 892 528 863 q 548 940 528 919 q 597 961 568 961 q 645 940 625 961 q 665 892 665 919 q 645 842 665 863 q 597 822 625 822 z "},"ė":{"ha":786,"x_min":50,"x_max":746,"o":"m 335 -17 q 171 31 238 -17 q 77 164 104 78 q 69 365 50 250 q 121 522 85 451 q 210 642 157 592 q 330 720 264 693 q 471 747 396 747 q 639 700 576 747 q 724 574 701 653 q 729 400 746 494 q 725 372 728 386 q 718 339 722 358 l 153 339 l 168 429 l 621 429 q 613 550 632 501 q 551 624 593 599 q 451 649 510 649 q 338 620 393 649 q 244 536 283 592 q 189 397 204 481 l 182 358 q 186 205 167 267 q 250 113 206 143 q 351 82 294 82 q 479 112 429 82 q 560 197 529 142 l 675 197 q 598 88 647 136 q 482 11 549 39 q 335 -17 415 -17 m 486 824 q 438 844 458 824 q 417 893 417 865 q 438 942 417 921 q 486 963 458 963 q 535 942 514 963 q 556 893 556 921 q 535 844 556 865 q 486 824 514 824 z "},"è":{"ha":786,"x_min":50,"x_max":746,"o":"m 335 -17 q 171 31 238 -17 q 77 164 104 78 q 69 365 50 250 q 121 522 85 451 q 210 642 157 592 q 330 720 264 693 q 471 747 396 747 q 639 700 576 747 q 724 574 701 653 q 729 400 746 494 q 725 372 728 386 q 718 339 722 358 l 153 339 l 168 429 l 621 429 q 613 550 632 501 q 551 624 593 599 q 451 649 510 649 q 338 620 393 649 q 244 536 283 592 q 189 397 204 481 l 182 358 q 186 205 167 267 q 250 113 206 143 q 351 82 294 82 q 479 112 429 82 q 560 197 529 142 l 675 197 q 598 88 647 136 q 482 11 549 39 q 335 -17 415 -17 m 572 790 l 340 949 l 424 1043 l 424 1043 l 635 865 l 572 790 z "},"ē":{"ha":786,"x_min":50,"x_max":746,"o":"m 335 -17 q 171 31 238 -17 q 77 164 104 78 q 69 365 50 250 q 121 522 85 451 q 210 642 157 592 q 330 720 264 693 q 471 747 396 747 q 639 700 576 747 q 724 574 701 653 q 729 400 746 494 q 725 372 728 386 q 718 339 722 358 l 153 339 l 168 429 l 621 429 q 613 550 632 501 q 551 624 593 599 q 451 649 510 649 q 338 620 393 649 q 244 536 283 592 q 189 397 204 481 l 182 358 q 186 205 167 267 q 250 113 206 143 q 351 82 294 82 q 479 112 429 82 q 560 197 529 142 l 675 197 q 598 88 647 136 q 482 11 549 39 q 335 -17 415 -17 m 238 856 l 254 943 l 736 943 l 719 856 l 238 856 z "},"ę":{"ha":786,"x_min":50,"x_max":746,"o":"m 335 -17 q 171 31 238 -17 q 77 164 104 78 q 69 365 50 250 q 121 522 85 451 q 210 642 157 592 q 330 720 264 693 q 471 747 396 747 q 639 700 576 747 q 724 574 701 653 q 729 400 746 494 q 725 372 728 386 q 718 339 722 358 l 153 339 l 168 429 l 621 429 q 613 550 632 501 q 551 624 593 599 q 451 649 510 649 q 338 620 393 649 q 244 536 283 592 q 189 397 204 481 l 182 358 q 186 205 167 267 q 250 113 206 143 q 351 82 294 82 q 479 112 429 82 q 560 197 529 142 l 675 197 q 598 88 647 136 q 482 11 549 39 q 335 -17 415 -17 m 336 -268 q 258 -255 293 -268 q 206 -212 224 -242 q 196 -136 188 -183 q 222 -72 201 -103 q 283 -13 243 -42 q 389 42 324 15 l 468 74 l 486 14 l 399 -25 q 322 -74 346 -49 q 292 -125 297 -99 q 306 -175 286 -157 q 364 -193 326 -193 q 408 -187 383 -193 q 457 -172 433 -182 l 444 -250 q 392 -263 419 -258 q 336 -268 364 -268 z "},"ẽ":{"ha":786,"x_min":50,"x_max":746,"o":"m 335 -17 q 171 31 238 -17 q 77 164 104 78 q 69 365 50 250 q 121 522 85 451 q 210 642 157 592 q 330 720 264 693 q 471 747 396 747 q 639 700 576 747 q 724 574 701 653 q 729 400 746 494 q 725 372 728 386 q 718 339 722 358 l 153 339 l 168 429 l 621 429 q 613 550 632 501 q 551 624 593 599 q 451 649 510 649 q 338 620 393 649 q 244 536 283 592 q 189 397 204 481 l 182 358 q 186 205 167 267 q 250 113 206 143 q 351 82 294 82 q 479 112 429 82 q 560 197 529 142 l 675 197 q 598 88 647 136 q 482 11 549 39 q 335 -17 415 -17 m 264 825 q 328 930 286 894 q 421 965 369 965 q 480 949 458 965 q 521 917 501 933 q 569 900 540 900 q 612 916 593 900 q 640 963 631 932 l 708 963 q 645 858 688 894 q 550 822 603 822 q 490 839 513 822 q 449 872 468 856 q 401 888 431 888 q 361 872 379 888 q 332 825 343 857 l 264 825 z "},"ə":{"ha":786,"x_min":40,"x_max":738,"o":"m 451 747 q 615 700 549 747 q 710 567 682 653 q 717 365 738 481 q 665 209 701 279 q 576 88 629 139 q 456 10 522 38 q 315 -17 390 -17 q 147 31 210 -17 q 63 157 85 78 q 57 331 40 236 q 62 359 60 344 q 68 392 64 374 l 633 392 l 618 301 l 165 301 q 174 181 156 231 q 235 107 193 132 q 335 82 276 82 q 448 110 393 82 q 543 195 503 139 q 597 333 583 251 l 604 372 q 601 526 621 465 q 537 618 581 588 q 435 649 493 649 q 308 619 358 649 q 226 533 258 590 l 111 533 q 189 644 140 596 q 304 719 238 692 q 451 747 371 747 z "},"f":{"ha":501,"x_min":78,"x_max":558,"o":"m 81 0 l 222 808 q 264 917 235 875 q 340 980 293 960 q 451 1000 388 1000 l 558 1000 l 542 900 l 454 900 q 375 878 401 900 q 339 804 349 857 l 197 0 l 81 0 m 78 632 l 94 731 l 519 731 l 503 632 l 78 632 z "},"g":{"ha":783,"x_min":-56,"x_max":806,"o":"m 247 -322 q 78 -298 149 -322 q -24 -224 8 -274 q -43 -100 -56 -174 q -17 -28 -36 -65 q 42 44 3 10 q 146 107 82 79 l 226 60 q 111 -11 142 29 q 74 -89 81 -51 q 87 -165 65 -135 q 154 -211 108 -196 q 264 -226 200 -226 q 419 -191 358 -226 q 489 -94 479 -156 q 467 -3 500 -36 q 328 35 435 29 q 188 50 243 40 q 99 73 133 60 q 44 103 65 86 q 6 138 22 119 l 13 169 l 172 301 l 276 265 l 104 142 l 132 194 q 157 174 144 183 q 192 156 169 164 q 257 142 215 149 q 371 129 299 135 q 526 96 471 122 q 599 23 581 69 q 606 -90 617 -24 q 553 -201 596 -149 q 434 -288 510 -254 q 247 -322 358 -322 m 343 228 q 198 262 254 228 q 121 355 142 296 q 113 488 100 414 q 168 619 125 561 q 279 713 211 678 q 435 747 347 747 q 580 713 525 747 q 656 619 635 678 q 665 488 678 561 q 610 355 653 414 q 501 262 568 296 q 343 228 433 228 m 360 324 q 488 365 438 324 q 553 488 539 406 q 532 610 568 569 q 418 650 496 650 q 291 610 344 650 q 222 488 238 569 q 246 365 208 406 q 360 324 283 324 m 536 632 l 519 731 l 806 731 l 790 643 l 536 632 z "},"ğ":{"ha":783,"x_min":-56,"x_max":806,"o":"m 247 -322 q 78 -298 149 -322 q -24 -224 8 -274 q -43 -100 -56 -174 q -17 -28 -36 -65 q 42 44 3 10 q 146 107 82 79 l 226 60 q 111 -11 142 29 q 74 -89 81 -51 q 87 -165 65 -135 q 154 -211 108 -196 q 264 -226 200 -226 q 419 -191 358 -226 q 489 -94 479 -156 q 467 -3 500 -36 q 328 35 435 29 q 188 50 243 40 q 99 73 133 60 q 44 103 65 86 q 6 138 22 119 l 13 169 l 172 301 l 276 265 l 104 142 l 132 194 q 157 174 144 183 q 192 156 169 164 q 257 142 215 149 q 371 129 299 135 q 526 96 471 122 q 599 23 581 69 q 606 -90 617 -24 q 553 -201 596 -149 q 434 -288 510 -254 q 247 -322 358 -322 m 343 228 q 198 262 254 228 q 121 355 142 296 q 113 488 100 414 q 168 619 125 561 q 279 713 211 678 q 435 747 347 747 q 580 713 525 747 q 656 619 635 678 q 665 488 678 561 q 610 355 653 414 q 501 262 568 296 q 343 228 433 228 m 360 324 q 488 365 438 324 q 553 488 539 406 q 532 610 568 569 q 418 650 496 650 q 291 610 344 650 q 222 488 238 569 q 246 365 208 406 q 360 324 283 324 m 536 632 l 519 731 l 806 731 l 790 643 l 536 632 m 483 813 q 381 837 419 813 q 327 902 342 861 q 321 993 313 943 l 325 1013 l 394 1013 q 409 933 385 961 q 500 904 433 904 q 601 933 567 904 q 644 1013 635 961 l 715 1013 l 711 993 q 673 902 703 943 q 595 837 643 861 q 483 813 547 813 z "},"ģ":{"ha":783,"x_min":-56,"x_max":806,"o":"m 247 -322 q 78 -298 149 -322 q -24 -224 8 -274 q -43 -100 -56 -174 q -17 -28 -36 -65 q 42 44 3 10 q 146 107 82 79 l 226 60 q 111 -11 142 29 q 74 -89 81 -51 q 87 -165 65 -135 q 154 -211 108 -196 q 264 -226 200 -226 q 419 -191 358 -226 q 489 -94 479 -156 q 467 -3 500 -36 q 328 35 435 29 q 188 50 243 40 q 99 73 133 60 q 44 103 65 86 q 6 138 22 119 l 13 169 l 172 301 l 276 265 l 104 142 l 132 194 q 157 174 144 183 q 192 156 169 164 q 257 142 215 149 q 371 129 299 135 q 526 96 471 122 q 599 23 581 69 q 606 -90 617 -24 q 553 -201 596 -149 q 434 -288 510 -254 q 247 -322 358 -322 m 343 228 q 198 262 254 228 q 121 355 142 296 q 113 488 100 414 q 168 619 125 561 q 279 713 211 678 q 435 747 347 747 q 580 713 525 747 q 656 619 635 678 q 665 488 678 561 q 610 355 653 414 q 501 262 568 296 q 343 228 433 228 m 360 324 q 488 365 438 324 q 553 488 539 406 q 532 610 568 569 q 418 650 496 650 q 291 610 344 650 q 222 488 238 569 q 246 365 208 406 q 360 324 283 324 m 536 632 l 519 731 l 806 731 l 790 643 l 536 632 m 597 1069 l 588 1014 q 535 1001 553 1014 q 511 961 517 988 l 507 932 l 574 932 l 553 817 l 431 817 q 430 880 429 853 q 436 933 431 907 q 490 1038 449 1006 q 597 1069 532 1069 z "},"ġ":{"ha":783,"x_min":-56,"x_max":806,"o":"m 247 -322 q 78 -298 149 -322 q -24 -224 8 -274 q -43 -100 -56 -174 q -17 -28 -36 -65 q 42 44 3 10 q 146 107 82 79 l 226 60 q 111 -11 142 29 q 74 -89 81 -51 q 87 -165 65 -135 q 154 -211 108 -196 q 264 -226 200 -226 q 419 -191 358 -226 q 489 -94 479 -156 q 467 -3 500 -36 q 328 35 435 29 q 188 50 243 40 q 99 73 133 60 q 44 103 65 86 q 6 138 22 119 l 13 169 l 172 301 l 276 265 l 104 142 l 132 194 q 157 174 144 183 q 192 156 169 164 q 257 142 215 149 q 371 129 299 135 q 526 96 471 122 q 599 23 581 69 q 606 -90 617 -24 q 553 -201 596 -149 q 434 -288 510 -254 q 247 -322 358 -322 m 343 228 q 198 262 254 228 q 121 355 142 296 q 113 488 100 414 q 168 619 125 561 q 279 713 211 678 q 435 747 347 747 q 580 713 525 747 q 656 619 635 678 q 665 488 678 561 q 610 355 653 414 q 501 262 568 296 q 343 228 433 228 m 360 324 q 488 365 438 324 q 553 488 539 406 q 532 610 568 569 q 418 650 496 650 q 291 610 344 650 q 222 488 238 569 q 246 365 208 406 q 360 324 283 324 m 536 632 l 519 731 l 806 731 l 790 643 l 536 632 m 499 824 q 450 844 471 824 q 429 893 429 865 q 450 942 429 921 q 499 963 471 963 q 547 942 526 963 q 568 893 568 921 q 547 844 568 865 q 499 824 526 824 z "},"h":{"ha":810,"x_min":36,"x_max":750,"o":"m 36 0 l 211 1000 l 328 1000 l 260 613 l 260 613 q 376 711 307 675 q 517 747 444 747 q 656 716 601 747 q 730 621 710 685 q 732 458 750 557 l 651 0 l 536 0 l 614 446 q 594 597 632 546 q 475 647 556 647 q 366 620 418 647 q 276 540 314 593 q 225 413 239 488 l 153 0 l 36 0 z "},"ħ":{"ha":885,"x_min":111,"x_max":825,"o":"m 131 792 l 147 882 l 569 882 l 553 792 l 131 792 m 111 0 l 286 1000 l 403 1000 l 335 613 l 335 613 q 451 711 382 675 q 592 747 519 747 q 731 716 676 747 q 805 621 785 685 q 807 458 825 557 l 726 0 l 611 0 l 689 446 q 669 597 707 546 q 550 647 631 647 q 441 620 493 647 q 351 540 389 593 q 300 413 314 488 l 228 0 l 111 0 z "},"i":{"ha":335,"x_min":46,"x_max":353,"o":"m 46 0 l 175 731 l 292 731 l 163 0 l 46 0 m 271 869 q 214 892 236 869 q 190 950 192 915 q 213 1006 190 985 q 271 1028 236 1028 q 328 1006 304 1028 q 351 950 351 985 q 328 892 353 915 q 271 869 304 869 z "},"ı":{"ha":314,"x_min":35,"x_max":279,"o":"m 35 0 l 163 731 l 279 731 l 151 0 l 35 0 z "},"í":{"ha":314,"x_min":35,"x_max":399,"o":"m 35 0 l 163 731 l 279 731 l 151 0 l 35 0 m 167 790 l 104 865 l 315 1043 l 315 1043 l 399 949 l 167 790 z "},"ĭ":{"ha":314,"x_min":35,"x_max":467,"o":"m 35 0 l 163 731 l 279 731 l 151 0 l 35 0 m 235 813 q 132 837 171 813 q 78 902 93 861 q 72 993 64 943 l 76 1013 l 146 1013 q 160 933 136 961 q 251 904 185 904 q 352 933 318 904 q 396 1013 386 961 l 467 1013 l 463 993 q 424 902 454 943 q 347 837 394 861 q 235 813 299 813 z "},"î":{"ha":314,"x_min":35,"x_max":439,"o":"m 35 0 l 163 731 l 279 731 l 151 0 l 35 0 m 42 794 l 58 886 l 268 999 l 439 886 l 422 794 l 253 911 l 42 794 z "},"ï":{"ha":314,"x_min":35,"x_max":429,"o":"m 35 0 l 163 731 l 279 731 l 151 0 l 35 0 m 139 822 q 90 842 110 822 q 69 892 69 863 q 90 940 69 919 q 139 961 110 961 q 188 940 167 961 q 208 892 208 919 q 188 842 208 863 q 139 822 167 822 m 361 822 q 312 842 332 822 q 292 892 292 863 q 312 940 292 919 q 361 961 332 961 q 409 940 389 961 q 429 892 429 919 q 409 842 429 863 q 361 822 389 822 z "},"ì":{"ha":314,"x_min":35,"x_max":399,"o":"m 35 0 l 163 731 l 279 731 l 151 0 l 35 0 m 336 790 l 104 949 l 188 1043 l 188 1043 l 399 865 l 336 790 z "},"ī":{"ha":314,"x_min":1,"x_max":500,"o":"m 35 0 l 163 731 l 279 731 l 151 0 l 35 0 m 1 856 l 18 943 l 500 943 l 483 856 l 1 856 z "},"į":{"ha":314,"x_min":-147,"x_max":319,"o":"m 35 0 l 163 731 l 279 731 l 151 0 l 35 0 m 250 824 q 201 844 222 824 q 181 893 181 865 q 201 942 181 921 q 250 963 222 963 q 299 942 278 963 q 319 893 319 921 q 299 844 319 865 q 250 824 278 824 m 1 -282 q -76 -269 -42 -282 q -129 -226 -111 -256 q -139 -150 -147 -197 q -112 -86 -133 -117 q -51 -27 -92 -56 q 54 28 -11 1 l 133 60 l 151 0 l 64 -39 q -13 -87 11 -62 q -43 -139 -37 -112 q -28 -189 -49 -171 q 29 -207 -8 -207 q 74 -201 49 -207 q 122 -186 99 -196 l 110 -264 q 57 -277 85 -272 q 1 -282 29 -282 z "},"ĩ":{"ha":314,"x_min":28,"x_max":472,"o":"m 35 0 l 163 731 l 279 731 l 151 0 l 35 0 m 28 825 q 92 930 50 894 q 185 965 133 965 q 244 949 222 965 q 285 917 265 933 q 333 900 304 900 q 376 916 357 900 q 404 963 394 932 l 472 963 q 409 858 451 894 q 314 822 367 822 q 254 839 276 822 q 213 872 232 856 q 165 888 194 888 q 125 872 143 888 q 96 825 107 857 l 28 825 z "},"ĳ":{"ha":639,"x_min":46,"x_max":643,"o":"m 46 0 l 175 731 l 292 731 l 163 0 l 46 0 m 271 869 q 214 892 236 869 q 190 950 192 915 q 213 1006 190 985 q 271 1028 236 1028 q 328 1006 304 1028 q 351 950 351 985 q 328 892 353 915 q 271 869 304 869 m 131 -306 l 149 -206 l 203 -206 q 281 -184 256 -206 q 317 -111 307 -162 l 465 731 l 582 731 l 433 -114 q 392 -223 422 -181 q 314 -285 361 -265 q 203 -306 267 -306 l 131 -306 m 564 869 q 506 892 529 869 q 483 950 483 915 q 506 1006 483 985 q 564 1028 529 1028 q 620 1006 597 1028 q 643 950 643 985 q 620 892 643 915 q 564 869 597 869 z "},"j":{"ha":354,"x_min":-154,"x_max":358,"o":"m -154 -306 l -136 -206 l -82 -206 q -3 -184 -29 -206 q 32 -111 22 -162 l 181 731 l 297 731 l 149 -114 q 107 -223 138 -181 q 29 -285 76 -265 q -82 -306 -18 -306 l -154 -306 m 279 869 q 222 892 244 869 q 199 950 199 915 q 222 1006 199 985 q 279 1028 244 1028 q 335 1006 313 1028 q 358 950 358 985 q 335 892 358 915 q 279 869 313 869 z "},"ȷ":{"ha":331,"x_min":-154,"x_max":297,"o":"m -154 -306 l -136 -206 l -82 -206 q -3 -184 -29 -206 q 32 -111 22 -162 l 181 731 l 297 731 l 149 -114 q 107 -223 138 -181 q 29 -285 76 -265 q -82 -306 -18 -306 l -154 -306 z "},"k":{"ha":703,"x_min":36,"x_max":717,"o":"m 465 0 l 203 394 l 574 731 l 717 731 l 293 353 l 310 436 l 614 0 l 465 0 m 36 0 l 211 1000 l 328 1000 l 153 0 l 36 0 z "},"ķ":{"ha":703,"x_min":36,"x_max":717,"o":"m 465 0 l 203 394 l 574 731 l 717 731 l 293 353 l 310 436 l 614 0 l 465 0 m 36 0 l 211 1000 l 328 1000 l 153 0 l 36 0 m 164 -331 l 174 -275 q 228 -255 208 -275 q 253 -196 247 -235 l 256 -176 l 193 -176 l 213 -69 l 332 -69 q 332 -124 333 -97 q 326 -172 331 -150 q 270 -292 313 -254 q 164 -331 228 -331 z "},"l":{"ha":315,"x_min":36,"x_max":328,"o":"m 36 0 l 211 1000 l 328 1000 l 153 0 l 36 0 z "},"ĺ":{"ha":315,"x_min":36,"x_max":447,"o":"m 36 0 l 211 1000 l 328 1000 l 153 0 l 36 0 m 215 1060 l 153 1135 l 364 1313 l 364 1313 l 447 1218 l 215 1060 z "},"ľ":{"ha":428,"x_min":36,"x_max":517,"o":"m 36 0 l 211 1000 l 328 1000 l 153 0 l 36 0 m 349 771 l 358 826 q 412 840 394 826 q 435 879 429 853 l 439 908 l 372 908 l 393 1024 l 515 1024 q 516 961 517 988 q 510 907 515 935 q 456 803 497 835 q 349 771 414 771 z "},"ļ":{"ha":315,"x_min":-31,"x_max":328,"o":"m 36 0 l 211 1000 l 328 1000 l 153 0 l 36 0 m -31 -331 l -21 -275 q 33 -255 14 -275 q 58 -196 53 -235 l 61 -176 l -1 -176 l 18 -69 l 138 -69 q 138 -124 139 -97 q 132 -172 136 -150 q 76 -292 118 -254 q -31 -331 33 -331 z "},"ŀ":{"ha":357,"x_min":36,"x_max":442,"o":"m 36 0 l 211 1000 l 328 1000 l 153 0 l 36 0 m 363 421 q 306 443 328 421 q 283 500 283 465 q 306 557 283 535 q 363 579 328 579 q 419 557 397 579 q 442 500 442 535 q 419 443 442 465 q 363 421 397 421 z "},"ł":{"ha":342,"x_min":26,"x_max":389,"o":"m 26 460 l 42 553 l 389 686 l 372 592 l 26 460 m 49 0 l 224 1000 l 340 1000 l 165 0 l 49 0 z "},"m":{"ha":1221,"x_min":35,"x_max":1160,"o":"m 35 0 l 163 731 l 268 731 l 257 631 l 257 631 q 362 716 300 685 q 486 747 424 747 q 579 733 539 747 q 647 688 619 718 q 685 614 674 658 l 685 614 q 799 713 731 679 q 935 747 867 747 q 1067 716 1015 747 q 1140 622 1119 685 q 1143 464 1160 558 l 1063 0 l 947 0 l 1026 451 q 1009 599 1043 550 q 901 647 975 647 q 806 621 851 647 q 726 543 760 594 q 681 418 693 492 l 607 0 l 490 0 l 569 451 q 552 599 586 550 q 446 647 518 647 q 351 621 397 647 q 272 543 306 594 q 225 418 238 492 l 151 0 l 35 0 z "},"n":{"ha":803,"x_min":35,"x_max":743,"o":"m 35 0 l 163 731 l 268 731 l 254 615 l 254 615 q 363 713 296 678 q 508 747 429 747 q 644 717 589 747 q 721 624 699 686 q 726 465 743 561 l 644 0 l 528 0 l 607 453 q 585 599 624 550 q 465 647 546 647 q 361 622 411 647 q 275 546 311 596 q 225 424 239 496 l 151 0 l 35 0 z "},"ń":{"ha":803,"x_min":35,"x_max":743,"o":"m 35 0 l 163 731 l 268 731 l 254 615 l 254 615 q 363 713 296 678 q 508 747 429 747 q 644 717 589 747 q 721 624 699 686 q 726 465 743 561 l 644 0 l 528 0 l 607 453 q 585 599 624 550 q 465 647 546 647 q 361 622 411 647 q 275 546 311 596 q 225 424 239 496 l 151 0 l 35 0 m 411 790 l 349 865 l 560 1043 l 560 1043 l 643 949 l 411 790 z "},"ň":{"ha":803,"x_min":35,"x_max":743,"o":"m 35 0 l 163 731 l 268 731 l 254 615 l 254 615 q 363 713 296 678 q 508 747 429 747 q 644 717 589 747 q 721 624 699 686 q 726 465 743 561 l 644 0 l 528 0 l 607 453 q 585 599 624 550 q 465 647 546 647 q 361 622 411 647 q 275 546 311 596 q 225 424 239 496 l 151 0 l 35 0 m 707 1024 l 690 932 l 481 819 l 310 932 l 326 1024 l 496 907 l 707 1024 z "},"ņ":{"ha":803,"x_min":35,"x_max":743,"o":"m 35 0 l 163 731 l 268 731 l 254 615 l 254 615 q 363 713 296 678 q 508 747 429 747 q 644 717 589 747 q 721 624 699 686 q 726 465 743 561 l 644 0 l 528 0 l 607 453 q 585 599 624 550 q 465 647 546 647 q 361 622 411 647 q 275 546 311 596 q 225 424 239 496 l 151 0 l 35 0 m 213 -331 l 222 -275 q 276 -255 257 -275 q 301 -196 296 -235 l 304 -176 l 242 -176 l 261 -69 l 381 -69 q 381 -124 382 -97 q 375 -172 379 -150 q 319 -292 361 -254 q 213 -331 276 -331 z "},"ñ":{"ha":803,"x_min":35,"x_max":743,"o":"m 35 0 l 163 731 l 268 731 l 254 615 l 254 615 q 363 713 296 678 q 508 747 429 747 q 644 717 589 747 q 721 624 699 686 q 726 465 743 561 l 644 0 l 528 0 l 607 453 q 585 599 624 550 q 465 647 546 647 q 361 622 411 647 q 275 546 311 596 q 225 424 239 496 l 151 0 l 35 0 m 272 825 q 336 930 294 894 q 429 965 378 965 q 488 949 467 965 q 529 917 510 933 q 578 900 549 900 q 620 916 601 900 q 649 963 639 932 l 717 963 q 653 858 696 894 q 558 822 611 822 q 499 839 521 822 q 458 872 476 856 q 410 888 439 888 q 369 872 388 888 q 340 825 351 857 l 272 825 z "},"ŋ":{"ha":807,"x_min":35,"x_max":743,"o":"m 35 0 l 164 731 l 269 731 l 254 615 l 254 615 q 364 713 297 678 q 510 747 431 747 q 644 717 590 747 q 721 624 699 686 q 726 465 743 561 l 625 -114 q 583 -223 614 -181 q 506 -285 553 -265 q 394 -306 458 -306 l 322 -306 l 340 -206 l 394 -206 q 473 -184 447 -206 q 508 -111 499 -162 l 607 453 q 585 599 625 550 q 465 647 546 647 q 361 622 411 647 q 275 546 311 596 q 226 424 239 496 l 151 0 l 35 0 z "},"o":{"ha":829,"x_min":50,"x_max":779,"o":"m 346 -17 q 175 31 244 -17 q 78 164 106 78 q 69 365 50 250 q 122 523 85 453 q 215 643 160 593 q 338 720 269 693 q 482 747 406 747 q 653 700 585 747 q 751 567 722 653 q 758 365 779 482 q 706 208 743 278 q 615 88 669 138 q 492 10 560 38 q 346 -17 424 -17 m 363 83 q 483 115 426 83 q 581 209 540 146 q 639 365 622 272 q 638 522 656 460 q 574 616 619 585 q 465 647 529 647 q 346 616 403 647 q 247 522 289 585 q 189 365 206 460 q 191 209 172 272 q 255 115 210 146 q 363 83 300 83 z "},"ó":{"ha":829,"x_min":50,"x_max":779,"o":"m 346 -17 q 175 31 244 -17 q 78 164 106 78 q 69 365 50 250 q 122 523 85 453 q 215 643 160 593 q 338 720 269 693 q 482 747 406 747 q 653 700 585 747 q 751 567 722 653 q 758 365 779 482 q 706 208 743 278 q 615 88 669 138 q 492 10 560 38 q 346 -17 424 -17 m 363 83 q 483 115 426 83 q 581 209 540 146 q 639 365 622 272 q 638 522 656 460 q 574 616 619 585 q 465 647 529 647 q 346 616 403 647 q 247 522 289 585 q 189 365 206 460 q 191 209 172 272 q 255 115 210 146 q 363 83 300 83 m 425 790 l 363 865 l 574 1043 l 574 1043 l 657 949 l 425 790 z "},"ŏ":{"ha":829,"x_min":50,"x_max":779,"o":"m 346 -17 q 175 31 244 -17 q 78 164 106 78 q 69 365 50 250 q 122 523 85 453 q 215 643 160 593 q 338 720 269 693 q 482 747 406 747 q 653 700 585 747 q 751 567 722 653 q 758 365 779 482 q 706 208 743 278 q 615 88 669 138 q 492 10 560 38 q 346 -17 424 -17 m 363 83 q 483 115 426 83 q 581 209 540 146 q 639 365 622 272 q 638 522 656 460 q 574 616 619 585 q 465 647 529 647 q 346 616 403 647 q 247 522 289 585 q 189 365 206 460 q 191 209 172 272 q 255 115 210 146 q 363 83 300 83 m 493 813 q 390 837 429 813 q 337 902 351 861 q 331 993 322 943 l 335 1013 l 404 1013 q 419 933 394 961 q 510 904 443 904 q 610 933 576 904 q 654 1013 644 961 l 725 1013 l 721 993 q 683 902 713 943 q 605 837 653 861 q 493 813 557 813 z "},"ô":{"ha":829,"x_min":50,"x_max":779,"o":"m 346 -17 q 175 31 244 -17 q 78 164 106 78 q 69 365 50 250 q 122 523 85 453 q 215 643 160 593 q 338 720 269 693 q 482 747 406 747 q 653 700 585 747 q 751 567 722 653 q 758 365 779 482 q 706 208 743 278 q 615 88 669 138 q 492 10 560 38 q 346 -17 424 -17 m 363 83 q 483 115 426 83 q 581 209 540 146 q 639 365 622 272 q 638 522 656 460 q 574 616 619 585 q 465 647 529 647 q 346 616 403 647 q 247 522 289 585 q 189 365 206 460 q 191 209 172 272 q 255 115 210 146 q 363 83 300 83 m 300 794 l 317 886 l 526 999 l 697 886 l 681 794 l 511 911 l 300 794 z "},"ö":{"ha":829,"x_min":50,"x_max":779,"o":"m 346 -17 q 175 31 244 -17 q 78 164 106 78 q 69 365 50 250 q 122 523 85 453 q 215 643 160 593 q 338 720 269 693 q 482 747 406 747 q 653 700 585 747 q 751 567 722 653 q 758 365 779 482 q 706 208 743 278 q 615 88 669 138 q 492 10 560 38 q 346 -17 424 -17 m 363 83 q 483 115 426 83 q 581 209 540 146 q 639 365 622 272 q 638 522 656 460 q 574 616 619 585 q 465 647 529 647 q 346 616 403 647 q 247 522 289 585 q 189 365 206 460 q 191 209 172 272 q 255 115 210 146 q 363 83 300 83 m 397 822 q 348 842 368 822 q 328 892 328 863 q 348 940 328 919 q 397 961 368 961 q 446 940 425 961 q 467 892 467 919 q 446 842 467 863 q 397 822 425 822 m 619 822 q 570 842 590 822 q 550 892 550 863 q 570 940 550 919 q 619 961 590 961 q 667 940 647 961 q 688 892 688 919 q 667 842 688 863 q 619 822 647 822 z "},"ò":{"ha":829,"x_min":50,"x_max":779,"o":"m 346 -17 q 175 31 244 -17 q 78 164 106 78 q 69 365 50 250 q 122 523 85 453 q 215 643 160 593 q 338 720 269 693 q 482 747 406 747 q 653 700 585 747 q 751 567 722 653 q 758 365 779 482 q 706 208 743 278 q 615 88 669 138 q 492 10 560 38 q 346 -17 424 -17 m 363 83 q 483 115 426 83 q 581 209 540 146 q 639 365 622 272 q 638 522 656 460 q 574 616 619 585 q 465 647 529 647 q 346 616 403 647 q 247 522 289 585 q 189 365 206 460 q 191 209 172 272 q 255 115 210 146 q 363 83 300 83 m 594 790 l 363 949 l 446 1043 l 446 1043 l 657 865 l 594 790 z "},"ő":{"ha":829,"x_min":50,"x_max":779,"o":"m 346 -17 q 175 31 244 -17 q 78 164 106 78 q 69 365 50 250 q 122 523 85 453 q 215 643 160 593 q 338 720 269 693 q 482 747 406 747 q 653 700 585 747 q 751 567 722 653 q 758 365 779 482 q 706 208 743 278 q 615 88 669 138 q 492 10 560 38 q 346 -17 424 -17 m 363 83 q 483 115 426 83 q 581 209 540 146 q 639 365 622 272 q 638 522 656 460 q 574 616 619 585 q 465 647 529 647 q 346 616 403 647 q 247 522 289 585 q 189 365 206 460 q 191 209 172 272 q 255 115 210 146 q 363 83 300 83 m 492 800 l 628 1007 l 729 1007 l 569 800 l 492 800 m 289 800 l 417 1007 l 518 1007 l 368 800 l 289 800 z "},"ō":{"ha":829,"x_min":50,"x_max":779,"o":"m 346 -17 q 175 31 244 -17 q 78 164 106 78 q 69 365 50 250 q 122 523 85 453 q 215 643 160 593 q 338 720 269 693 q 482 747 406 747 q 653 700 585 747 q 751 567 722 653 q 758 365 779 482 q 706 208 743 278 q 615 88 669 138 q 492 10 560 38 q 346 -17 424 -17 m 363 83 q 483 115 426 83 q 581 209 540 146 q 639 365 622 272 q 638 522 656 460 q 574 616 619 585 q 465 647 529 647 q 346 616 403 647 q 247 522 289 585 q 189 365 206 460 q 191 209 172 272 q 255 115 210 146 q 363 83 300 83 m 260 856 l 276 943 l 758 943 l 742 856 l 260 856 z "},"ø":{"ha":831,"x_min":-19,"x_max":850,"o":"m -19 0 l 740 731 l 850 731 l 92 0 l -19 0 m 347 -17 q 176 31 246 -17 q 79 164 107 78 q 71 365 51 250 q 124 523 86 453 q 216 643 161 593 q 339 720 271 693 q 483 747 407 747 q 655 700 586 747 q 752 567 724 653 q 760 365 781 482 q 708 208 744 278 q 616 88 671 138 q 493 10 561 38 q 347 -17 425 -17 m 364 83 q 485 115 428 83 q 583 209 542 146 q 640 365 624 272 q 639 522 657 460 q 576 616 621 585 q 467 647 531 647 q 347 616 404 647 q 249 522 290 585 q 190 365 207 460 q 192 209 174 272 q 256 115 211 146 q 364 83 301 83 z "},"õ":{"ha":829,"x_min":50,"x_max":779,"o":"m 346 -17 q 175 31 244 -17 q 78 164 106 78 q 69 365 50 250 q 122 523 85 453 q 215 643 160 593 q 338 720 269 693 q 482 747 406 747 q 653 700 585 747 q 751 567 722 653 q 758 365 779 482 q 706 208 743 278 q 615 88 669 138 q 492 10 560 38 q 346 -17 424 -17 m 363 83 q 483 115 426 83 q 581 209 540 146 q 639 365 622 272 q 638 522 656 460 q 574 616 619 585 q 465 647 529 647 q 346 616 403 647 q 247 522 289 585 q 189 365 206 460 q 191 209 172 272 q 255 115 210 146 q 363 83 300 83 m 286 825 q 350 930 308 894 q 443 965 392 965 q 502 949 481 965 q 543 917 524 933 q 592 900 563 900 q 634 916 615 900 q 663 963 653 932 l 731 963 q 667 858 710 894 q 572 822 625 822 q 513 839 535 822 q 472 872 490 856 q 424 888 453 888 q 383 872 401 888 q 354 825 365 857 l 286 825 z "},"œ":{"ha":1361,"x_min":50,"x_max":1321,"o":"m 346 -17 q 175 31 244 -17 q 78 164 106 78 q 69 365 50 250 q 122 523 85 453 q 215 643 160 593 q 338 720 269 693 q 482 747 406 747 q 643 707 576 747 q 742 593 710 667 q 876 707 797 667 q 1046 747 954 747 q 1214 700 1151 747 q 1299 574 1276 653 q 1304 400 1321 494 q 1301 382 1303 392 q 1298 362 1300 372 q 1293 339 1296 351 l 754 339 q 764 196 743 253 q 828 110 785 139 q 926 82 871 82 q 1054 112 1004 82 q 1135 197 1104 142 l 1250 197 q 1173 88 1222 136 q 1057 11 1124 39 q 910 -17 990 -17 q 756 24 821 -17 q 661 139 692 65 q 522 24 604 65 q 346 -17 440 -17 m 363 83 q 483 115 426 83 q 581 209 540 146 q 639 365 622 272 q 638 522 656 460 q 574 616 619 585 q 465 647 529 647 q 346 616 403 647 q 247 522 289 585 q 189 365 206 460 q 191 209 172 272 q 255 115 210 146 q 363 83 300 83 m 771 429 l 1196 429 q 1188 550 1207 501 q 1126 624 1168 599 q 1026 649 1085 649 q 921 624 972 649 q 830 550 869 599 q 771 429 790 501 z "},"p":{"ha":864,"x_min":-19,"x_max":813,"o":"m -19 -306 l 164 731 l 269 731 l 258 617 l 258 617 q 326 682 286 653 q 417 729 365 711 q 531 747 468 747 q 694 697 629 747 q 786 561 760 647 q 793 364 813 475 q 742 211 779 281 q 653 91 706 142 q 534 12 600 40 q 394 -17 468 -17 q 294 -1 339 -17 q 218 44 249 15 q 172 115 188 74 l 97 -306 l -19 -306 m 399 85 q 521 119 464 85 q 618 216 578 153 q 674 365 658 279 q 670 515 689 451 q 607 612 651 578 q 497 646 563 646 q 371 612 428 646 q 274 515 314 578 q 219 365 235 451 q 222 216 204 279 q 284 119 239 153 q 399 85 329 85 z "},"þ":{"ha":864,"x_min":-19,"x_max":813,"o":"m -19 -306 l 211 1000 l 326 1000 l 258 617 q 326 682 286 653 q 417 729 365 711 q 531 747 468 747 q 694 697 629 747 q 786 561 760 647 q 793 364 813 475 q 742 211 779 281 q 653 91 706 142 q 534 12 600 40 q 394 -17 468 -17 q 294 -1 339 -17 q 218 44 249 15 q 172 115 188 74 l 97 -306 l -19 -306 m 399 85 q 521 119 464 85 q 618 216 578 153 q 674 365 658 279 q 670 515 689 451 q 607 612 651 578 q 497 646 563 646 q 371 612 428 646 q 274 515 314 578 q 219 365 235 451 q 222 216 204 279 q 284 119 239 153 q 399 85 329 85 z "},"q":{"ha":864,"x_min":50,"x_max":829,"o":"m 529 -306 l 604 115 q 486 15 557 47 q 335 -17 415 -17 q 170 32 236 -17 q 77 167 104 81 q 69 363 50 253 q 121 516 85 446 q 210 638 157 586 q 328 719 263 690 q 467 747 394 747 q 578 728 533 747 q 650 678 622 708 q 692 617 678 649 l 692 617 l 724 731 l 829 731 l 646 -306 l 529 -306 m 367 85 q 493 119 436 85 q 589 216 550 153 q 643 365 628 279 q 642 515 658 451 q 580 612 625 578 q 465 646 535 646 q 342 612 400 646 q 244 515 285 578 q 189 365 204 451 q 192 216 174 279 q 256 119 211 153 q 367 85 301 85 z "},"r":{"ha":542,"x_min":35,"x_max":572,"o":"m 35 0 l 163 731 l 268 731 l 253 597 l 253 597 q 333 681 286 647 q 440 731 379 714 q 572 747 500 747 l 551 625 l 479 625 q 397 614 438 625 q 320 578 356 603 q 259 510 285 553 q 222 401 233 467 l 151 0 l 35 0 z "},"ŕ":{"ha":542,"x_min":35,"x_max":572,"o":"m 35 0 l 163 731 l 268 731 l 253 597 l 253 597 q 333 681 286 647 q 440 731 379 714 q 572 747 500 747 l 551 625 l 479 625 q 397 614 438 625 q 320 578 356 603 q 259 510 285 553 q 222 401 233 467 l 151 0 l 35 0 m 318 790 l 256 865 l 467 1043 l 467 1043 l 550 949 l 318 790 z "},"ř":{"ha":542,"x_min":35,"x_max":614,"o":"m 35 0 l 163 731 l 268 731 l 253 597 l 253 597 q 333 681 286 647 q 440 731 379 714 q 572 747 500 747 l 551 625 l 479 625 q 397 614 438 625 q 320 578 356 603 q 259 510 285 553 q 222 401 233 467 l 151 0 l 35 0 m 614 1024 l 597 932 l 388 819 l 217 932 l 233 1024 l 403 907 l 614 1024 z "},"ŗ":{"ha":542,"x_min":-31,"x_max":572,"o":"m 35 0 l 163 731 l 268 731 l 253 597 l 253 597 q 333 681 286 647 q 440 731 379 714 q 572 747 500 747 l 551 625 l 479 625 q 397 614 438 625 q 320 578 356 603 q 259 510 285 553 q 222 401 233 467 l 151 0 l 35 0 m -31 -331 l -21 -275 q 33 -255 14 -275 q 58 -196 53 -235 l 61 -176 l -1 -176 l 18 -69 l 138 -69 q 138 -124 139 -97 q 132 -172 136 -150 q 76 -292 118 -254 q -31 -331 33 -331 z "},"s":{"ha":707,"x_min":31,"x_max":651,"o":"m 296 -17 q 138 13 197 -17 q 54 97 78 43 q 36 221 31 150 l 156 221 q 169 152 154 183 q 219 101 183 121 q 314 82 254 82 q 397 97 361 82 q 456 138 433 111 q 483 199 478 164 q 476 270 492 244 q 424 309 460 296 q 332 329 388 322 q 228 353 272 338 q 156 393 183 368 q 117 456 128 418 q 117 544 107 493 q 167 650 128 604 q 270 722 207 696 q 414 747 333 747 q 592 693 532 747 q 646 539 651 639 l 531 539 q 498 619 533 590 q 396 649 463 649 q 284 622 325 649 q 236 553 243 596 q 242 495 231 521 q 290 452 254 469 q 389 426 325 435 q 493 406 449 419 q 566 367 538 392 q 605 304 594 343 q 604 208 615 265 q 549 86 592 136 q 442 10 507 36 q 296 -17 376 -17 z "},"ś":{"ha":707,"x_min":31,"x_max":651,"o":"m 296 -17 q 138 13 197 -17 q 54 97 78 43 q 36 221 31 150 l 156 221 q 169 152 154 183 q 219 101 183 121 q 314 82 254 82 q 397 97 361 82 q 456 138 433 111 q 483 199 478 164 q 476 270 492 244 q 424 309 460 296 q 332 329 388 322 q 228 353 272 338 q 156 393 183 368 q 117 456 128 418 q 117 544 107 493 q 167 650 128 604 q 270 722 207 696 q 414 747 333 747 q 592 693 532 747 q 646 539 651 639 l 531 539 q 498 619 533 590 q 396 649 463 649 q 284 622 325 649 q 236 553 243 596 q 242 495 231 521 q 290 452 254 469 q 389 426 325 435 q 493 406 449 419 q 566 367 538 392 q 605 304 594 343 q 604 208 615 265 q 549 86 592 136 q 442 10 507 36 q 296 -17 376 -17 m 364 790 l 301 865 l 513 1043 l 513 1043 l 596 949 l 364 790 z "},"š":{"ha":707,"x_min":31,"x_max":660,"o":"m 296 -17 q 138 13 197 -17 q 54 97 78 43 q 36 221 31 150 l 156 221 q 169 152 154 183 q 219 101 183 121 q 314 82 254 82 q 397 97 361 82 q 456 138 433 111 q 483 199 478 164 q 476 270 492 244 q 424 309 460 296 q 332 329 388 322 q 228 353 272 338 q 156 393 183 368 q 117 456 128 418 q 117 544 107 493 q 167 650 128 604 q 270 722 207 696 q 414 747 333 747 q 592 693 532 747 q 646 539 651 639 l 531 539 q 498 619 533 590 q 396 649 463 649 q 284 622 325 649 q 236 553 243 596 q 242 495 231 521 q 290 452 254 469 q 389 426 325 435 q 493 406 449 419 q 566 367 538 392 q 605 304 594 343 q 604 208 615 265 q 549 86 592 136 q 442 10 507 36 q 296 -17 376 -17 m 660 1024 l 643 932 l 433 819 l 263 932 l 279 1024 l 449 907 l 660 1024 z "},"ş":{"ha":707,"x_min":31,"x_max":651,"o":"m 296 -17 q 138 13 197 -17 q 54 97 78 43 q 36 221 31 150 l 156 221 q 169 152 154 183 q 219 101 183 121 q 314 82 254 82 q 397 97 361 82 q 456 138 433 111 q 483 199 478 164 q 476 270 492 244 q 424 309 460 296 q 332 329 388 322 q 228 353 272 338 q 156 393 183 368 q 117 456 128 418 q 117 544 107 493 q 167 650 128 604 q 270 722 207 696 q 414 747 333 747 q 592 693 532 747 q 646 539 651 639 l 531 539 q 498 619 533 590 q 396 649 463 649 q 284 622 325 649 q 236 553 243 596 q 242 495 231 521 q 290 452 254 469 q 389 426 325 435 q 493 406 449 419 q 566 367 538 392 q 605 304 594 343 q 604 208 615 265 q 549 86 592 136 q 442 10 507 36 q 296 -17 376 -17 m 128 -360 l 140 -286 l 268 -286 q 342 -269 317 -286 q 374 -219 368 -253 q 359 -173 379 -189 q 290 -157 339 -157 l 222 -157 l 251 10 l 329 10 l 313 -87 q 403 -101 365 -86 q 459 -146 442 -115 q 468 -221 476 -176 q 434 -295 461 -264 q 366 -343 407 -326 q 276 -360 325 -360 l 128 -360 z "},"ș":{"ha":707,"x_min":31,"x_max":651,"o":"m 296 -17 q 138 13 197 -17 q 54 97 78 43 q 36 221 31 150 l 156 221 q 169 152 154 183 q 219 101 183 121 q 314 82 254 82 q 397 97 361 82 q 456 138 433 111 q 483 199 478 164 q 476 270 492 244 q 424 309 460 296 q 332 329 388 322 q 228 353 272 338 q 156 393 183 368 q 117 456 128 418 q 117 544 107 493 q 167 650 128 604 q 270 722 207 696 q 414 747 333 747 q 592 693 532 747 q 646 539 651 639 l 531 539 q 498 619 533 590 q 396 649 463 649 q 284 622 325 649 q 236 553 243 596 q 242 495 231 521 q 290 452 254 469 q 389 426 325 435 q 493 406 449 419 q 566 367 538 392 q 605 304 594 343 q 604 208 615 265 q 549 86 592 136 q 442 10 507 36 q 296 -17 376 -17 m 165 -331 l 175 -275 q 229 -255 210 -275 q 254 -196 249 -235 l 257 -176 l 194 -176 l 214 -69 l 333 -69 q 333 -124 335 -97 q 328 -172 332 -150 q 272 -292 314 -254 q 165 -331 229 -331 z "},"ß":{"ha":899,"x_min":36,"x_max":831,"o":"m 519 -14 q 344 52 406 -14 q 292 235 282 118 l 407 235 q 433 121 400 164 q 533 78 465 78 q 644 110 601 78 q 697 200 688 143 q 695 260 704 235 q 659 306 686 286 q 585 342 632 325 q 447 417 485 378 q 419 521 410 457 q 451 590 426 563 q 510 637 476 617 q 576 676 543 657 q 633 720 608 696 q 663 781 657 744 q 632 881 674 844 q 504 918 590 918 q 350 860 407 918 q 276 706 293 801 l 151 0 l 36 0 l 163 717 q 226 872 179 804 q 348 978 272 940 q 524 1017 424 1017 q 684 986 624 1017 q 769 904 744 956 q 782 790 793 853 q 747 706 772 739 q 688 652 721 674 q 623 614 656 631 q 567 579 590 597 q 540 536 544 561 q 547 497 538 515 q 585 463 556 479 q 669 426 614 446 q 797 340 763 393 q 817 208 831 288 q 765 92 806 143 q 663 14 725 42 q 519 -14 600 -14 z "},"t":{"ha":565,"x_min":99,"x_max":568,"o":"m 318 0 q 213 19 256 0 q 155 85 171 39 q 153 211 139 132 l 226 632 l 99 632 l 117 731 l 244 731 l 292 913 l 393 913 l 361 731 l 568 731 l 550 632 l 343 632 l 269 211 q 281 123 258 146 q 369 100 303 100 l 454 100 l 436 0 l 318 0 z "},"ť":{"ha":565,"x_min":99,"x_max":617,"o":"m 318 0 q 213 19 256 0 q 155 85 171 39 q 153 211 139 132 l 226 632 l 99 632 l 117 731 l 244 731 l 292 913 l 393 913 l 361 731 l 568 731 l 550 632 l 343 632 l 269 211 q 281 123 258 146 q 369 100 303 100 l 454 100 l 436 0 l 318 0 m 449 810 l 458 865 q 512 878 494 865 q 535 918 529 892 l 539 947 l 472 947 l 493 1063 l 615 1063 q 616 1000 617 1026 q 610 946 615 974 q 556 842 597 874 q 449 810 514 810 z "},"ţ":{"ha":565,"x_min":99,"x_max":568,"o":"m 318 0 q 213 19 256 0 q 155 85 171 39 q 153 211 139 132 l 226 632 l 99 632 l 117 731 l 244 731 l 292 913 l 393 913 l 361 731 l 568 731 l 550 632 l 343 632 l 269 211 q 281 123 258 146 q 369 100 303 100 l 454 100 l 436 0 l 318 0 m 131 -360 l 143 -286 l 271 -286 q 345 -269 319 -286 q 376 -219 371 -253 q 362 -173 382 -189 q 293 -157 342 -157 l 225 -157 l 254 10 l 332 10 l 315 -87 q 406 -101 368 -86 q 462 -146 444 -115 q 471 -221 479 -176 q 437 -295 464 -264 q 369 -343 410 -326 q 279 -360 328 -360 l 131 -360 z "},"ț":{"ha":565,"x_min":99,"x_max":568,"o":"m 318 0 q 213 19 256 0 q 155 85 171 39 q 153 211 139 132 l 226 632 l 99 632 l 117 731 l 244 731 l 292 913 l 393 913 l 361 731 l 568 731 l 550 632 l 343 632 l 269 211 q 281 123 258 146 q 369 100 303 100 l 454 100 l 436 0 l 318 0 m 168 -331 l 178 -275 q 232 -255 213 -275 q 257 -196 251 -235 l 260 -176 l 197 -176 l 217 -69 l 336 -69 q 336 -124 338 -97 q 331 -172 335 -150 q 274 -292 317 -254 q 168 -331 232 -331 z "},"u":{"ha":801,"x_min":61,"x_max":767,"o":"m 294 -17 q 159 15 214 -17 q 83 112 104 46 q 79 279 61 178 l 158 731 l 275 731 l 196 278 q 206 132 179 181 q 325 83 232 83 q 436 109 383 83 q 526 185 489 135 q 576 307 564 235 l 650 731 l 767 731 l 639 0 l 533 0 l 546 117 l 546 117 q 440 18 507 53 q 294 -17 374 -17 z "},"ú":{"ha":801,"x_min":61,"x_max":767,"o":"m 294 -17 q 159 15 214 -17 q 83 112 104 46 q 79 279 61 178 l 158 731 l 275 731 l 196 278 q 206 132 179 181 q 325 83 232 83 q 436 109 383 83 q 526 185 489 135 q 576 307 564 235 l 650 731 l 767 731 l 639 0 l 533 0 l 546 117 l 546 117 q 440 18 507 53 q 294 -17 374 -17 m 411 790 l 349 865 l 560 1043 l 560 1043 l 643 949 l 411 790 z "},"ŭ":{"ha":801,"x_min":61,"x_max":767,"o":"m 294 -17 q 159 15 214 -17 q 83 112 104 46 q 79 279 61 178 l 158 731 l 275 731 l 196 278 q 206 132 179 181 q 325 83 232 83 q 436 109 383 83 q 526 185 489 135 q 576 307 564 235 l 650 731 l 767 731 l 639 0 l 533 0 l 546 117 l 546 117 q 440 18 507 53 q 294 -17 374 -17 m 479 813 q 376 837 415 813 q 323 902 338 861 q 317 993 308 943 l 321 1013 l 390 1013 q 405 933 381 961 q 496 904 429 904 q 597 933 563 904 q 640 1013 631 961 l 711 1013 l 707 993 q 669 902 699 943 q 591 837 639 861 q 479 813 543 813 z "},"û":{"ha":801,"x_min":61,"x_max":767,"o":"m 294 -17 q 159 15 214 -17 q 83 112 104 46 q 79 279 61 178 l 158 731 l 275 731 l 196 278 q 206 132 179 181 q 325 83 232 83 q 436 109 383 83 q 526 185 489 135 q 576 307 564 235 l 650 731 l 767 731 l 639 0 l 533 0 l 546 117 l 546 117 q 440 18 507 53 q 294 -17 374 -17 m 286 794 l 303 886 l 513 999 l 683 886 l 667 794 l 497 911 l 286 794 z "},"ü":{"ha":801,"x_min":61,"x_max":767,"o":"m 294 -17 q 159 15 214 -17 q 83 112 104 46 q 79 279 61 178 l 158 731 l 275 731 l 196 278 q 206 132 179 181 q 325 83 232 83 q 436 109 383 83 q 526 185 489 135 q 576 307 564 235 l 650 731 l 767 731 l 639 0 l 533 0 l 546 117 l 546 117 q 440 18 507 53 q 294 -17 374 -17 m 383 822 q 334 842 354 822 q 314 892 314 863 q 334 940 314 919 q 383 961 354 961 q 432 940 411 961 q 453 892 453 919 q 432 842 453 863 q 383 822 411 822 m 606 822 q 556 842 576 822 q 536 892 536 863 q 556 940 536 919 q 606 961 576 961 q 653 940 633 961 q 674 892 674 919 q 653 842 674 863 q 606 822 633 822 z "},"ù":{"ha":801,"x_min":61,"x_max":767,"o":"m 294 -17 q 159 15 214 -17 q 83 112 104 46 q 79 279 61 178 l 158 731 l 275 731 l 196 278 q 206 132 179 181 q 325 83 232 83 q 436 109 383 83 q 526 185 489 135 q 576 307 564 235 l 650 731 l 767 731 l 639 0 l 533 0 l 546 117 l 546 117 q 440 18 507 53 q 294 -17 374 -17 m 581 790 l 349 949 l 432 1043 l 432 1043 l 643 865 l 581 790 z "},"ű":{"ha":801,"x_min":61,"x_max":767,"o":"m 294 -17 q 159 15 214 -17 q 83 112 104 46 q 79 279 61 178 l 158 731 l 275 731 l 196 278 q 206 132 179 181 q 325 83 232 83 q 436 109 383 83 q 526 185 489 135 q 576 307 564 235 l 650 731 l 767 731 l 639 0 l 533 0 l 546 117 l 546 117 q 440 18 507 53 q 294 -17 374 -17 m 478 800 l 614 1007 l 715 1007 l 556 800 l 478 800 m 275 800 l 403 1007 l 504 1007 l 354 800 l 275 800 z "},"ū":{"ha":801,"x_min":61,"x_max":767,"o":"m 294 -17 q 159 15 214 -17 q 83 112 104 46 q 79 279 61 178 l 158 731 l 275 731 l 196 278 q 206 132 179 181 q 325 83 232 83 q 436 109 383 83 q 526 185 489 135 q 576 307 564 235 l 650 731 l 767 731 l 639 0 l 533 0 l 546 117 l 546 117 q 440 18 507 53 q 294 -17 374 -17 m 246 856 l 263 943 l 744 943 l 728 856 l 246 856 z "},"ų":{"ha":801,"x_min":61,"x_max":767,"o":"m 294 -17 q 159 15 214 -17 q 83 112 104 46 q 79 279 61 178 l 158 731 l 275 731 l 196 278 q 206 132 179 181 q 325 83 232 83 q 436 109 383 83 q 526 185 489 135 q 576 307 564 235 l 650 731 l 767 731 l 639 0 l 533 0 l 546 117 l 546 117 q 440 18 507 53 q 294 -17 374 -17 m 489 -282 q 411 -269 446 -282 q 358 -226 376 -256 q 349 -150 340 -197 q 375 -86 354 -117 q 436 -27 396 -56 q 542 28 476 1 l 621 60 l 639 0 l 551 -39 q 474 -87 499 -62 q 444 -139 450 -112 q 459 -189 439 -171 q 517 -207 479 -207 q 561 -201 536 -207 q 610 -186 586 -196 l 597 -264 q 544 -277 572 -272 q 489 -282 517 -282 z "},"ů":{"ha":801,"x_min":61,"x_max":767,"o":"m 294 -17 q 159 15 214 -17 q 83 112 104 46 q 79 279 61 178 l 158 731 l 275 731 l 196 278 q 206 132 179 181 q 325 83 232 83 q 436 109 383 83 q 526 185 489 135 q 576 307 564 235 l 650 731 l 767 731 l 639 0 l 533 0 l 546 117 l 546 117 q 440 18 507 53 q 294 -17 374 -17 m 507 822 q 404 860 447 822 q 361 965 361 899 q 404 1070 361 1032 q 507 1108 447 1108 q 610 1070 568 1108 q 653 965 653 1032 q 610 860 653 899 q 507 822 568 822 m 507 882 q 563 905 540 882 q 586 965 586 928 q 563 1026 586 1004 q 507 1047 540 1047 q 451 1026 475 1047 q 428 965 428 1004 q 451 905 428 928 q 507 882 475 882 z "},"ũ":{"ha":801,"x_min":61,"x_max":767,"o":"m 294 -17 q 159 15 214 -17 q 83 112 104 46 q 79 279 61 178 l 158 731 l 275 731 l 196 278 q 206 132 179 181 q 325 83 232 83 q 436 109 383 83 q 526 185 489 135 q 576 307 564 235 l 650 731 l 767 731 l 639 0 l 533 0 l 546 117 l 546 117 q 440 18 507 53 q 294 -17 374 -17 m 272 825 q 336 930 294 894 q 429 965 378 965 q 488 949 467 965 q 529 917 510 933 q 578 900 549 900 q 620 916 601 900 q 649 963 639 932 l 717 963 q 653 858 696 894 q 558 822 611 822 q 499 839 521 822 q 458 872 476 856 q 410 888 439 888 q 369 872 388 888 q 340 825 351 857 l 272 825 z "},"v":{"ha":756,"x_min":97,"x_max":786,"o":"m 247 0 l 97 731 l 221 731 l 335 113 l 335 113 l 667 731 l 786 731 l 382 0 l 247 0 z "},"w":{"ha":1094,"x_min":99,"x_max":1124,"o":"m 186 0 l 99 731 l 215 731 l 272 149 l 272 149 l 544 731 l 676 731 l 746 150 l 746 150 l 1006 731 l 1124 731 l 781 0 l 661 0 l 590 608 l 590 608 l 306 0 l 186 0 z "},"ẃ":{"ha":1094,"x_min":99,"x_max":1124,"o":"m 186 0 l 99 731 l 215 731 l 272 149 l 272 149 l 544 731 l 676 731 l 746 150 l 746 150 l 1006 731 l 1124 731 l 781 0 l 661 0 l 590 608 l 590 608 l 306 0 l 186 0 m 557 790 l 494 865 l 706 1043 l 706 1043 l 789 949 l 557 790 z "},"ŵ":{"ha":1094,"x_min":99,"x_max":1124,"o":"m 186 0 l 99 731 l 215 731 l 272 149 l 272 149 l 544 731 l 676 731 l 746 150 l 746 150 l 1006 731 l 1124 731 l 781 0 l 661 0 l 590 608 l 590 608 l 306 0 l 186 0 m 432 794 l 449 886 l 658 999 l 829 886 l 813 794 l 643 911 l 432 794 z "},"ẅ":{"ha":1094,"x_min":99,"x_max":1124,"o":"m 186 0 l 99 731 l 215 731 l 272 149 l 272 149 l 544 731 l 676 731 l 746 150 l 746 150 l 1006 731 l 1124 731 l 781 0 l 661 0 l 590 608 l 590 608 l 306 0 l 186 0 m 529 822 q 480 842 500 822 q 460 892 460 863 q 480 940 460 919 q 529 961 500 961 q 578 940 557 961 q 599 892 599 919 q 578 842 599 863 q 529 822 557 822 m 751 822 q 702 842 722 822 q 682 892 682 863 q 702 940 682 919 q 751 961 722 961 q 799 940 779 961 q 819 892 819 919 q 799 842 819 863 q 751 822 779 822 z "},"ẁ":{"ha":1094,"x_min":99,"x_max":1124,"o":"m 186 0 l 99 731 l 215 731 l 272 149 l 272 149 l 544 731 l 676 731 l 746 150 l 746 150 l 1006 731 l 1124 731 l 781 0 l 661 0 l 590 608 l 590 608 l 306 0 l 186 0 m 726 790 l 494 949 l 578 1043 l 578 1043 l 789 865 l 726 790 z "},"x":{"ha":682,"x_min":-31,"x_max":714,"o":"m -31 0 l 267 367 l 97 731 l 225 731 l 356 440 l 356 440 l 588 731 l 714 731 l 417 367 l 586 0 l 460 0 l 329 297 l 329 297 l 99 0 l -31 0 z "},"y":{"ha":774,"x_min":64,"x_max":806,"o":"m 64 -306 l 294 78 l 254 78 l 96 731 l 208 731 l 346 163 l 346 163 l 685 731 l 806 731 l 182 -306 l 64 -306 z "},"ý":{"ha":774,"x_min":64,"x_max":806,"o":"m 64 -306 l 294 78 l 254 78 l 96 731 l 208 731 l 346 163 l 346 163 l 685 731 l 806 731 l 182 -306 l 64 -306 m 397 790 l 335 865 l 546 1043 l 546 1043 l 629 949 l 397 790 z "},"ŷ":{"ha":774,"x_min":64,"x_max":806,"o":"m 64 -306 l 294 78 l 254 78 l 96 731 l 208 731 l 346 163 l 346 163 l 685 731 l 806 731 l 182 -306 l 64 -306 m 272 794 l 289 886 l 499 999 l 669 886 l 653 794 l 483 911 l 272 794 z "},"ÿ":{"ha":774,"x_min":64,"x_max":806,"o":"m 64 -306 l 294 78 l 254 78 l 96 731 l 208 731 l 346 163 l 346 163 l 685 731 l 806 731 l 182 -306 l 64 -306 m 369 822 q 320 842 340 822 q 300 892 300 863 q 320 940 300 919 q 369 961 340 961 q 418 940 397 961 q 439 892 439 919 q 418 842 439 863 q 369 822 397 822 m 592 822 q 542 842 563 822 q 522 892 522 863 q 542 940 522 919 q 592 961 563 961 q 640 940 619 961 q 660 892 660 919 q 640 842 660 863 q 592 822 619 822 z "},"ỳ":{"ha":774,"x_min":64,"x_max":806,"o":"m 64 -306 l 294 78 l 254 78 l 96 731 l 208 731 l 346 163 l 346 163 l 685 731 l 806 731 l 182 -306 l 64 -306 m 567 790 l 335 949 l 418 1043 l 418 1043 l 629 865 l 567 790 z "},"ỹ":{"ha":774,"x_min":64,"x_max":806,"o":"m 64 -306 l 294 78 l 254 78 l 96 731 l 208 731 l 346 163 l 346 163 l 685 731 l 806 731 l 182 -306 l 64 -306 m 258 825 q 322 930 281 894 q 415 965 364 965 q 474 949 453 965 q 515 917 496 933 q 564 900 535 900 q 606 916 588 900 q 635 963 625 932 l 703 963 q 640 858 682 894 q 544 822 597 822 q 485 839 507 822 q 444 872 463 856 q 396 888 425 888 q 356 872 374 888 q 326 825 338 857 l 258 825 z "},"z":{"ha":663,"x_min":-12,"x_max":657,"o":"m -12 0 l 4 96 l 501 633 l 106 633 l 122 731 l 657 731 l 640 635 l 143 97 l 553 97 l 536 0 l -12 0 z "},"ź":{"ha":663,"x_min":-12,"x_max":657,"o":"m -12 0 l 4 96 l 501 633 l 106 633 l 122 731 l 657 731 l 640 635 l 143 97 l 553 97 l 536 0 l -12 0 m 342 790 l 279 865 l 490 1043 l 490 1043 l 574 949 l 342 790 z "},"ž":{"ha":663,"x_min":-12,"x_max":657,"o":"m -12 0 l 4 96 l 501 633 l 106 633 l 122 731 l 657 731 l 640 635 l 143 97 l 553 97 l 536 0 l -12 0 m 638 1024 l 621 932 l 411 819 l 240 932 l 257 1024 l 426 907 l 638 1024 z "},"ż":{"ha":663,"x_min":-12,"x_max":657,"o":"m -12 0 l 4 96 l 501 633 l 106 633 l 122 731 l 657 731 l 640 635 l 143 97 l 553 97 l 536 0 l -12 0 m 425 824 q 376 844 397 824 q 356 893 356 865 q 376 942 356 921 q 425 963 397 963 q 474 942 453 963 q 494 893 494 921 q 474 844 494 865 q 425 824 453 824 z "},"ﬁ":{"ha":769,"x_min":78,"x_max":786,"o":"m 79 0 l 190 632 l 78 632 l 96 731 l 208 731 l 221 808 q 263 917 233 875 q 340 980 293 960 q 451 1000 388 1000 l 521 1000 l 503 900 l 451 900 q 374 879 400 900 q 338 806 347 858 l 325 731 l 724 731 l 594 0 l 478 0 l 589 632 l 307 632 l 196 0 l 79 0 m 706 869 q 648 892 671 869 q 625 950 625 915 q 648 1006 625 985 q 706 1028 671 1028 q 763 1006 740 1028 q 786 950 786 985 q 763 892 786 915 q 706 869 740 869 z "},"ﬂ":{"ha":817,"x_min":78,"x_max":829,"o":"m 81 0 l 222 808 q 264 917 235 875 q 340 980 293 960 q 451 1000 388 1000 l 558 1000 l 542 900 l 454 900 q 375 878 401 900 q 339 804 349 857 l 197 0 l 81 0 m 78 632 l 94 731 l 519 731 l 503 632 l 78 632 m 538 0 l 713 1000 l 829 1000 l 654 0 l 538 0 z "},"ª":{"ha":679,"x_min":129,"x_max":693,"o":"m 329 482 q 215 514 263 482 q 149 603 168 546 q 142 735 129 661 q 195 866 156 810 q 292 953 235 922 q 415 985 349 985 q 528 955 486 985 q 583 881 569 925 l 610 976 l 693 976 l 607 490 l 524 490 l 531 586 l 531 586 q 451 511 504 540 q 329 482 399 482 m 364 556 q 450 577 410 556 q 519 638 490 599 q 557 733 547 678 q 534 865 572 818 q 428 911 496 911 q 344 890 385 911 q 276 830 304 869 q 238 735 247 790 q 261 603 224 650 q 364 556 299 556 z "},"º":{"ha":622,"x_min":122,"x_max":631,"o":"m 331 482 q 207 514 256 482 q 140 603 158 546 q 135 736 122 661 q 187 869 149 813 q 285 958 225 926 q 421 989 344 989 q 545 958 497 989 q 612 869 593 926 q 617 736 631 813 q 565 603 604 661 q 465 514 525 546 q 331 482 406 482 m 344 558 q 425 579 389 558 q 486 640 461 600 q 521 736 511 679 q 519 833 531 793 q 480 894 508 872 q 407 915 451 915 q 326 894 363 915 q 265 833 290 872 q 231 736 240 793 q 231 640 221 679 q 271 579 242 600 q 344 558 300 558 z "},"π":{"ha":897,"x_min":110,"x_max":897,"o":"m 110 0 l 222 639 l 113 639 l 128 731 l 897 731 l 882 639 l 772 639 l 660 0 l 543 0 l 656 639 l 339 639 l 226 0 l 110 0 z "},"⁄":{"ha":599,"x_min":-97,"x_max":757,"o":"m -97 0 l 640 972 l 757 972 l 19 0 l -97 0 z "},"½":{"ha":1188,"x_min":117,"x_max":1131,"o":"m 154 489 l 224 886 l 126 861 l 138 919 l 272 978 l 333 978 l 247 489 l 154 489 m 117 0 l 854 972 l 971 972 l 233 0 l 117 0 m 713 0 l 725 67 l 903 194 q 982 263 949 228 q 1024 344 1015 297 q 1013 406 1031 385 q 963 426 994 426 q 901 405 926 426 q 864 344 876 383 l 771 344 q 840 453 786 408 q 981 497 894 497 q 1067 477 1033 497 q 1116 424 1101 457 q 1124 349 1131 390 q 1072 249 1114 292 q 957 158 1031 207 l 829 75 l 1081 75 l 1067 0 l 713 0 z "},"¼":{"ha":1078,"x_min":117,"x_max":1019,"o":"m 154 489 l 224 886 l 126 861 l 138 919 l 272 978 l 333 978 l 247 489 l 154 489 m 117 0 l 854 972 l 971 972 l 233 0 l 117 0 m 835 0 l 851 92 l 613 92 l 625 161 l 910 483 l 1013 483 l 956 167 l 1019 167 l 1007 92 l 943 92 l 926 0 l 835 0 m 722 167 l 871 167 l 910 383 l 910 383 l 722 167 z "},"¾":{"ha":1169,"x_min":78,"x_max":1111,"o":"m 244 482 q 119 520 160 482 q 83 631 78 558 l 176 631 q 185 584 175 601 q 213 560 194 567 q 256 553 232 553 q 326 573 297 553 q 360 628 354 593 q 342 685 367 665 q 278 706 318 706 l 214 706 l 225 763 l 288 763 q 357 782 328 763 q 392 839 386 801 q 378 894 399 874 q 318 914 358 914 q 253 897 279 914 q 215 849 228 879 l 128 849 q 199 947 143 907 q 339 986 254 986 q 458 946 414 986 q 492 844 503 906 q 456 774 485 801 q 382 735 426 746 l 382 732 q 442 691 421 719 q 456 617 464 663 q 389 522 446 561 q 244 482 332 482 m 208 0 l 946 972 l 1063 972 l 325 0 l 208 0 m 926 0 l 943 92 l 704 92 l 717 161 l 1001 483 l 1104 483 l 1047 167 l 1111 167 l 1099 92 l 1035 92 l 1018 0 l 926 0 m 814 167 l 963 167 l 1001 383 l 1001 383 l 814 167 z "},"¹":{"ha":283,"x_min":126,"x_max":333,"o":"m 154 489 l 224 886 l 126 861 l 138 919 l 272 978 l 333 978 l 247 489 l 154 489 z "},"²":{"ha":458,"x_min":69,"x_max":488,"o":"m 69 489 l 82 556 l 260 683 q 339 751 306 717 q 381 833 372 786 q 369 894 388 874 q 319 915 351 915 q 258 894 283 915 q 221 833 233 872 l 128 833 q 197 942 143 897 q 338 986 251 986 q 424 966 390 986 q 473 913 458 946 q 481 838 488 879 q 429 738 471 781 q 314 647 388 696 l 186 564 l 438 564 l 424 489 l 69 489 z "},"³":{"ha":458,"x_min":78,"x_max":503,"o":"m 244 482 q 119 520 160 482 q 83 631 78 558 l 176 631 q 185 584 175 601 q 213 560 194 567 q 256 553 232 553 q 326 573 297 553 q 360 628 354 593 q 342 685 367 665 q 278 706 318 706 l 214 706 l 225 763 l 288 763 q 357 782 328 763 q 392 839 386 801 q 378 894 399 874 q 318 914 358 914 q 253 897 279 914 q 215 849 228 879 l 128 849 q 199 947 143 907 q 339 986 254 986 q 458 946 414 986 q 492 844 503 906 q 456 774 485 801 q 382 735 426 746 l 382 732 q 442 691 421 719 q 456 617 464 663 q 389 522 446 561 q 244 482 332 482 z "},"⁴":{"ha":446,"x_min":67,"x_max":474,"o":"m 289 489 l 306 581 l 67 581 l 79 650 l 364 972 l 467 972 l 410 656 l 474 656 l 461 581 l 397 581 l 381 489 l 289 489 m 176 656 l 325 656 l 364 872 l 364 872 l 176 656 z "}," ":{"ha":374,"x_min":0,"x_max":0,"o":""}," ":{"ha":374,"x_min":0,"x_max":0,"o":""},"\r":{"ha":833,"x_min":0,"x_max":0,"o":""},".":{"ha":292,"x_min":15,"x_max":174,"o":"m 94 -7 q 38 16 60 -7 q 15 72 15 39 q 38 128 15 106 q 94 151 60 151 q 151 128 129 151 q 174 72 174 106 q 151 16 174 39 q 94 -7 129 -7 z "},",":{"ha":268,"x_min":-79,"x_max":175,"o":"m -79 -171 l 54 136 l 175 136 l 1 -171 l -79 -171 z "},":":{"ha":296,"x_min":15,"x_max":279,"o":"m 94 -7 q 38 16 60 -7 q 15 72 15 39 q 38 128 15 106 q 94 151 60 151 q 151 128 129 151 q 174 72 174 106 q 151 16 174 39 q 94 -7 129 -7 m 200 589 q 143 612 165 589 q 121 668 121 635 q 143 724 121 701 q 200 747 165 747 q 257 724 235 747 q 279 668 279 701 q 257 612 279 635 q 200 589 235 589 z "},";":{"ha":310,"x_min":-53,"x_max":275,"o":"m 196 589 q 139 612 161 589 q 117 668 117 635 q 139 724 117 701 q 196 747 161 747 q 253 724 231 747 q 275 668 275 701 q 253 612 275 635 q 196 589 231 589 m -53 -171 l 81 136 l 201 136 l 28 -171 l -53 -171 z "},"…":{"ha":803,"x_min":15,"x_max":685,"o":"m 350 -7 q 293 16 315 -7 q 271 72 271 39 q 293 128 271 106 q 350 151 315 151 q 407 128 385 151 q 429 72 429 106 q 407 16 429 39 q 350 -7 385 -7 m 606 -7 q 549 16 571 -7 q 526 72 526 39 q 549 128 526 106 q 606 151 571 151 q 663 128 640 151 q 685 72 685 106 q 663 16 685 39 q 606 -7 640 -7 m 94 -7 q 38 16 60 -7 q 15 72 15 39 q 38 128 15 106 q 94 151 60 151 q 151 128 129 151 q 174 72 174 106 q 151 16 174 39 q 94 -7 129 -7 z "},"!":{"ha":369,"x_min":54,"x_max":350,"o":"m 113 269 l 224 972 l 350 972 l 211 269 l 113 269 m 133 -7 q 76 16 99 -7 q 54 72 54 39 q 76 128 54 106 q 133 151 99 151 q 190 128 168 151 q 213 72 213 106 q 190 16 213 39 q 133 -7 168 -7 z "},"¡":{"ha":369,"x_min":21,"x_max":317,"o":"m 258 471 l 147 -232 l 21 -232 l 160 471 l 258 471 m 238 747 q 294 724 272 747 q 317 668 317 701 q 294 612 317 635 q 238 589 272 589 q 181 612 203 589 q 158 668 158 635 q 181 724 158 701 q 238 747 203 747 z "},"?":{"ha":758,"x_min":115,"x_max":768,"o":"m 236 301 l 264 496 l 307 496 q 420 503 365 496 q 520 532 475 511 q 597 594 565 553 q 640 704 628 636 q 632 804 651 763 q 570 868 613 846 q 469 890 528 890 q 358 868 410 890 q 271 806 306 846 q 226 711 236 767 l 115 711 q 185 857 131 794 q 318 954 239 919 q 486 989 397 989 q 642 954 576 989 q 738 856 707 919 q 751 704 768 792 q 678 536 733 600 q 542 444 624 472 q 361 415 461 415 l 338 301 l 236 301 m 250 -7 q 193 16 215 -7 q 171 72 171 39 q 193 128 171 106 q 250 151 215 151 q 307 128 285 151 q 329 72 329 106 q 307 16 329 39 q 250 -7 285 -7 z "},"¿":{"ha":758,"x_min":-7,"x_max":644,"o":"m 524 439 l 496 244 l 453 244 q 340 237 394 244 q 240 208 285 229 q 163 146 194 188 q 119 36 132 104 q 128 -63 110 -21 q 190 -128 147 -106 q 290 -150 232 -150 q 402 -128 350 -150 q 489 -65 454 -106 q 533 29 524 -25 l 644 29 q 575 -117 629 -54 q 442 -214 521 -179 q 274 -249 364 -249 q 118 -214 183 -249 q 23 -115 53 -179 q 8 36 -7 -51 q 81 205 26 142 q 218 297 136 268 q 399 325 300 325 l 422 439 l 524 439 m 510 747 q 567 724 544 747 q 589 668 589 701 q 567 612 589 635 q 510 589 544 589 q 453 612 475 589 q 431 668 431 635 q 453 724 431 701 q 510 747 475 747 z "},"·":{"ha":292,"x_min":86,"x_max":244,"o":"m 165 396 q 108 418 131 396 q 86 475 86 440 q 108 532 86 510 q 165 554 131 554 q 222 532 200 554 q 244 475 244 510 q 222 418 244 440 q 165 396 200 396 z "},"•":{"ha":513,"x_min":107,"x_max":440,"o":"m 274 296 q 190 318 228 296 q 129 378 151 340 q 107 464 107 417 q 129 549 107 511 q 190 610 151 588 q 274 632 228 632 q 358 610 321 632 q 418 549 396 588 q 440 464 440 511 q 418 378 440 417 q 358 318 396 340 q 274 296 321 296 z "},"*":{"ha":674,"x_min":146,"x_max":669,"o":"m 318 500 l 372 713 l 179 592 l 146 676 l 351 761 l 175 844 l 235 926 l 390 806 l 408 1018 l 503 1018 l 443 806 l 639 926 l 669 846 l 463 760 l 640 675 l 579 593 l 426 713 l 410 500 l 318 500 z "},"#":{"ha":1079,"x_min":49,"x_max":1074,"o":"m 518 0 l 882 981 l 992 981 l 629 0 l 518 0 m 132 0 l 496 981 l 607 981 l 244 0 l 132 0 m 49 274 l 68 378 l 960 378 l 940 274 l 49 274 m 160 604 l 179 707 l 1074 707 l 1054 604 l 160 604 z "},"/":{"ha":547,"x_min":-47,"x_max":628,"o":"m -47 -132 l 513 1061 l 628 1061 l 68 -132 l -47 -132 z "},"\\":{"ha":967,"x_min":164,"x_max":839,"o":"m 839 -132 l 724 -132 l 164 1061 l 279 1061 l 839 -132 z "},"-":{"ha":715,"x_min":97,"x_max":664,"o":"m 97 354 l 114 453 l 664 453 l 647 354 l 97 354 z "},"–":{"ha":894,"x_min":103,"x_max":847,"o":"m 103 382 l 119 481 l 847 481 l 831 382 l 103 382 z "},"—":{"ha":1178,"x_min":103,"x_max":1131,"o":"m 103 382 l 119 481 l 1131 481 l 1114 382 l 103 382 z "},"_":{"ha":844,"x_min":6,"x_max":704,"o":"m 6 -160 l 25 -50 l 704 -50 l 685 -160 l 6 -160 z "},"(":{"ha":519,"x_min":60,"x_max":600,"o":"m 247 -201 q 138 -30 185 -129 q 76 193 92 69 q 85 463 60 317 q 171 732 111 608 q 312 956 231 856 q 481 1126 393 1056 l 600 1126 l 599 1115 q 418 929 500 1032 q 281 709 336 826 q 201 463 225 592 q 194 216 179 333 q 253 -4 208 99 q 368 -190 299 -107 l 367 -201 l 247 -201 z "},")":{"ha":521,"x_min":-46,"x_max":496,"o":"m 307 1126 q 417 956 371 1056 q 479 732 463 856 q 469 463 496 608 q 384 194 444 318 q 243 -30 324 69 q 74 -201 163 -129 l -46 -201 l -44 -190 q 137 -4 56 -107 q 274 217 218 99 q 353 463 331 335 q 361 709 376 592 q 301 929 346 826 q 186 1115 256 1032 l 188 1126 l 307 1126 z "},"{":{"ha":601,"x_min":115,"x_max":664,"o":"m 347 -211 q 204 -159 253 -211 q 174 -3 156 -107 q 197 83 182 44 q 226 162 211 121 q 249 256 240 203 q 249 326 256 294 q 210 381 242 358 q 115 411 179 403 l 132 506 q 238 535 199 514 q 295 590 276 557 q 321 661 314 622 q 329 755 331 715 q 327 833 328 794 q 335 918 326 871 q 382 1035 347 989 q 469 1103 417 1081 q 583 1126 521 1126 l 664 1126 l 646 1026 l 586 1026 q 520 1015 549 1026 q 474 977 492 1003 q 447 908 456 951 q 441 831 440 868 q 442 753 442 794 q 432 657 442 713 q 401 568 424 608 q 339 500 378 528 q 243 460 300 472 l 243 457 q 348 385 321 439 q 363 258 375 332 q 338 163 353 204 q 310 85 324 122 q 289 7 296 49 q 303 -84 278 -57 q 386 -111 329 -111 l 446 -111 l 428 -211 l 347 -211 z "},"}":{"ha":601,"x_min":-29,"x_max":519,"o":"m 288 1126 q 431 1074 382 1126 q 461 918 481 1022 q 438 833 453 871 q 410 754 424 794 q 386 660 396 714 q 387 590 379 622 q 425 535 394 557 q 519 504 456 513 l 503 410 q 397 381 436 403 q 340 326 358 358 q 314 254 321 293 q 306 161 306 201 q 308 83 307 121 q 300 -3 308 44 q 253 -119 288 -72 q 167 -188 218 -165 q 51 -211 115 -211 l -29 -211 l -11 -111 l 49 -111 q 115 -99 88 -111 q 162 -61 143 -87 q 188 7 181 -35 q 194 85 194 49 q 193 163 193 121 q 203 258 193 204 q 234 347 211 307 q 297 416 257 388 q 392 456 336 444 l 392 458 q 287 531 314 478 q 272 657 260 583 q 297 752 282 711 q 325 831 311 793 q 346 908 339 868 q 331 999 357 972 q 249 1026 306 1026 l 189 1026 l 207 1126 l 288 1126 z "},"[":{"ha":464,"x_min":6,"x_max":513,"o":"m 6 -210 l 242 1126 l 513 1126 l 496 1031 l 335 1031 l 133 -112 l 294 -112 l 276 -210 l 6 -210 z "},"]":{"ha":463,"x_min":-17,"x_max":490,"o":"m 490 1126 l 254 -210 l -17 -210 l 0 -114 l 161 -114 l 363 1029 l 201 1029 l 219 1126 l 490 1126 z "},"‚":{"ha":278,"x_min":-79,"x_max":189,"o":"m -79 -168 l 58 161 l 189 161 l 4 -168 l -79 -168 z "},"„":{"ha":506,"x_min":-79,"x_max":417,"o":"m -79 -168 l 58 161 l 189 161 l 4 -168 l -79 -168 m 150 -168 l 286 161 l 417 161 l 233 -168 l 150 -168 z "},"“":{"ha":531,"x_min":104,"x_max":592,"o":"m 321 624 l 508 972 l 592 972 l 451 624 l 321 624 m 104 624 l 290 972 l 374 972 l 235 624 l 104 624 z "},"”":{"ha":531,"x_min":90,"x_max":578,"o":"m 361 972 l 174 624 l 90 624 l 231 972 l 361 972 m 578 972 l 392 624 l 308 624 l 447 972 l 578 972 z "},"‘":{"ha":313,"x_min":104,"x_max":374,"o":"m 104 624 l 290 972 l 374 972 l 235 624 l 104 624 z "},"’":{"ha":313,"x_min":90,"x_max":360,"o":"m 360 972 l 174 624 l 90 624 l 229 972 l 360 972 z "},"«":{"ha":629,"x_min":69,"x_max":610,"o":"m 408 167 l 317 410 l 494 653 l 610 653 l 428 410 l 524 167 l 408 167 m 161 167 l 69 410 l 247 653 l 363 653 l 181 410 l 276 167 l 161 167 z "},"»":{"ha":628,"x_min":35,"x_max":575,"o":"m 236 653 l 328 410 l 150 167 l 35 167 l 217 410 l 121 653 l 236 653 m 483 653 l 575 410 l 397 167 l 282 167 l 464 410 l 368 653 l 483 653 z "},"‹":{"ha":382,"x_min":69,"x_max":363,"o":"m 161 167 l 69 410 l 247 653 l 363 653 l 181 410 l 276 167 l 161 167 z "},"›":{"ha":381,"x_min":35,"x_max":328,"o":"m 236 653 l 328 410 l 150 167 l 35 167 l 217 410 l 121 653 l 236 653 z "},"\"":{"ha":474,"x_min":121,"x_max":539,"o":"m 332 736 l 425 1049 l 539 1049 l 411 736 l 332 736 m 121 736 l 215 1049 l 329 1049 l 203 736 l 121 736 z "},"'":{"ha":264,"x_min":121,"x_max":329,"o":"m 121 736 l 214 1049 l 329 1049 l 201 736 l 121 736 z "},"ƒ":{"ha":461,"x_min":-172,"x_max":583,"o":"m -172 -265 l -147 -168 l -117 -168 q -50 -148 -75 -168 q -10 -75 -25 -128 l 244 828 q 363 1008 279 951 q 583 1064 446 1064 l 558 965 q 428 933 475 965 q 361 828 382 901 l 107 -75 q 56 -184 89 -142 q -24 -246 24 -226 q -137 -265 -72 -265 l -172 -265 m 99 664 l 124 761 l 510 761 l 485 664 l 99 664 z "},"@":{"ha":1364,"x_min":99,"x_max":1244,"o":"m 579 -276 q 330 -217 439 -276 q 160 -46 221 -157 q 99 218 99 65 q 142 480 99 358 q 269 694 186 601 q 470 838 351 786 q 740 889 589 889 q 1001 829 888 889 q 1179 664 1114 769 q 1244 419 1244 558 q 1226 263 1244 339 q 1172 125 1208 186 q 1084 28 1136 64 q 964 -8 1032 -8 q 845 43 883 -8 q 817 175 807 94 l 819 222 l 844 179 q 738 43 811 94 q 581 -8 665 -8 q 427 56 483 -8 q 371 235 371 121 q 393 377 371 308 q 457 500 415 446 q 556 586 499 554 q 686 618 614 618 q 816 574 768 618 q 874 440 864 529 l 844 422 l 878 603 l 975 603 l 906 203 q 913 109 896 146 q 981 72 929 72 q 1054 103 1022 72 q 1107 186 1086 135 q 1139 297 1128 238 q 1150 414 1150 357 q 1097 625 1150 538 q 948 760 1043 713 q 728 807 853 807 q 502 762 601 807 q 334 637 403 717 q 229 452 265 557 q 193 228 193 347 q 242 -2 193 92 q 384 -144 292 -96 q 603 -193 476 -193 q 721 -181 663 -193 q 831 -146 779 -169 l 851 -225 q 721 -264 789 -251 q 579 -276 653 -276 m 614 81 q 716 113 669 81 q 794 201 763 144 q 832 333 825 258 q 824 432 838 388 q 776 503 810 476 q 690 529 743 529 q 599 506 639 529 q 532 441 558 482 q 492 351 506 400 q 478 249 478 301 q 512 126 478 172 q 614 81 546 81 z "},"&":{"ha":1024,"x_min":39,"x_max":956,"o":"m 740 0 l 335 522 q 264 644 283 590 q 256 763 244 697 q 307 878 267 826 q 413 959 347 929 q 563 989 478 989 q 697 960 644 989 q 772 881 749 932 q 785 764 794 831 l 668 764 q 642 861 676 828 q 546 894 607 894 q 426 856 472 894 q 371 764 381 817 q 379 673 364 718 q 436 575 394 628 l 888 0 l 740 0 m 313 -17 q 155 20 218 -17 q 65 124 92 57 q 54 282 39 192 q 103 409 67 351 q 202 510 140 467 q 349 581 264 554 l 388 593 l 433 517 l 388 501 q 237 410 290 469 q 171 275 183 350 q 176 176 161 217 q 229 113 192 135 q 321 92 267 92 q 477 122 408 92 q 617 229 546 153 q 692 316 653 267 q 775 425 731 365 l 832 503 l 956 503 l 869 383 q 779 264 822 318 q 692 165 736 210 q 511 28 603 72 q 313 -17 419 -17 z "},"¶":{"ha":828,"x_min":111,"x_max":828,"o":"m 313 -139 l 410 410 l 396 410 q 234 446 297 410 q 141 540 171 482 q 111 661 111 597 q 160 831 111 763 q 295 936 208 900 q 494 972 382 972 l 828 972 l 632 -139 l 529 -139 l 710 881 l 594 881 l 415 -139 l 313 -139 z "},"§":{"ha":822,"x_min":13,"x_max":799,"o":"m 286 -322 q 131 -287 194 -322 q 40 -192 68 -253 q 25 -53 13 -131 l 147 -53 q 154 -132 140 -93 q 206 -197 168 -171 q 307 -222 243 -222 q 404 -204 360 -222 q 478 -151 449 -186 q 515 -67 507 -115 q 508 10 524 -19 q 459 58 493 39 q 376 94 425 78 q 268 132 326 111 q 153 190 203 156 q 83 276 104 224 q 75 410 61 329 q 112 508 83 461 q 185 594 140 556 q 167 652 171 621 q 169 722 164 683 q 231 861 183 801 q 354 955 279 921 q 524 989 429 989 q 679 954 617 989 q 770 859 742 919 q 785 719 799 799 l 663 719 q 656 799 669 760 q 604 863 642 838 q 503 889 567 889 q 406 872 450 890 q 332 818 361 853 q 294 733 303 783 q 301 657 286 686 q 351 608 317 628 q 434 572 385 589 q 542 535 483 556 q 657 477 608 511 q 728 390 706 443 q 735 257 750 338 q 698 158 726 206 q 624 72 669 110 q 642 15 638 46 q 639 -56 646 -17 q 578 -194 626 -133 q 456 -288 531 -254 q 286 -322 381 -322 m 553 144 q 592 192 578 165 q 613 250 607 219 q 605 342 622 307 q 550 398 588 376 q 463 437 513 419 q 356 475 413 454 q 301 498 325 486 q 257 522 276 510 q 217 475 232 501 q 197 417 203 449 q 199 342 189 372 q 233 290 210 311 q 292 252 257 268 q 368 222 326 236 q 454 192 410 208 q 508 169 483 182 q 553 144 533 157 z "},"©":{"ha":1111,"x_min":86,"x_max":1068,"o":"m 492 -6 q 276 47 367 -6 q 135 191 185 100 q 86 399 86 282 q 130 625 86 519 q 253 810 174 731 q 437 933 332 889 q 664 978 542 978 q 880 926 789 978 q 1019 783 971 874 q 1068 576 1068 693 q 1024 350 1068 456 q 902 165 981 244 q 719 40 824 85 q 492 -6 614 -6 m 519 165 q 392 195 449 165 q 302 281 335 225 q 269 417 269 338 q 297 567 269 496 q 373 692 324 638 q 489 778 422 747 q 635 810 556 810 q 806 755 738 810 q 881 597 874 700 l 775 597 q 724 692 767 660 q 619 725 682 725 q 489 682 544 725 q 403 571 433 639 q 374 425 374 503 q 419 293 374 338 q 535 249 465 249 q 653 281 600 249 q 736 375 706 314 l 842 375 q 764 264 814 311 q 651 191 714 217 q 519 165 589 165 m 500 44 q 707 85 613 44 q 869 197 801 125 q 975 365 938 269 q 1013 572 1013 461 q 971 757 1013 676 q 849 883 929 838 q 656 929 769 929 q 448 889 542 929 q 285 777 354 849 q 179 610 217 706 q 142 403 142 514 q 184 219 142 300 q 306 91 226 138 q 500 44 386 44 z "},"®":{"ha":700,"x_min":118,"x_max":703,"o":"m 360 426 q 223 463 279 426 q 142 563 167 499 q 132 707 118 626 q 193 852 146 789 q 310 952 240 915 q 460 989 379 989 q 597 952 542 989 q 678 852 653 915 q 688 707 703 789 q 626 563 674 626 q 510 463 579 499 q 360 426 442 426 m 442 560 l 379 697 l 451 697 l 517 561 l 442 560 m 369 476 q 493 506 438 476 q 586 588 549 536 q 635 707 624 640 q 603 873 653 808 q 450 938 553 938 q 328 908 383 938 q 235 826 272 878 q 186 707 199 775 q 218 541 168 606 q 369 476 268 476 m 274 560 l 326 858 l 458 858 q 528 834 504 858 q 544 767 551 810 q 505 701 538 725 q 428 676 472 676 l 360 676 l 340 560 l 274 560 m 369 731 l 429 731 q 460 739 447 731 q 476 765 474 747 q 469 790 479 782 q 442 799 460 799 l 382 799 l 369 731 z "},"™":{"ha":1072,"x_min":132,"x_max":1110,"o":"m 132 899 l 144 972 l 485 972 l 472 899 l 349 899 l 275 483 l 182 483 l 256 899 l 132 899 m 474 483 l 560 972 l 678 972 l 768 593 l 999 972 l 1110 972 l 1024 483 l 938 483 l 1001 846 l 779 483 l 713 483 l 622 850 l 557 483 l 474 483 z "},"°":{"ha":483,"x_min":135,"x_max":501,"o":"m 318 617 q 226 640 268 617 q 160 704 185 663 q 135 801 135 746 q 160 901 135 860 q 228 966 186 943 q 319 989 269 989 q 410 966 369 989 q 476 901 451 943 q 501 801 501 860 q 476 704 501 746 q 410 640 451 663 q 318 617 368 617 m 318 703 q 381 728 351 703 q 411 803 411 753 q 382 878 411 853 q 319 903 353 903 q 256 878 285 903 q 226 803 226 853 q 255 728 226 753 q 318 703 283 703 z "},"|":{"ha":332,"x_min":19,"x_max":336,"o":"m 19 -139 l 219 1000 l 336 1000 l 136 -139 l 19 -139 z "},"¦":{"ha":332,"x_min":19,"x_max":336,"o":"m 139 538 l 219 1000 l 336 1000 l 256 538 l 139 538 m 19 -139 l 100 324 l 217 324 l 136 -139 l 19 -139 z "},"†":{"ha":738,"x_min":110,"x_max":749,"o":"m 182 -360 l 376 678 l 110 668 l 126 761 l 389 750 l 438 1083 l 553 1083 l 482 750 l 749 761 l 732 668 l 469 678 l 297 -360 l 182 -360 z "},"ℓ":{"ha":332,"x_min":19,"x_max":336,"o":"m 19 -139 l 219 1000 l 336 1000 l 136 -139 l 19 -139 z "},"‡":{"ha":740,"x_min":-12,"x_max":751,"o":"m 183 -360 l 256 -26 l -12 -36 l 4 57 l 268 46 l 379 678 l 113 668 l 129 761 l 392 750 l 439 1083 l 554 1083 l 483 750 l 751 761 l 735 668 l 471 678 l 360 46 l 626 57 l 610 -36 l 347 -26 l 299 -360 l 183 -360 z "},"℮":{"ha":1060,"x_min":57,"x_max":1039,"o":"m 476 -10 q 233 50 331 -10 q 97 215 136 110 q 83 458 57 321 q 149 658 103 565 q 267 822 196 751 q 432 931 339 892 q 636 971 525 971 q 817 938 738 971 q 948 846 896 906 q 1019 703 1000 786 q 1021 521 1039 621 l 1006 436 l 261 436 l 218 190 q 326 100 263 131 q 490 69 390 69 q 624 91 561 69 q 750 153 688 113 q 878 249 813 193 l 922 190 q 708 44 821 97 q 476 -10 596 -10 m 275 522 l 832 522 l 875 768 q 778 860 842 828 q 622 892 714 892 q 456 858 535 892 q 315 753 378 825 l 275 522 z "},"¢":{"ha":801,"x_min":50,"x_max":754,"o":"m 261 -144 l 297 56 l 410 56 l 374 -144 l 261 -144 m 406 675 l 442 875 l 554 875 l 518 675 l 406 675 m 347 -17 q 178 31 247 -17 q 79 165 108 79 q 69 365 50 251 q 122 522 85 451 q 215 642 160 592 q 338 720 271 693 q 481 747 406 747 q 678 681 606 747 q 754 501 750 614 l 635 501 q 584 609 632 571 q 463 647 536 647 q 342 615 399 647 q 246 521 286 583 q 189 365 206 458 q 183 242 176 296 q 215 153 190 189 q 276 100 239 118 q 363 82 314 82 q 456 99 413 82 q 535 150 500 117 q 588 229 569 183 l 707 229 q 626 101 679 157 q 501 15 572 46 q 347 -17 431 -17 z "},"¤":{"ha":742,"x_min":58,"x_max":701,"o":"m 336 168 q 216 198 265 168 q 146 283 167 228 q 138 413 125 338 q 192 542 151 488 q 294 627 233 597 q 424 657 354 657 q 541 627 492 657 q 613 542 590 597 q 622 413 636 488 q 567 283 610 338 q 465 198 525 228 q 336 168 404 168 m 106 124 l 58 183 l 193 299 l 244 242 l 106 124 m 551 124 l 461 235 l 529 294 l 621 183 l 551 124 m 351 258 q 417 274 383 258 q 476 324 450 290 q 513 413 503 358 q 508 502 522 468 q 467 552 494 536 q 407 568 439 568 q 340 552 374 568 q 282 502 307 536 q 247 413 257 468 q 250 324 238 358 q 290 274 263 290 q 351 258 318 258 m 233 532 l 139 644 l 208 703 l 301 589 l 233 532 m 563 526 l 521 588 l 654 703 l 701 644 l 563 526 z "},"$":{"ha":815,"x_min":39,"x_max":792,"o":"m 261 -121 l 475 1099 l 571 1099 l 357 -121 l 261 -121 m 351 -17 q 172 22 244 -17 q 69 131 100 61 q 54 292 39 200 l 176 292 q 185 187 167 235 q 249 110 203 139 q 369 82 294 82 q 484 103 435 82 q 565 163 533 125 q 608 247 597 200 q 612 323 619 292 q 582 377 604 354 q 526 417 560 400 q 451 448 493 433 q 364 478 410 463 q 199 573 250 517 q 164 722 147 629 q 225 861 178 801 q 347 955 272 921 q 517 989 422 989 q 672 954 610 989 q 763 859 735 919 q 778 719 792 799 l 656 719 q 649 799 663 760 q 597 863 635 838 q 494 889 558 889 q 398 872 442 890 q 325 818 354 853 q 286 733 296 783 q 289 669 281 696 q 319 625 297 643 q 372 592 340 607 q 445 564 404 578 q 533 533 486 550 q 624 492 583 515 q 691 438 664 469 q 728 360 718 406 q 728 254 739 315 q 667 123 715 185 q 540 22 619 61 q 351 -17 461 -17 z "},"€":{"ha":1081,"x_min":26,"x_max":1068,"o":"m 26 336 l 42 424 l 642 424 l 626 336 l 26 336 m 64 550 l 79 636 l 679 636 l 664 550 l 64 550 m 544 -17 q 317 47 407 -17 q 193 223 228 110 q 185 486 158 336 q 251 690 204 599 q 369 849 299 782 q 529 953 440 917 q 722 989 618 989 q 976 910 888 989 q 1068 686 1065 831 l 942 686 q 877 831 935 776 q 704 886 819 886 q 564 859 629 886 q 446 780 499 832 q 357 653 393 728 q 304 486 321 579 q 307 272 282 361 q 397 134 332 182 q 563 86 463 86 q 755 140 678 86 q 871 282 832 193 l 997 282 q 897 122 961 189 q 744 19 833 54 q 544 -17 656 -17 z "},"₺":{"ha":1131,"x_min":33,"x_max":1043,"o":"m 435 -17 q 327 -10 383 -17 q 213 11 271 -3 l 382 972 l 501 972 l 347 103 q 401 94 375 97 q 454 92 428 92 q 635 124 557 92 q 771 219 714 157 q 865 374 828 282 q 924 582 903 465 l 1043 582 q 933 251 1008 385 q 735 51 857 118 q 435 -17 613 -17 m 33 286 l 47 369 l 672 517 l 657 433 l 33 286 m 71 515 l 85 596 l 715 749 l 701 667 l 71 515 z "},"₽":{"ha":868,"x_min":24,"x_max":886,"o":"m 24 175 l 39 268 l 160 268 l 185 408 l 64 408 l 81 504 l 201 504 l 285 972 l 590 972 q 771 935 704 972 q 862 835 838 899 q 872 689 886 771 q 813 547 858 611 q 687 446 767 483 q 490 408 607 408 l 301 408 l 276 268 l 586 268 l 571 175 l 261 175 l 229 0 l 113 0 l 144 175 l 24 175 m 318 504 l 506 504 q 680 554 621 504 q 754 689 739 604 q 728 830 769 779 q 572 881 688 881 l 385 881 l 318 504 z "},"₨":{"ha":1472,"x_min":43,"x_max":1417,"o":"m 43 0 l 215 972 l 529 972 q 708 934 643 972 q 797 832 774 896 q 807 688 821 768 q 746 544 793 610 q 618 440 699 479 q 422 401 538 401 l 231 401 l 160 0 l 43 0 m 564 0 l 426 435 l 550 435 l 694 0 l 564 0 m 247 493 l 436 493 q 609 547 547 493 q 685 686 671 601 q 658 823 700 772 q 501 874 617 874 l 314 874 l 247 493 m 1061 -17 q 903 13 963 -17 q 819 97 843 43 q 801 221 796 150 l 921 221 q 934 152 919 183 q 984 101 949 121 q 1079 82 1019 82 q 1163 97 1126 82 q 1221 138 1199 111 q 1249 199 1243 164 q 1241 270 1257 244 q 1189 309 1225 296 q 1097 329 1153 322 q 993 353 1038 338 q 921 393 949 368 q 883 456 893 418 q 882 544 872 493 q 933 650 893 604 q 1035 722 972 696 q 1179 747 1099 747 q 1357 693 1297 747 q 1411 539 1417 639 l 1296 539 q 1263 619 1299 590 q 1161 649 1228 649 q 1049 622 1090 649 q 1001 553 1008 596 q 1008 495 996 521 q 1055 452 1019 469 q 1154 426 1090 435 q 1258 406 1214 419 q 1331 367 1303 392 q 1370 304 1360 343 q 1369 208 1381 265 q 1315 86 1357 136 q 1207 10 1272 36 q 1061 -17 1142 -17 z "},"₹":{"ha":888,"x_min":94,"x_max":933,"o":"m 346 -17 q 151 60 207 -17 q 118 275 94 138 l 154 475 q 369 484 288 475 q 494 520 450 493 q 560 601 539 547 q 599 746 582 656 l 629 922 l 739 922 l 708 746 q 660 578 690 646 q 576 469 629 510 q 444 410 524 428 q 249 393 364 393 l 228 271 q 242 128 213 182 q 364 75 271 75 q 499 125 450 75 q 563 263 547 175 l 671 263 q 560 54 644 125 q 346 -17 476 -17 m 122 644 l 138 728 l 890 728 l 875 644 l 122 644 m 165 888 l 181 972 l 933 972 l 918 888 l 165 888 z "},"£":{"ha":840,"x_min":60,"x_max":819,"o":"m 60 0 l 74 75 q 147 150 114 114 q 201 230 179 186 q 235 333 224 274 q 238 423 243 381 q 223 508 232 465 q 210 598 214 550 q 215 704 206 646 q 278 854 231 790 q 400 953 326 918 q 561 989 474 989 q 685 967 635 989 q 767 905 736 944 q 808 814 797 865 q 813 704 819 763 l 706 704 q 697 801 713 758 q 642 867 681 843 q 543 892 604 892 q 449 872 494 892 q 370 809 403 851 q 325 699 338 767 q 322 605 317 650 q 335 515 326 560 q 348 426 343 471 q 344 336 353 382 q 297 208 332 268 q 200 96 261 149 l 707 96 l 690 0 l 60 0 m 78 431 l 92 513 l 601 513 l 588 431 l 78 431 z "},"¥":{"ha":838,"x_min":63,"x_max":900,"o":"m 63 250 l 78 335 l 750 335 l 735 250 l 63 250 m 397 468 l 101 468 l 115 551 l 397 551 l 397 468 m 497 468 l 525 551 l 788 551 l 774 468 l 497 468 m 296 0 l 361 369 l 151 972 l 279 972 l 435 481 l 435 481 l 765 972 l 900 972 l 478 369 l 413 0 l 296 0 z "},"∕":{"ha":544,"x_min":-47,"x_max":628,"o":"m -47 -132 l 513 1061 l 628 1061 l 68 -132 l -47 -132 z "},"+":{"ha":764,"x_min":63,"x_max":714,"o":"m 282 100 l 388 706 l 493 706 l 388 100 l 282 100 m 63 354 l 79 453 l 714 453 l 697 354 l 63 354 z "},"−":{"ha":764,"x_min":106,"x_max":672,"o":"m 106 354 l 122 453 l 672 453 l 656 354 l 106 354 z "},"×":{"ha":764,"x_min":99,"x_max":678,"o":"m 156 147 l 99 217 l 318 404 l 174 582 l 256 651 l 401 474 l 621 661 l 678 593 l 458 404 l 606 228 l 522 158 l 375 335 l 156 147 z "},"÷":{"ha":764,"x_min":104,"x_max":674,"o":"m 104 354 l 121 453 l 674 453 l 657 354 l 104 354 m 356 124 q 299 147 321 124 q 276 203 276 169 q 299 259 276 236 q 356 282 321 282 q 413 259 390 282 q 435 203 435 236 q 413 147 435 169 q 356 124 390 124 m 426 526 q 369 549 392 526 q 347 606 347 572 q 369 662 347 639 q 426 685 392 685 q 483 662 461 685 q 506 606 506 639 q 483 549 506 572 q 426 526 461 526 z "},"=":{"ha":764,"x_min":76,"x_max":700,"o":"m 128 499 l 146 599 l 700 599 l 682 499 l 128 499 m 76 210 l 94 308 l 649 308 l 631 210 l 76 210 z "},"≠":{"ha":764,"x_min":76,"x_max":700,"o":"m 118 117 l 522 690 l 628 690 l 222 117 l 118 117 m 128 499 l 146 599 l 700 599 l 682 499 l 128 499 m 76 210 l 94 308 l 649 308 l 631 210 l 76 210 z "},">":{"ha":764,"x_min":94,"x_max":654,"o":"m 94 167 l 506 492 l 222 807 l 372 807 l 654 486 l 654 486 l 258 167 l 94 167 z "},"<":{"ha":764,"x_min":153,"x_max":713,"o":"m 713 807 l 301 482 l 585 167 l 435 167 l 153 488 l 153 488 l 549 807 l 713 807 z "},"≥":{"ha":764,"x_min":83,"x_max":674,"o":"m 133 296 l 518 564 l 228 831 l 379 831 l 674 563 l 674 563 l 285 296 l 133 296 m 83 124 l 99 213 l 583 213 l 568 124 l 83 124 z "},"≤":{"ha":764,"x_min":110,"x_max":700,"o":"m 454 296 l 160 564 l 160 564 l 549 831 l 700 831 l 315 563 l 606 296 l 454 296 m 110 124 l 125 213 l 610 213 l 594 124 l 110 124 z "},"±":{"ha":764,"x_min":10,"x_max":751,"o":"m 10 124 l 25 213 l 685 213 l 669 124 l 10 124 m 318 297 l 404 788 l 508 788 l 422 297 l 318 297 m 75 493 l 92 592 l 751 592 l 735 493 l 75 493 z "},"≈":{"ha":764,"x_min":44,"x_max":733,"o":"m 460 153 q 392 167 421 153 q 341 202 364 182 q 294 237 318 222 q 240 251 271 251 q 176 224 201 251 q 136 157 150 197 l 44 157 q 97 267 65 224 q 172 333 129 311 q 265 356 215 356 q 334 341 306 356 q 386 307 363 326 q 433 273 410 288 q 486 258 457 258 q 552 285 526 258 q 590 353 578 311 l 682 353 q 630 242 663 286 q 554 175 597 197 q 460 153 511 153 m 511 440 q 444 455 472 440 q 392 490 415 469 q 346 524 369 510 q 292 539 322 539 q 227 512 253 539 q 188 444 201 485 l 96 444 q 149 555 117 511 q 224 621 181 599 q 317 643 267 643 q 385 628 357 643 q 438 594 414 614 q 485 560 461 575 q 538 546 508 546 q 603 572 578 546 q 642 640 629 599 l 733 640 q 681 529 714 574 q 606 463 649 485 q 511 440 563 440 z "},"~":{"ha":764,"x_min":78,"x_max":715,"o":"m 493 343 q 426 358 454 343 q 374 392 397 372 q 328 427 351 413 q 274 442 304 442 q 209 415 235 442 q 169 347 183 388 l 78 347 q 131 458 99 414 q 206 524 163 501 q 299 546 249 546 q 367 531 339 546 q 419 497 396 517 q 467 463 443 478 q 519 449 490 449 q 585 475 560 449 q 624 543 611 501 l 715 543 q 663 432 696 476 q 588 365 631 388 q 493 343 544 343 z "},"¬":{"ha":764,"x_min":13,"x_max":819,"o":"m 653 310 l 688 507 l 13 507 l 28 600 l 819 600 l 769 310 l 653 310 z "},"^":{"ha":874,"x_min":68,"x_max":826,"o":"m 68 422 l 490 972 l 597 972 l 826 422 l 708 422 l 522 850 l 522 850 l 186 422 l 68 422 z "},"∞":{"ha":935,"x_min":40,"x_max":907,"o":"m 217 196 q 87 249 133 196 q 57 397 40 301 q 103 508 68 463 q 187 578 138 554 q 290 603 236 603 q 385 579 347 603 q 450 519 424 556 q 497 441 476 482 q 540 363 518 400 q 590 303 561 326 q 661 279 619 279 q 751 312 714 279 q 797 400 788 344 q 783 487 807 456 q 708 518 758 518 q 591 473 647 518 q 497 358 535 428 l 450 399 q 516 497 475 450 q 611 574 557 543 q 729 603 665 604 q 860 550 814 603 q 890 401 907 497 q 844 290 879 336 q 758 220 808 244 q 651 196 708 196 q 558 219 596 196 q 492 280 519 243 q 443 358 465 317 q 399 435 421 399 q 349 496 376 472 q 279 519 321 519 q 196 487 232 519 q 150 397 160 454 q 165 312 140 343 q 239 281 189 281 q 356 326 300 281 q 449 440 413 372 l 497 400 q 431 303 472 350 q 336 226 390 256 q 217 196 282 196 z "},"∫":{"ha":360,"x_min":-164,"x_max":585,"o":"m -164 -265 l -136 -168 l -107 -168 q -48 -148 -68 -168 q -14 -75 -28 -128 l 319 1086 q 371 1194 339 1153 q 449 1253 403 1235 q 554 1271 496 1271 l 585 1271 l 557 1172 l 531 1172 q 474 1154 496 1172 q 436 1086 451 1136 l 103 -75 q 53 -184 85 -142 q -24 -246 21 -226 q -131 -265 -69 -265 l -164 -265 z "},"Ω":{"ha":1103,"x_min":19,"x_max":1075,"o":"m 19 0 l 36 92 l 308 92 l 282 68 q 174 149 219 93 q 103 278 128 206 q 79 425 79 350 q 125 647 79 544 q 252 826 171 750 q 439 946 333 903 q 664 989 544 989 q 829 960 754 989 q 960 879 904 932 q 1045 753 1015 826 q 1075 590 1075 681 q 1031 371 1075 476 q 908 185 988 265 q 721 68 829 106 l 706 92 l 978 92 l 960 0 l 578 0 l 596 96 q 742 161 676 115 q 856 272 808 207 q 930 414 904 336 q 956 572 956 492 q 933 701 956 643 q 869 799 911 758 q 772 862 828 840 q 646 883 715 883 q 467 848 549 883 q 324 750 385 813 q 231 604 264 688 q 197 426 197 521 q 225 278 197 347 q 303 161 253 208 q 419 96 353 114 l 403 0 l 19 0 z "},"∆":{"ha":968,"x_min":-21,"x_max":878,"o":"m -21 0 l -4 90 l 543 972 l 640 972 l 878 90 l 861 0 l -21 0 m 114 90 l 760 90 l 568 839 l 114 90 z "},"∏":{"ha":1007,"x_min":97,"x_max":1063,"o":"m 97 0 l 253 881 l 142 881 l 158 972 l 1063 972 l 1046 881 l 936 881 l 781 0 l 664 0 l 819 881 l 369 881 l 214 0 l 97 0 z "},"∑":{"ha":625,"x_min":-15,"x_max":710,"o":"m -15 -68 l 8 65 l 447 463 l 144 839 l 168 972 l 710 972 l 693 882 l 247 882 l 553 500 l 538 410 l 99 22 l 542 22 l 525 -68 l -15 -68 z "},"√":{"ha":992,"x_min":4,"x_max":1200,"o":"m 4 249 l 213 358 l 321 82 l 1117 1201 l 1200 1201 l 301 -61 l 244 -61 l 128 238 l 29 188 l 4 249 z "},"µ":{"ha":815,"x_min":-19,"x_max":774,"o":"m -19 -306 l 156 689 l 272 689 l 204 299 q 220 138 185 192 q 343 83 256 83 q 455 113 403 83 q 544 197 507 142 q 594 332 581 253 l 657 689 l 774 689 l 653 0 l 547 0 l 561 122 l 561 122 q 447 21 517 58 q 299 -17 378 -17 q 219 -6 256 -17 q 156 28 182 6 l 97 -306 l -19 -306 z "},"∂":{"ha":788,"x_min":25,"x_max":796,"o":"m 258 -14 q 129 21 185 -14 q 49 126 74 56 q 44 307 25 197 q 102 483 61 399 q 204 632 143 567 q 340 735 265 697 q 496 774 414 774 q 576 760 540 774 q 634 712 611 746 q 661 617 657 678 q 668 791 676 714 q 619 913 660 868 q 494 957 578 957 q 440 952 468 957 q 381 939 413 947 l 393 1008 q 463 1024 431 1019 q 528 1028 496 1028 q 693 976 631 1028 q 776 822 756 924 q 769 574 796 721 q 696 329 746 438 q 577 144 646 221 q 427 26 508 67 q 258 -14 346 -14 m 288 86 q 399 116 346 86 q 497 197 453 146 q 571 314 540 247 q 614 453 601 381 q 598 621 633 567 q 485 675 563 675 q 376 647 428 675 q 281 569 324 619 q 207 451 238 518 q 163 307 176 385 q 162 182 149 231 q 208 110 175 133 q 288 86 242 86 z "},"%":{"ha":1144,"x_min":118,"x_max":1069,"o":"m 163 0 l 900 972 l 1017 972 l 279 0 l 163 0 m 794 -17 q 687 12 732 -17 q 622 93 642 40 q 614 217 601 146 q 665 341 626 289 q 760 422 704 393 q 878 450 815 450 q 986 422 942 450 q 1050 341 1031 393 q 1057 217 1069 289 q 1006 93 1044 146 q 913 12 968 40 q 794 -17 857 -17 m 311 521 q 203 549 249 521 q 138 631 158 578 q 131 754 118 683 q 183 878 143 826 q 278 959 222 931 q 396 988 333 988 q 503 959 458 988 q 568 878 549 931 q 575 754 588 826 q 524 631 563 683 q 429 549 485 578 q 311 521 374 521 m 810 74 q 874 90 843 74 q 927 138 904 106 q 958 217 950 169 q 941 326 971 290 q 861 361 911 361 q 798 345 829 361 q 744 297 767 329 q 713 217 721 265 q 731 109 700 144 q 810 74 763 74 m 328 611 q 392 627 361 611 q 444 675 422 643 q 475 754 467 707 q 458 864 488 828 q 381 900 429 900 q 316 884 347 900 q 261 835 285 868 q 229 754 238 803 q 248 647 217 682 q 328 611 279 611 z "},"‰":{"ha":1656,"x_min":118,"x_max":1581,"o":"m 1304 -17 q 1197 12 1242 -17 q 1131 93 1151 40 q 1124 217 1111 146 q 1176 341 1136 289 q 1271 422 1215 393 q 1389 450 1326 450 q 1496 422 1451 450 q 1560 341 1540 393 q 1568 217 1581 289 q 1517 93 1556 146 q 1422 12 1478 40 q 1304 -17 1367 -17 m 1319 71 q 1384 88 1353 71 q 1439 137 1415 104 q 1471 217 1463 169 q 1454 327 1485 290 q 1374 364 1424 364 q 1308 348 1340 364 q 1253 299 1276 332 q 1221 217 1231 267 q 1240 108 1208 144 q 1319 71 1271 71 m 163 0 l 900 972 l 1017 972 l 279 0 l 163 0 m 794 -17 q 687 12 732 -17 q 622 93 642 40 q 614 217 601 146 q 665 341 626 289 q 760 422 704 393 q 878 450 815 450 q 986 422 942 450 q 1050 341 1031 393 q 1057 217 1069 289 q 1006 93 1044 146 q 913 12 968 40 q 794 -17 857 -17 m 311 521 q 203 549 249 521 q 138 631 158 578 q 131 754 118 683 q 183 878 143 826 q 278 959 222 931 q 396 988 333 988 q 503 959 458 988 q 568 878 549 931 q 575 754 588 826 q 524 631 563 683 q 429 549 485 578 q 311 521 374 521 m 810 74 q 874 90 843 74 q 927 138 904 106 q 958 217 950 169 q 941 326 971 290 q 861 361 911 361 q 798 345 829 361 q 744 297 767 329 q 713 217 721 265 q 731 109 700 144 q 810 74 763 74 m 328 611 q 392 627 361 611 q 444 675 422 643 q 475 754 467 707 q 458 864 488 828 q 381 900 429 900 q 316 884 347 900 q 261 835 285 868 q 229 754 238 803 q 248 647 217 682 q 328 611 279 611 z "},"↑":{"ha":1135,"x_min":47,"x_max":1126,"o":"m 47 472 l 556 972 l 618 972 l 1126 472 l 1051 397 l 644 801 l 644 0 l 531 0 l 531 804 l 122 399 l 47 472 z "},"↗":{"ha":953,"x_min":115,"x_max":878,"o":"m 203 101 l 125 179 l 701 754 l 115 754 l 115 858 l 833 858 l 878 815 l 878 94 l 774 94 l 774 672 l 203 101 z "},"→":{"ha":1043,"x_min":57,"x_max":1029,"o":"m 57 419 l 57 529 l 861 529 l 456 913 l 529 988 l 1029 507 l 1029 446 l 529 -36 l 454 40 l 857 419 l 57 419 z "},"↘":{"ha":919,"x_min":89,"x_max":851,"o":"m 176 849 l 747 278 l 747 856 l 851 856 l 851 135 l 807 92 l 89 92 l 89 196 l 675 196 l 99 771 l 176 849 z "},"↓":{"ha":1135,"x_min":51,"x_max":1131,"o":"m 51 500 l 126 574 l 535 168 l 535 972 l 649 972 l 649 171 l 1056 575 l 1131 500 l 622 0 l 560 0 l 51 500 z "},"↙":{"ha":953,"x_min":114,"x_max":876,"o":"m 789 849 l 867 771 l 290 196 l 876 196 l 876 92 l 158 92 l 114 135 l 114 856 l 218 856 l 218 278 l 789 849 z "},"←":{"ha":1043,"x_min":53,"x_max":1025,"o":"m 1025 419 l 225 419 l 628 40 l 553 -36 l 53 446 l 53 507 l 553 988 l 626 913 l 221 529 l 1025 529 l 1025 419 z "},"↖":{"ha":921,"x_min":104,"x_max":867,"o":"m 779 85 l 208 656 l 208 78 l 104 78 l 104 799 l 149 842 l 867 842 l 867 738 l 281 738 l 857 163 l 779 85 z "},"↔":{"ha":1343,"x_min":53,"x_max":1329,"o":"m 53 446 l 53 507 l 521 988 l 600 918 l 215 528 l 1167 528 l 782 918 l 861 988 l 1329 507 l 1329 446 l 861 -36 l 782 33 l 1164 422 l 218 422 l 600 33 l 521 -36 l 53 446 z "},"↕":{"ha":1163,"x_min":76,"x_max":1129,"o":"m 76 335 l 142 413 l 546 144 l 546 828 l 142 560 l 76 638 l 571 972 l 633 972 l 1129 638 l 1064 560 l 660 828 l 660 144 l 1064 413 l 1129 335 l 633 0 l 571 0 l 76 335 z "},"◊":{"ha":768,"x_min":72,"x_max":738,"o":"m 346 153 l 72 486 l 464 818 l 738 486 l 346 153 m 367 275 l 614 486 l 443 696 l 197 486 l 367 275 z "},"̈":{"ha":0,"x_min":94,"x_max":454,"o":"m 164 822 q 115 842 135 822 q 94 892 94 863 q 115 940 94 919 q 164 961 135 961 q 213 940 192 961 q 233 892 233 919 q 213 842 233 863 q 164 822 192 822 m 386 822 q 337 842 357 822 q 317 892 317 863 q 337 940 317 919 q 386 961 357 961 q 434 940 414 961 q 454 892 454 919 q 434 842 454 863 q 386 822 414 822 z "},"̇":{"ha":0,"x_min":94,"x_max":233,"o":"m 164 824 q 115 844 136 824 q 94 893 94 865 q 115 942 94 921 q 164 963 136 963 q 213 942 192 963 q 233 893 233 921 q 213 844 233 865 q 164 824 192 824 z "},"̀":{"ha":0,"x_min":103,"x_max":397,"o":"m 335 790 l 103 949 l 186 1043 l 186 1043 l 397 865 l 335 790 z "},"́":{"ha":0,"x_min":88,"x_max":382,"o":"m 150 790 l 88 865 l 299 1043 l 299 1043 l 382 949 l 150 790 z "},"̋":{"ha":0,"x_min":76,"x_max":517,"o":"m 279 800 l 415 1007 l 517 1007 l 357 800 l 279 800 m 76 800 l 204 1007 l 306 1007 l 156 800 l 76 800 z "},"̂":{"ha":0,"x_min":75,"x_max":472,"o":"m 75 794 l 92 886 l 301 999 l 472 886 l 456 794 l 286 911 l 75 794 z "},"̌":{"ha":0,"x_min":100,"x_max":497,"o":"m 497 1024 l 481 932 l 271 819 l 100 932 l 117 1024 l 286 907 l 497 1024 z "},"̆":{"ha":0,"x_min":103,"x_max":506,"o":"m 274 813 q 171 837 210 813 q 117 902 132 861 q 111 993 103 943 l 115 1013 l 185 1013 q 199 933 175 961 q 290 904 224 904 q 391 933 357 904 q 435 1013 425 961 l 506 1013 l 501 993 q 463 902 493 943 q 385 837 433 861 q 274 813 338 813 z "},"̊":{"ha":0,"x_min":108,"x_max":400,"o":"m 254 822 q 151 860 194 822 q 108 965 108 899 q 151 1070 108 1032 q 254 1108 194 1108 q 358 1070 315 1108 q 400 965 400 1032 q 358 860 400 899 q 254 822 315 822 m 254 882 q 310 905 288 882 q 333 965 333 928 q 310 1026 333 1004 q 254 1047 288 1047 q 199 1026 222 1047 q 175 965 175 1004 q 199 905 175 928 q 254 882 222 882 z "},"̃":{"ha":0,"x_min":81,"x_max":525,"o":"m 81 825 q 144 930 103 894 q 238 965 186 965 q 297 949 275 965 q 338 917 318 933 q 386 900 357 900 q 428 916 410 900 q 457 963 447 932 l 525 963 q 462 858 504 894 q 367 822 419 822 q 307 839 329 822 q 266 872 285 856 q 218 888 247 888 q 178 872 196 888 q 149 825 160 857 l 81 825 z "},"̄":{"ha":0,"x_min":86,"x_max":585,"o":"m 86 856 l 103 943 l 585 943 l 568 856 l 86 856 z "},"̒":{"ha":0,"x_min":93,"x_max":261,"o":"m 261 1069 l 251 1014 q 199 1001 217 1014 q 175 961 181 988 l 171 932 l 238 932 l 217 817 l 94 817 q 94 880 93 853 q 100 933 94 907 q 154 1038 113 1006 q 261 1069 196 1069 z "},"̦":{"ha":0,"x_min":-122,"x_max":47,"o":"m -122 -331 l -112 -275 q -58 -255 -78 -275 q -33 -196 -39 -235 l -31 -176 l -93 -176 l -74 -69 l 46 -69 q 46 -124 47 -97 q 40 -172 44 -150 q -16 -292 26 -254 q -122 -331 -58 -331 z "},"̧":{"ha":0,"x_min":-128,"x_max":221,"o":"m -128 -360 l -115 -286 l 13 -286 q 87 -269 61 -286 q 118 -219 113 -253 q 103 -173 124 -189 q 35 -157 83 -157 l -33 -157 l -4 10 l 74 10 l 57 -87 q 148 -101 110 -86 q 203 -146 186 -115 q 213 -221 221 -176 q 178 -295 206 -264 q 110 -343 151 -326 q 21 -360 69 -360 l -128 -360 z "},"̨":{"ha":0,"x_min":-99,"x_max":200,"o":"m 50 -282 q -28 -269 7 -282 q -81 -226 -62 -256 q -90 -150 -99 -197 q -64 -86 -85 -117 q -3 -27 -43 -56 q 103 28 38 1 l 182 60 l 200 0 l 113 -39 q 35 -87 60 -62 q 6 -139 11 -112 q 20 -189 0 -171 q 78 -207 40 -207 q 122 -201 97 -207 q 171 -186 147 -196 l 158 -264 q 106 -277 133 -272 q 50 -282 78 -282 z "},"¨":{"ha":363,"x_min":94,"x_max":454,"o":"m 164 822 q 115 842 135 822 q 94 892 94 863 q 115 940 94 919 q 164 961 135 961 q 213 940 192 961 q 233 892 233 919 q 213 842 233 863 q 164 822 192 822 m 386 822 q 337 842 357 822 q 317 892 317 863 q 337 940 317 919 q 386 961 357 961 q 434 940 414 961 q 454 892 454 919 q 434 842 454 863 q 386 822 414 822 z "},"˙":{"ha":142,"x_min":94,"x_max":233,"o":"m 164 824 q 115 844 136 824 q 94 893 94 865 q 115 942 94 921 q 164 963 136 963 q 213 942 192 963 q 233 893 233 921 q 213 844 233 865 q 164 824 192 824 z "},"`":{"ha":310,"x_min":103,"x_max":397,"o":"m 335 790 l 103 949 l 186 1043 l 186 1043 l 397 865 l 335 790 z "},"´":{"ha":279,"x_min":88,"x_max":382,"o":"m 150 790 l 88 865 l 299 1043 l 299 1043 l 382 949 l 150 790 z "},"˝":{"ha":404,"x_min":76,"x_max":517,"o":"m 279 800 l 415 1007 l 517 1007 l 357 800 l 279 800 m 76 800 l 204 1007 l 306 1007 l 156 800 l 76 800 z "},"ˆ":{"ha":381,"x_min":75,"x_max":472,"o":"m 75 794 l 92 886 l 301 999 l 472 886 l 456 794 l 286 911 l 75 794 z "},"ˇ":{"ha":381,"x_min":100,"x_max":497,"o":"m 497 1024 l 481 932 l 271 819 l 100 932 l 117 1024 l 286 907 l 497 1024 z "},"˘":{"ha":392,"x_min":103,"x_max":506,"o":"m 274 813 q 171 837 210 813 q 117 902 132 861 q 111 993 103 943 l 115 1013 l 185 1013 q 199 933 175 961 q 290 904 224 904 q 391 933 357 904 q 435 1013 425 961 l 506 1013 l 501 993 q 463 902 493 943 q 385 837 433 861 q 274 813 338 813 z "},"˚":{"ha":297,"x_min":108,"x_max":400,"o":"m 254 822 q 151 860 194 822 q 108 965 108 899 q 151 1070 108 1032 q 254 1108 194 1108 q 358 1070 315 1108 q 400 965 400 1032 q 358 860 400 899 q 254 822 315 822 m 254 882 q 310 905 288 882 q 333 965 333 928 q 310 1026 333 1004 q 254 1047 288 1047 q 199 1026 222 1047 q 175 965 175 1004 q 199 905 175 928 q 254 882 222 882 z "},"˜":{"ha":419,"x_min":81,"x_max":525,"o":"m 81 825 q 144 930 103 894 q 238 965 186 965 q 297 949 275 965 q 338 917 318 933 q 386 900 357 900 q 428 916 410 900 q 457 963 447 932 l 525 963 q 462 858 504 894 q 367 822 419 822 q 307 839 329 822 q 266 872 285 856 q 218 888 247 888 q 178 872 196 888 q 149 825 160 857 l 81 825 z "},"¯":{"ha":483,"x_min":86,"x_max":585,"o":"m 86 856 l 103 943 l 585 943 l 568 856 l 86 856 z "},"¸":{"ha":315,"x_min":-128,"x_max":221,"o":"m -128 -360 l -115 -286 l 13 -286 q 87 -269 61 -286 q 118 -219 113 -253 q 103 -173 124 -189 q 35 -157 83 -157 l -33 -157 l -4 10 l 74 10 l 57 -87 q 148 -101 110 -86 q 203 -146 186 -115 q 213 -221 221 -176 q 178 -295 206 -264 q 110 -343 151 -326 q 21 -360 69 -360 l -128 -360 z "},"˛":{"ha":269,"x_min":-99,"x_max":200,"o":"m 50 -282 q -28 -269 7 -282 q -81 -226 -62 -256 q -90 -150 -99 -197 q -64 -86 -85 -117 q -3 -27 -43 -56 q 103 28 38 1 l 182 60 l 200 0 l 113 -39 q 35 -87 60 -62 q 6 -139 11 -112 q 20 -189 0 -171 q 78 -207 40 -207 q 122 -201 97 -207 q 171 -186 147 -196 l 158 -264 q 106 -277 133 -272 q 50 -282 78 -282 z "}}}
